G04 start of page 10 for group -4078 idx -4078 *
G04 Title: (unknown), bottomsilk *
G04 Creator: pcb 20140316 *
G04 CreationDate: Sat 14 Dec 2019 03:41:57 AM GMT UTC *
G04 For: railfan *
G04 Format: Gerber/RS-274X *
G04 PCB-Dimensions (mil): 900.00 2000.00 *
G04 PCB-Coordinate-Origin: lower left *
%MOIN*%
%FSLAX25Y25*%
%LNBOTTOMSILK*%
%ADD41C,0.0080*%
G54D41*X39000Y183500D02*Y183600D01*
Y185000D02*Y186500D01*
X41500Y184500D02*X42000Y185000D01*
X40500Y184500D02*X41500D01*
X40000Y185000D02*X40500Y184500D01*
X40000Y185000D02*Y186000D01*
X40500Y186500D01*
X42000Y184500D02*Y186000D01*
X42500Y186500D01*
X40500D02*X41500D01*
X42000Y186000D01*
X44200Y186500D02*X45700D01*
X46200Y186000D01*
X45700Y185500D02*X46200Y186000D01*
X44200Y185500D02*X45700D01*
X43700Y185000D02*X44200Y185500D01*
X43700Y185000D02*X44200Y184500D01*
X45700D01*
X46200Y185000D01*
X43700Y186000D02*X44200Y186500D01*
X47900Y184500D02*X49400D01*
X47400Y185000D02*X47900Y184500D01*
X47400Y185000D02*Y186000D01*
X47900Y186500D01*
X49400D01*
X52100Y184500D02*X52600Y185000D01*
X51100Y184500D02*X52100D01*
X50600Y185000D02*X51100Y184500D01*
X50600Y185000D02*Y186000D01*
X51100Y186500D01*
X52600Y184500D02*Y186000D01*
X53100Y186500D01*
X51100D02*X52100D01*
X52600Y186000D01*
X54300Y182500D02*Y186000D01*
X54800Y186500D01*
X56300D02*X57800D01*
X55800Y186000D02*X56300Y186500D01*
X55800Y185000D02*Y186000D01*
Y185000D02*X56300Y184500D01*
X57300D01*
X57800Y185000D01*
X55800Y185500D02*X57800D01*
Y185000D02*Y185500D01*
X61000Y182500D02*Y186500D01*
X60500D02*X61000Y186000D01*
X59500Y186500D02*X60500D01*
X59000Y186000D02*X59500Y186500D01*
X59000Y185000D02*Y186000D01*
Y185000D02*X59500Y184500D01*
X60500D01*
X61000Y185000D01*
X62200Y186500D02*X62700D01*
X64400Y184500D02*X65900D01*
X63900Y185000D02*X64400Y184500D01*
X63900Y185000D02*Y186000D01*
X64400Y186500D01*
X65900D01*
X67100Y185000D02*Y186000D01*
Y185000D02*X67600Y184500D01*
X68600D01*
X69100Y185000D01*
Y186000D01*
X68600Y186500D02*X69100Y186000D01*
X67600Y186500D02*X68600D01*
X67100Y186000D02*X67600Y186500D01*
X70800Y185000D02*Y186500D01*
Y185000D02*X71300Y184500D01*
X71800D01*
X72300Y185000D01*
Y186500D01*
Y185000D02*X72800Y184500D01*
X73300D01*
X73800Y185000D01*
Y186500D01*
X70300Y184500D02*X70800Y185000D01*
X56500Y195965D02*X56885Y196350D01*
X56500Y193655D02*X56885Y193270D01*
X56500Y193655D02*Y195965D01*
X58348Y196350D02*X59349D01*
X57809Y195811D02*X58348Y196350D01*
X57809Y193809D02*Y195811D01*
Y193809D02*X58348Y193270D01*
X59349D01*
X60273D02*X60658Y193655D01*
Y195965D01*
X60273Y196350D02*X60658Y195965D01*
X61582Y193655D02*X61967Y193270D01*
X63122D01*
X63507Y193655D01*
Y194425D01*
X61582Y196350D02*X63507Y194425D01*
X61582Y196350D02*X63507D01*
X64431Y195965D02*X64816Y196350D01*
X64431Y193655D02*Y195965D01*
Y193655D02*X64816Y193270D01*
X65586D01*
X65971Y193655D01*
Y195965D01*
X65586Y196350D02*X65971Y195965D01*
X64816Y196350D02*X65586D01*
X64431Y195580D02*X65971Y194040D01*
X66895Y193886D02*X67511Y193270D01*
Y196350D01*
X66895D02*X68050D01*
X69359D02*X70514Y194810D01*
Y193655D02*Y194810D01*
X70129Y193270D02*X70514Y193655D01*
X69359Y193270D02*X70129D01*
X68974Y193655D02*X69359Y193270D01*
X68974Y193655D02*Y194425D01*
X69359Y194810D01*
X70514D01*
X56500Y160965D02*X56885Y161350D01*
X56500Y158655D02*X56885Y158270D01*
X56500Y158655D02*Y160965D01*
X58348Y161350D02*X59349D01*
X57809Y160811D02*X58348Y161350D01*
X57809Y158809D02*Y160811D01*
Y158809D02*X58348Y158270D01*
X59349D01*
X60273D02*X60658Y158655D01*
Y160965D01*
X60273Y161350D02*X60658Y160965D01*
X61582Y158655D02*X61967Y158270D01*
X63122D01*
X63507Y158655D01*
Y159425D01*
X61582Y161350D02*X63507Y159425D01*
X61582Y161350D02*X63507D01*
X64431Y160965D02*X64816Y161350D01*
X64431Y158655D02*Y160965D01*
Y158655D02*X64816Y158270D01*
X65586D01*
X65971Y158655D01*
Y160965D01*
X65586Y161350D02*X65971Y160965D01*
X64816Y161350D02*X65586D01*
X64431Y160580D02*X65971Y159040D01*
X66895Y158886D02*X67511Y158270D01*
Y161350D01*
X66895D02*X68050D01*
X69359D02*X70514Y159810D01*
Y158655D02*Y159810D01*
X70129Y158270D02*X70514Y158655D01*
X69359Y158270D02*X70129D01*
X68974Y158655D02*X69359Y158270D01*
X68974Y158655D02*Y159425D01*
X69359Y159810D01*
X70514D01*
X10000Y176500D02*X11000D01*
X10500D02*Y180500D01*
X10000D02*X11000D01*
X12200Y177000D02*X12700Y176500D01*
X14200D01*
X14700Y177000D01*
Y178000D01*
X12200Y180500D02*X14700Y178000D01*
X12200Y180500D02*X14700D01*
X16600D02*X17900D01*
X15900Y179800D02*X16600Y180500D01*
X15900Y177200D02*Y179800D01*
Y177200D02*X16600Y176500D01*
X17900D01*
X19100Y178500D02*X21100D01*
X22300Y176500D02*Y178500D01*
X22800Y180500D01*
X23800Y178500D01*
X24800Y180500D01*
X25300Y178500D01*
Y176500D02*Y178500D01*
X26500Y180500D02*X29000Y176500D01*
X26500D02*X29000Y180500D01*
X32200Y176500D02*X32700Y177000D01*
X30700Y176500D02*X32200D01*
X30200Y177000D02*X30700Y176500D01*
X30200Y177000D02*Y178000D01*
X30700Y178500D01*
X32200D01*
X32700Y179000D01*
Y180000D01*
X32200Y180500D02*X32700Y180000D01*
X30700Y180500D02*X32200D01*
X30200Y180000D02*X30700Y180500D01*
X33900Y176500D02*Y180500D01*
Y176500D02*X36400Y180500D01*
Y176500D02*Y180500D01*
X39600Y176500D02*X40100Y177000D01*
X38100Y176500D02*X39600D01*
X37600Y177000D02*X38100Y176500D01*
X37600Y177000D02*Y178000D01*
X38100Y178500D01*
X39600D01*
X40100Y179000D01*
Y180000D01*
X39600Y180500D02*X40100Y180000D01*
X38100Y180500D02*X39600D01*
X37600Y180000D02*X38100Y180500D01*
X11539Y196350D02*X12540D01*
X11000Y195811D02*X11539Y196350D01*
X11000Y193809D02*Y195811D01*
Y193809D02*X11539Y193270D01*
X12540D01*
X14003Y196350D02*X15004D01*
X13464Y195811D02*X14003Y196350D01*
X13464Y193809D02*Y195811D01*
Y193809D02*X14003Y193270D01*
X15004D01*
X17314Y196350D02*X18854D01*
X19239Y195965D01*
Y195041D02*Y195965D01*
X18854Y194656D02*X19239Y195041D01*
X17699Y194656D02*X18854D01*
X17699Y193270D02*Y196350D01*
X17314Y193270D02*X18854D01*
X19239Y193655D01*
Y194271D01*
X18854Y194656D02*X19239Y194271D01*
X20163Y193270D02*X20933Y194810D01*
X21703Y193270D01*
X20933Y194810D02*Y196350D01*
X22627Y194810D02*X24167D01*
X26631Y193270D02*X27016Y193655D01*
X25476Y193270D02*X26631D01*
X25091Y193655D02*X25476Y193270D01*
X25091Y193655D02*Y194425D01*
X25476Y194810D01*
X26631D01*
X27016Y195195D01*
Y195965D01*
X26631Y196350D02*X27016Y195965D01*
X25476Y196350D02*X26631D01*
X25091Y195965D02*X25476Y196350D01*
X27940Y194040D02*Y196350D01*
Y194040D02*X28479Y193270D01*
X29326D01*
X29865Y194040D01*
Y196350D01*
X27940Y194810D02*X29865D01*
X10500Y185000D02*X11500Y187000D01*
X12500Y185000D02*X11500Y187000D01*
X13700Y183500D02*X14200Y183000D01*
X15700D01*
X16200Y183500D01*
Y184500D01*
X13700Y187000D02*X16200Y184500D01*
X13700Y187000D02*X16200D01*
X17400D02*X17900D01*
X19100Y183500D02*X19600Y183000D01*
X21100D01*
X21600Y183500D01*
Y184500D01*
X19100Y187000D02*X21600Y184500D01*
X19100Y187000D02*X21600D01*
X10000Y141500D02*X11000D01*
X10500D02*Y145500D01*
X10000D02*X11000D01*
X12200Y142000D02*X12700Y141500D01*
X14200D01*
X14700Y142000D01*
Y143000D01*
X12200Y145500D02*X14700Y143000D01*
X12200Y145500D02*X14700D01*
X16600D02*X17900D01*
X15900Y144800D02*X16600Y145500D01*
X15900Y142200D02*Y144800D01*
Y142200D02*X16600Y141500D01*
X17900D01*
X19100Y143500D02*X21100D01*
X22300Y141500D02*Y143500D01*
X22800Y145500D01*
X23800Y143500D01*
X24800Y145500D01*
X25300Y143500D01*
Y141500D02*Y143500D01*
X26500Y145500D02*X29000Y141500D01*
X26500D02*X29000Y145500D01*
X32200Y141500D02*X32700Y142000D01*
X30700Y141500D02*X32200D01*
X30200Y142000D02*X30700Y141500D01*
X30200Y142000D02*Y143000D01*
X30700Y143500D01*
X32200D01*
X32700Y144000D01*
Y145000D01*
X32200Y145500D02*X32700Y145000D01*
X30700Y145500D02*X32200D01*
X30200Y145000D02*X30700Y145500D01*
X33900Y141500D02*Y145500D01*
Y141500D02*X36400Y145500D01*
Y141500D02*Y145500D01*
X39600Y141500D02*X40100Y142000D01*
X38100Y141500D02*X39600D01*
X37600Y142000D02*X38100Y141500D01*
X37600Y142000D02*Y143000D01*
X38100Y143500D01*
X39600D01*
X40100Y144000D01*
Y145000D01*
X39600Y145500D02*X40100Y145000D01*
X38100Y145500D02*X39600D01*
X37600Y145000D02*X38100Y145500D01*
X39000Y148500D02*Y148600D01*
Y150000D02*Y151500D01*
X41500Y149500D02*X42000Y150000D01*
X40500Y149500D02*X41500D01*
X40000Y150000D02*X40500Y149500D01*
X40000Y150000D02*Y151000D01*
X40500Y151500D01*
X42000Y149500D02*Y151000D01*
X42500Y151500D01*
X40500D02*X41500D01*
X42000Y151000D01*
X44200Y151500D02*X45700D01*
X46200Y151000D01*
X45700Y150500D02*X46200Y151000D01*
X44200Y150500D02*X45700D01*
X43700Y150000D02*X44200Y150500D01*
X43700Y150000D02*X44200Y149500D01*
X45700D01*
X46200Y150000D01*
X43700Y151000D02*X44200Y151500D01*
X47900Y149500D02*X49400D01*
X47400Y150000D02*X47900Y149500D01*
X47400Y150000D02*Y151000D01*
X47900Y151500D01*
X49400D01*
X52100Y149500D02*X52600Y150000D01*
X51100Y149500D02*X52100D01*
X50600Y150000D02*X51100Y149500D01*
X50600Y150000D02*Y151000D01*
X51100Y151500D01*
X52600Y149500D02*Y151000D01*
X53100Y151500D01*
X51100D02*X52100D01*
X52600Y151000D01*
X54300Y147500D02*Y151000D01*
X54800Y151500D01*
X56300D02*X57800D01*
X55800Y151000D02*X56300Y151500D01*
X55800Y150000D02*Y151000D01*
Y150000D02*X56300Y149500D01*
X57300D01*
X57800Y150000D01*
X55800Y150500D02*X57800D01*
Y150000D02*Y150500D01*
X61000Y147500D02*Y151500D01*
X60500D02*X61000Y151000D01*
X59500Y151500D02*X60500D01*
X59000Y151000D02*X59500Y151500D01*
X59000Y150000D02*Y151000D01*
Y150000D02*X59500Y149500D01*
X60500D01*
X61000Y150000D01*
X62200Y151500D02*X62700D01*
X64400Y149500D02*X65900D01*
X63900Y150000D02*X64400Y149500D01*
X63900Y150000D02*Y151000D01*
X64400Y151500D01*
X65900D01*
X67100Y150000D02*Y151000D01*
Y150000D02*X67600Y149500D01*
X68600D01*
X69100Y150000D01*
Y151000D01*
X68600Y151500D02*X69100Y151000D01*
X67600Y151500D02*X68600D01*
X67100Y151000D02*X67600Y151500D01*
X70800Y150000D02*Y151500D01*
Y150000D02*X71300Y149500D01*
X71800D01*
X72300Y150000D01*
Y151500D01*
Y150000D02*X72800Y149500D01*
X73300D01*
X73800Y150000D01*
Y151500D01*
X70300Y149500D02*X70800Y150000D01*
X11539Y161350D02*X12540D01*
X11000Y160811D02*X11539Y161350D01*
X11000Y158809D02*Y160811D01*
Y158809D02*X11539Y158270D01*
X12540D01*
X14003Y161350D02*X15004D01*
X13464Y160811D02*X14003Y161350D01*
X13464Y158809D02*Y160811D01*
Y158809D02*X14003Y158270D01*
X15004D01*
X17314Y161350D02*X18854D01*
X19239Y160965D01*
Y160041D02*Y160965D01*
X18854Y159656D02*X19239Y160041D01*
X17699Y159656D02*X18854D01*
X17699Y158270D02*Y161350D01*
X17314Y158270D02*X18854D01*
X19239Y158655D01*
Y159271D01*
X18854Y159656D02*X19239Y159271D01*
X20163Y158270D02*X20933Y159810D01*
X21703Y158270D01*
X20933Y159810D02*Y161350D01*
X22627Y159810D02*X24167D01*
X26631Y158270D02*X27016Y158655D01*
X25476Y158270D02*X26631D01*
X25091Y158655D02*X25476Y158270D01*
X25091Y158655D02*Y159425D01*
X25476Y159810D01*
X26631D01*
X27016Y160195D01*
Y160965D01*
X26631Y161350D02*X27016Y160965D01*
X25476Y161350D02*X26631D01*
X25091Y160965D02*X25476Y161350D01*
X27940Y159040D02*Y161350D01*
Y159040D02*X28479Y158270D01*
X29326D01*
X29865Y159040D01*
Y161350D01*
X27940Y159810D02*X29865D01*
X10500Y150000D02*X11500Y152000D01*
X12500Y150000D02*X11500Y152000D01*
X13700Y148500D02*X14200Y148000D01*
X15700D01*
X16200Y148500D01*
Y149500D01*
X13700Y152000D02*X16200Y149500D01*
X13700Y152000D02*X16200D01*
X17400D02*X17900D01*
X19100Y148500D02*X19600Y148000D01*
X21100D01*
X21600Y148500D01*
Y149500D01*
X19100Y152000D02*X21600Y149500D01*
X19100Y152000D02*X21600D01*
X10000Y106500D02*X11000D01*
X10500D02*Y110500D01*
X10000D02*X11000D01*
X12200Y107000D02*X12700Y106500D01*
X14200D01*
X14700Y107000D01*
Y108000D01*
X12200Y110500D02*X14700Y108000D01*
X12200Y110500D02*X14700D01*
X16600D02*X17900D01*
X15900Y109800D02*X16600Y110500D01*
X15900Y107200D02*Y109800D01*
Y107200D02*X16600Y106500D01*
X17900D01*
X19100Y108500D02*X21100D01*
X22300Y106500D02*Y108500D01*
X22800Y110500D01*
X23800Y108500D01*
X24800Y110500D01*
X25300Y108500D01*
Y106500D02*Y108500D01*
X26500Y110500D02*X29000Y106500D01*
X26500D02*X29000Y110500D01*
X32200Y106500D02*X32700Y107000D01*
X30700Y106500D02*X32200D01*
X30200Y107000D02*X30700Y106500D01*
X30200Y107000D02*Y108000D01*
X30700Y108500D01*
X32200D01*
X32700Y109000D01*
Y110000D01*
X32200Y110500D02*X32700Y110000D01*
X30700Y110500D02*X32200D01*
X30200Y110000D02*X30700Y110500D01*
X33900Y106500D02*Y110500D01*
Y106500D02*X36400Y110500D01*
Y106500D02*Y110500D01*
X39600Y106500D02*X40100Y107000D01*
X38100Y106500D02*X39600D01*
X37600Y107000D02*X38100Y106500D01*
X37600Y107000D02*Y108000D01*
X38100Y108500D01*
X39600D01*
X40100Y109000D01*
Y110000D01*
X39600Y110500D02*X40100Y110000D01*
X38100Y110500D02*X39600D01*
X37600Y110000D02*X38100Y110500D01*
X10500Y115000D02*X11500Y117000D01*
X12500Y115000D02*X11500Y117000D01*
X13700Y113500D02*X14200Y113000D01*
X15700D01*
X16200Y113500D01*
Y114500D01*
X13700Y117000D02*X16200Y114500D01*
X13700Y117000D02*X16200D01*
X17400D02*X17900D01*
X19100Y113500D02*X19600Y113000D01*
X21100D01*
X21600Y113500D01*
Y114500D01*
X19100Y117000D02*X21600Y114500D01*
X19100Y117000D02*X21600D01*
X39000Y113500D02*Y113600D01*
Y115000D02*Y116500D01*
X41500Y114500D02*X42000Y115000D01*
X40500Y114500D02*X41500D01*
X40000Y115000D02*X40500Y114500D01*
X40000Y115000D02*Y116000D01*
X40500Y116500D01*
X42000Y114500D02*Y116000D01*
X42500Y116500D01*
X40500D02*X41500D01*
X42000Y116000D01*
X44200Y116500D02*X45700D01*
X46200Y116000D01*
X45700Y115500D02*X46200Y116000D01*
X44200Y115500D02*X45700D01*
X43700Y115000D02*X44200Y115500D01*
X43700Y115000D02*X44200Y114500D01*
X45700D01*
X46200Y115000D01*
X43700Y116000D02*X44200Y116500D01*
X47900Y114500D02*X49400D01*
X47400Y115000D02*X47900Y114500D01*
X47400Y115000D02*Y116000D01*
X47900Y116500D01*
X49400D01*
X52100Y114500D02*X52600Y115000D01*
X51100Y114500D02*X52100D01*
X50600Y115000D02*X51100Y114500D01*
X50600Y115000D02*Y116000D01*
X51100Y116500D01*
X52600Y114500D02*Y116000D01*
X53100Y116500D01*
X51100D02*X52100D01*
X52600Y116000D01*
X54300Y112500D02*Y116000D01*
X54800Y116500D01*
X56300D02*X57800D01*
X55800Y116000D02*X56300Y116500D01*
X55800Y115000D02*Y116000D01*
Y115000D02*X56300Y114500D01*
X57300D01*
X57800Y115000D01*
X55800Y115500D02*X57800D01*
Y115000D02*Y115500D01*
X61000Y112500D02*Y116500D01*
X60500D02*X61000Y116000D01*
X59500Y116500D02*X60500D01*
X59000Y116000D02*X59500Y116500D01*
X59000Y115000D02*Y116000D01*
Y115000D02*X59500Y114500D01*
X60500D01*
X61000Y115000D01*
X62200Y116500D02*X62700D01*
X64400Y114500D02*X65900D01*
X63900Y115000D02*X64400Y114500D01*
X63900Y115000D02*Y116000D01*
X64400Y116500D01*
X65900D01*
X67100Y115000D02*Y116000D01*
Y115000D02*X67600Y114500D01*
X68600D01*
X69100Y115000D01*
Y116000D01*
X68600Y116500D02*X69100Y116000D01*
X67600Y116500D02*X68600D01*
X67100Y116000D02*X67600Y116500D01*
X70800Y115000D02*Y116500D01*
Y115000D02*X71300Y114500D01*
X71800D01*
X72300Y115000D01*
Y116500D01*
Y115000D02*X72800Y114500D01*
X73300D01*
X73800Y115000D01*
Y116500D01*
X70300Y114500D02*X70800Y115000D01*
X11539Y126350D02*X12540D01*
X11000Y125811D02*X11539Y126350D01*
X11000Y123809D02*Y125811D01*
Y123809D02*X11539Y123270D01*
X12540D01*
X14003Y126350D02*X15004D01*
X13464Y125811D02*X14003Y126350D01*
X13464Y123809D02*Y125811D01*
Y123809D02*X14003Y123270D01*
X15004D01*
X17314Y126350D02*X18854D01*
X19239Y125965D01*
Y125041D02*Y125965D01*
X18854Y124656D02*X19239Y125041D01*
X17699Y124656D02*X18854D01*
X17699Y123270D02*Y126350D01*
X17314Y123270D02*X18854D01*
X19239Y123655D01*
Y124271D01*
X18854Y124656D02*X19239Y124271D01*
X20163Y123270D02*X20933Y124810D01*
X21703Y123270D01*
X20933Y124810D02*Y126350D01*
X22627Y124810D02*X24167D01*
X26631Y123270D02*X27016Y123655D01*
X25476Y123270D02*X26631D01*
X25091Y123655D02*X25476Y123270D01*
X25091Y123655D02*Y124425D01*
X25476Y124810D01*
X26631D01*
X27016Y125195D01*
Y125965D01*
X26631Y126350D02*X27016Y125965D01*
X25476Y126350D02*X26631D01*
X25091Y125965D02*X25476Y126350D01*
X27940Y124040D02*Y126350D01*
Y124040D02*X28479Y123270D01*
X29326D01*
X29865Y124040D01*
Y126350D01*
X27940Y124810D02*X29865D01*
X56500Y125965D02*X56885Y126350D01*
X56500Y123655D02*X56885Y123270D01*
X56500Y123655D02*Y125965D01*
X58348Y126350D02*X59349D01*
X57809Y125811D02*X58348Y126350D01*
X57809Y123809D02*Y125811D01*
Y123809D02*X58348Y123270D01*
X59349D01*
X60273D02*X60658Y123655D01*
Y125965D01*
X60273Y126350D02*X60658Y125965D01*
X61582Y123655D02*X61967Y123270D01*
X63122D01*
X63507Y123655D01*
Y124425D01*
X61582Y126350D02*X63507Y124425D01*
X61582Y126350D02*X63507D01*
X64431Y125965D02*X64816Y126350D01*
X64431Y123655D02*Y125965D01*
Y123655D02*X64816Y123270D01*
X65586D01*
X65971Y123655D01*
Y125965D01*
X65586Y126350D02*X65971Y125965D01*
X64816Y126350D02*X65586D01*
X64431Y125580D02*X65971Y124040D01*
X66895Y123886D02*X67511Y123270D01*
Y126350D01*
X66895D02*X68050D01*
X69359D02*X70514Y124810D01*
Y123655D02*Y124810D01*
X70129Y123270D02*X70514Y123655D01*
X69359Y123270D02*X70129D01*
X68974Y123655D02*X69359Y123270D01*
X68974Y123655D02*Y124425D01*
X69359Y124810D01*
X70514D01*
M02*
