G04 start of page 4 for group 2 idx 2 *
G04 Title: (unknown), outline *
G04 Creator: pcb 20140316 *
G04 CreationDate: Sat 14 Dec 2019 03:41:57 AM GMT UTC *
G04 For: railfan *
G04 Format: Gerber/RS-274X *
G04 PCB-Dimensions (mil): 900.00 2000.00 *
G04 PCB-Coordinate-Origin: lower left *
%MOIN*%
%FSLAX25Y25*%
%LNOUTLINE*%
%ADD29C,0.0100*%
G54D29*X82500Y199000D02*Y174000D01*
X55000D02*X82500D01*
Y164000D02*Y139000D01*
X55000D02*X82500D01*
X55000Y164000D02*X82500D01*
X7500Y199000D02*Y174000D01*
X82500Y199000D02*X7500D01*
Y174000D02*X35000D01*
X7500Y164000D02*Y139000D01*
X35000D01*
X7500Y164000D02*X35000D01*
X7500Y129000D02*Y104000D01*
Y94000D02*Y4000D01*
X82500Y129000D02*Y104000D01*
X7500Y129000D02*X35000D01*
X7500Y104000D02*X35000D01*
Y94000D02*X7500D01*
Y4000D02*X82500D01*
Y94000D01*
X55000D01*
Y129000D02*X82500D01*
X55000Y104000D02*X82500D01*
X50000Y134000D02*G75*G03X55000Y129000I5000J0D01*G01*
X50000Y134000D02*G75*G02X55000Y139000I5000J0D01*G01*
X40000Y134000D02*G75*G02X35000Y129000I-5000J0D01*G01*
X40000Y134000D02*G75*G03X35000Y139000I-5000J0D01*G01*
X50000Y169000D02*G75*G03X55000Y164000I5000J0D01*G01*
X50000Y169000D02*G75*G02X55000Y174000I5000J0D01*G01*
X40000Y169000D02*G75*G02X35000Y164000I-5000J0D01*G01*
X40000Y169000D02*G75*G03X35000Y174000I-5000J0D01*G01*
X50000Y99000D02*G75*G03X55000Y94000I5000J0D01*G01*
X50000Y99000D02*G75*G02X55000Y104000I5000J0D01*G01*
X40000Y99000D02*G75*G02X35000Y94000I-5000J0D01*G01*
X40000Y99000D02*G75*G03X35000Y104000I-5000J0D01*G01*
M02*
