M48
INCH
T30C0.012
%
T30
X003300Y019250
X003300Y018400
X003300Y015750
X003300Y014900
X003300Y012250
X003300Y011400
X003600Y019250
X003600Y018400
X003600Y015750
X003600Y014900
X003600Y012250
X003600Y011400
X004700Y019300
X004700Y018000
X004700Y015800
X004700Y014500
X004700Y012300
X004700Y011000
X005050Y019300
X005050Y018000
X005050Y015800
X005050Y014500
X005050Y012300
X005050Y011000
X005400Y019300
X005400Y018000
X005400Y015800
X005400Y014500
X005400Y012300
X005400Y011000
X007250Y019500
X007250Y016000
X007250Y012500
X007306Y017900
X007306Y014400
X007306Y010900
X007700Y019000
X007700Y018650
X007700Y018300
X007700Y015500
X007700Y015150
X007700Y014800
X007700Y012000
X007700Y011650
X007700Y011300
M30
