G04 start of page 9 for group -4079 idx -4079 *
G04 Title: (unknown), topsilk *
G04 Creator: pcb 20140316 *
G04 CreationDate: Sat 14 Dec 2019 03:41:57 AM GMT UTC *
G04 For: railfan *
G04 Format: Gerber/RS-274X *
G04 PCB-Dimensions (mil): 900.00 2000.00 *
G04 PCB-Coordinate-Origin: lower left *
%MOIN*%
%FSLAX25Y25*%
%LNTOPSILK*%
%ADD40C,0.0080*%
%ADD39C,0.0100*%
G54D39*X56745Y186893D02*Y186107D01*
X62255Y186893D02*Y186107D01*
X75421Y192406D02*Y180594D01*
X65579D02*X75421D01*
X65579Y192406D02*Y180594D01*
Y192406D02*X75421D01*
X76921Y194406D02*G75*G03X76921Y194406I0J-500D01*G01*
X56745Y151893D02*Y151107D01*
X62255Y151893D02*Y151107D01*
X40110Y156421D02*X53890D01*
Y146579D01*
X40110D01*
Y156421D01*
X39410Y158521D02*G75*G03X39410Y158521I500J0D01*G01*
X75421Y157406D02*Y145594D01*
X65579D02*X75421D01*
X65579Y157406D02*Y145594D01*
Y157406D02*X75421D01*
X76921Y159406D02*G75*G03X76921Y159406I0J-500D01*G01*
X40110Y191421D02*X53890D01*
Y181579D01*
X40110D01*
Y191421D01*
X39410Y193521D02*G75*G03X39410Y193521I500J0D01*G01*
X56745Y116893D02*Y116107D01*
X62255Y116893D02*Y116107D01*
X40110Y121421D02*X53890D01*
Y111579D01*
X40110D01*
Y121421D01*
X39410Y123521D02*G75*G03X39410Y123521I500J0D01*G01*
X75421Y122406D02*Y110594D01*
X65579D02*X75421D01*
X65579Y122406D02*Y110594D01*
Y122406D02*X75421D01*
X76921Y124406D02*G75*G03X76921Y124406I0J-500D01*G01*
G54D40*X38476Y179974D02*Y177279D01*
X38861Y176894D01*
X39631D01*
X40016Y177279D01*
Y179974D02*Y177279D01*
X40940Y179589D02*X41325Y179974D01*
X42480D01*
X42865Y179589D01*
Y178819D01*
X40940Y176894D02*X42865Y178819D01*
X40940Y176894D02*X42865D01*
X64500Y179230D02*Y176535D01*
X64885Y176150D01*
X65655D01*
X66040Y176535D01*
Y179230D02*Y176535D01*
X66964Y178614D02*X67580Y179230D01*
Y176150D01*
X66964D02*X68119D01*
X16500Y153300D02*Y152500D01*
X13000D02*X16500D01*
X12500Y153000D02*X13000Y152500D01*
X12500Y153500D02*Y153000D01*
X13000Y154000D02*X12500Y153500D01*
X13000Y154000D02*X13500D01*
X15700Y151300D02*X16500Y150500D01*
X12500D02*X16500D01*
X12500Y151300D02*Y149800D01*
X58469Y159150D02*X59340D01*
X58000Y159619D02*X58469Y159150D01*
X58000Y161361D02*Y159619D01*
Y161361D02*X58469Y161830D01*
X59340D01*
X60144Y161294D02*X60680Y161830D01*
Y159150D01*
X60144D02*X61149D01*
X38476Y144974D02*Y142279D01*
X38861Y141894D01*
X39631D01*
X40016Y142279D01*
Y144974D02*Y142279D01*
X40940Y144589D02*X41325Y144974D01*
X42480D01*
X42865Y144589D01*
Y143819D01*
X40940Y141894D02*X42865Y143819D01*
X40940Y141894D02*X42865D01*
X16500Y188300D02*Y187500D01*
X13000D02*X16500D01*
X12500Y188000D02*X13000Y187500D01*
X12500Y188500D02*Y188000D01*
X13000Y189000D02*X12500Y188500D01*
X13000Y189000D02*X13500D01*
X15700Y186300D02*X16500Y185500D01*
X12500D02*X16500D01*
X12500Y186300D02*Y184800D01*
X58469Y194150D02*X59340D01*
X58000Y194619D02*X58469Y194150D01*
X58000Y196361D02*Y194619D01*
Y196361D02*X58469Y196830D01*
X59340D01*
X60144Y196294D02*X60680Y196830D01*
Y194150D01*
X60144D02*X61149D01*
X64500Y144230D02*Y141535D01*
X64885Y141150D01*
X65655D01*
X66040Y141535D01*
Y144230D02*Y141535D01*
X66964Y143614D02*X67580Y144230D01*
Y141150D01*
X66964D02*X68119D01*
X16500Y118300D02*Y117500D01*
X13000D02*X16500D01*
X12500Y118000D02*X13000Y117500D01*
X12500Y118500D02*Y118000D01*
X13000Y119000D02*X12500Y118500D01*
X13000Y119000D02*X13500D01*
X15700Y116300D02*X16500Y115500D01*
X12500D02*X16500D01*
X12500Y116300D02*Y114800D01*
X58469Y124150D02*X59340D01*
X58000Y124619D02*X58469Y124150D01*
X58000Y126361D02*Y124619D01*
Y126361D02*X58469Y126830D01*
X59340D01*
X60144Y126294D02*X60680Y126830D01*
Y124150D01*
X60144D02*X61149D01*
X38476Y109974D02*Y107279D01*
X38861Y106894D01*
X39631D01*
X40016Y107279D01*
Y109974D02*Y107279D01*
X40940Y109589D02*X41325Y109974D01*
X42480D01*
X42865Y109589D01*
Y108819D01*
X40940Y106894D02*X42865Y108819D01*
X40940Y106894D02*X42865D01*
X64500Y109230D02*Y106535D01*
X64885Y106150D01*
X65655D01*
X66040Y106535D01*
Y109230D02*Y106535D01*
X66964Y108614D02*X67580Y109230D01*
Y106150D01*
X66964D02*X68119D01*
M02*
