G04 start of page 11 for group -4015 idx -4015 *
G04 Title: (unknown), toppaste *
G04 Creator: pcb 20140316 *
G04 CreationDate: Sat 14 Dec 2019 03:41:57 AM GMT UTC *
G04 For: railfan *
G04 Format: Gerber/RS-274X *
G04 PCB-Dimensions (mil): 900.00 2000.00 *
G04 PCB-Coordinate-Origin: lower left *
%MOIN*%
%FSLAX25Y25*%
%LNTOPPASTE*%
%ADD47R,0.0118X0.0118*%
%ADD46R,0.0354X0.0354*%
%ADD45R,0.0098X0.0098*%
%ADD44R,0.0512X0.0512*%
%ADD43R,0.0384X0.0384*%
%ADD42R,0.0236X0.0236*%
G54D42*X24630Y192406D02*X28370D01*
X24630Y188469D02*X28370D01*
X24630Y184531D02*X28370D01*
X24630Y180594D02*X28370D01*
G54D43*X9620Y175919D02*X12868D01*
X9620Y197081D02*X12868D01*
G54D44*X59107Y182957D02*X59893D01*
X59107Y190043D02*X59893D01*
G54D45*X41783Y189453D02*X42965D01*
X41783Y187484D02*X42965D01*
X41783Y185516D02*X42965D01*
X41783Y183547D02*X42965D01*
X51035D02*X52217D01*
X51035Y185516D02*X52217D01*
X51035Y187484D02*X52217D01*
X51035Y189453D02*X52217D01*
G54D46*X47000Y187878D02*Y185122D01*
G54D47*X73059Y190634D02*Y190043D01*
X70500Y190634D02*Y190043D01*
X67941Y190634D02*Y190043D01*
Y182957D02*Y182366D01*
X70500Y182957D02*Y182366D01*
X73059Y182957D02*Y182366D01*
G54D42*X24630Y157406D02*X28370D01*
X24630Y153469D02*X28370D01*
X24630Y149531D02*X28370D01*
X24630Y145594D02*X28370D01*
G54D43*X9620Y140919D02*X12868D01*
X9620Y162081D02*X12868D01*
G54D44*X59107Y147957D02*X59893D01*
X59107Y155043D02*X59893D01*
G54D45*X41783Y154453D02*X42965D01*
X41783Y152484D02*X42965D01*
X41783Y150516D02*X42965D01*
X41783Y148547D02*X42965D01*
X51035D02*X52217D01*
X51035Y150516D02*X52217D01*
X51035Y152484D02*X52217D01*
X51035Y154453D02*X52217D01*
G54D46*X47000Y152878D02*Y150122D01*
G54D47*X73059Y155634D02*Y155043D01*
X70500Y155634D02*Y155043D01*
X67941Y155634D02*Y155043D01*
Y147957D02*Y147366D01*
X70500Y147957D02*Y147366D01*
X73059Y147957D02*Y147366D01*
G54D42*X24630Y122406D02*X28370D01*
X24630Y118469D02*X28370D01*
X24630Y114531D02*X28370D01*
X24630Y110594D02*X28370D01*
G54D43*X9620Y105919D02*X12868D01*
X9620Y127081D02*X12868D01*
G54D44*X59107Y112957D02*X59893D01*
X59107Y120043D02*X59893D01*
G54D45*X41783Y119453D02*X42965D01*
X41783Y117484D02*X42965D01*
X41783Y115516D02*X42965D01*
X41783Y113547D02*X42965D01*
X51035D02*X52217D01*
X51035Y115516D02*X52217D01*
X51035Y117484D02*X52217D01*
X51035Y119453D02*X52217D01*
G54D46*X47000Y117878D02*Y115122D01*
G54D47*X73059Y120634D02*Y120043D01*
X70500Y120634D02*Y120043D01*
X67941Y120634D02*Y120043D01*
Y112957D02*Y112366D01*
X70500Y112957D02*Y112366D01*
X73059Y112957D02*Y112366D01*
M02*
