G04 start of page 2 for group 0 idx 0 *
G04 Title: (unknown), top *
G04 Creator: pcb 20140316 *
G04 CreationDate: Sat 14 Dec 2019 03:41:57 AM GMT UTC *
G04 For: railfan *
G04 Format: Gerber/RS-274X *
G04 PCB-Dimensions (mil): 900.00 2000.00 *
G04 PCB-Coordinate-Origin: lower left *
%MOIN*%
%FSLAX25Y25*%
%LNTOP*%
%ADD23C,0.0120*%
%ADD22C,0.0310*%
%ADD21C,0.0280*%
%ADD20R,0.0354X0.0354*%
%ADD19R,0.0098X0.0098*%
%ADD18R,0.0394X0.0394*%
%ADD17R,0.0118X0.0118*%
%ADD16R,0.0512X0.0512*%
%ADD15R,0.0384X0.0384*%
%ADD14R,0.0236X0.0236*%
%ADD13C,0.0100*%
%ADD12C,0.0200*%
%ADD11C,0.0001*%
G54D11*G36*
X7500Y174000D02*Y199000D01*
X20000D01*
Y196059D01*
X19995Y196000D01*
X20000Y195941D01*
Y185559D01*
X19995Y185500D01*
X20000Y185441D01*
Y179559D01*
X19995Y179500D01*
X20000Y179441D01*
Y177059D01*
X19995Y177000D01*
X20000Y176941D01*
Y174000D01*
X7500D01*
G37*
G36*
Y139000D02*Y164000D01*
X20000D01*
Y161059D01*
X19995Y161000D01*
X20000Y160941D01*
Y150559D01*
X19995Y150500D01*
X20000Y150441D01*
Y144559D01*
X19995Y144500D01*
X20000Y144441D01*
Y142059D01*
X19995Y142000D01*
X20000Y141941D01*
Y139000D01*
X7500D01*
G37*
G36*
Y104000D02*Y129000D01*
X20000D01*
Y126059D01*
X19995Y126000D01*
X20000Y125941D01*
Y115559D01*
X19995Y115500D01*
X20000Y115441D01*
Y109559D01*
X19995Y109500D01*
X20000Y109441D01*
Y107059D01*
X19995Y107000D01*
X20000Y106941D01*
Y104000D01*
X7500D01*
G37*
G36*
X62500Y186000D02*Y183059D01*
X62495Y183000D01*
X62500Y182941D01*
Y177500D01*
X55000D01*
Y186000D01*
X62500D01*
G37*
G36*
X44500Y177500D02*Y182000D01*
X57500D01*
Y177500D01*
X44500D01*
G37*
G36*
X38000Y160500D02*Y152000D01*
X35506D01*
Y152000D01*
X35481Y152314D01*
X35481Y152314D01*
X35408Y152620D01*
X35288Y152911D01*
X35123Y153179D01*
X34919Y153419D01*
X34859Y153470D01*
X33501Y154827D01*
X33450Y154887D01*
X33211Y155091D01*
X33211Y155092D01*
X32942Y155256D01*
X32651Y155376D01*
X32345Y155450D01*
X32032Y155475D01*
X31953Y155469D01*
X31000D01*
Y160500D01*
X38000D01*
G37*
G36*
X57500D02*Y156000D01*
X44500D01*
Y160500D01*
X57500D01*
G37*
G36*
X31000Y151000D02*X31500D01*
Y148500D01*
X31519Y148186D01*
X31592Y147880D01*
X31712Y147589D01*
X31877Y147321D01*
X32081Y147081D01*
X32321Y146877D01*
X32589Y146712D01*
X32880Y146592D01*
X33186Y146519D01*
X33500Y146494D01*
X33814Y146519D01*
X34120Y146592D01*
X34411Y146712D01*
X34679Y146877D01*
X34919Y147081D01*
X35123Y147321D01*
X35288Y147589D01*
X35408Y147880D01*
X35481Y148186D01*
X35500Y148500D01*
Y151000D01*
X38000D01*
Y142500D01*
X31000D01*
Y151000D01*
G37*
G36*
X38000D01*
Y144500D01*
X31000D01*
Y151000D01*
G37*
G36*
X38000Y125500D02*Y117000D01*
X35506D01*
Y117000D01*
X35481Y117314D01*
X35481Y117314D01*
X35408Y117620D01*
X35288Y117911D01*
X35123Y118179D01*
X34919Y118419D01*
X34859Y118470D01*
X33501Y119827D01*
X33450Y119887D01*
X33211Y120091D01*
X33211Y120092D01*
X32942Y120256D01*
X32651Y120376D01*
X32345Y120450D01*
X32032Y120475D01*
X31953Y120469D01*
X31000D01*
Y125500D01*
X38000D01*
G37*
G36*
X31000Y116000D02*X31500D01*
Y113500D01*
X31519Y113186D01*
X31592Y112880D01*
X31712Y112589D01*
X31877Y112321D01*
X32081Y112081D01*
X32321Y111877D01*
X32589Y111712D01*
X32880Y111592D01*
X33186Y111519D01*
X33500Y111494D01*
X33814Y111519D01*
X34120Y111592D01*
X34411Y111712D01*
X34679Y111877D01*
X34919Y112081D01*
X35123Y112321D01*
X35288Y112589D01*
X35408Y112880D01*
X35481Y113186D01*
X35500Y113500D01*
Y116000D01*
X38000D01*
Y107500D01*
X31000D01*
Y116000D01*
G37*
G36*
X38000D01*
Y109500D01*
X31000D01*
Y116000D01*
G37*
G36*
X62500Y151000D02*Y148059D01*
X62495Y148000D01*
X62500Y147941D01*
Y142500D01*
X55000D01*
Y151000D01*
X62500D01*
G37*
G36*
Y116000D02*Y113059D01*
X62495Y113000D01*
X62500Y112941D01*
Y107500D01*
X55000D01*
Y116000D01*
X62500D01*
G37*
G36*
X63000Y117000D02*X55000D01*
Y125500D01*
X63000D01*
Y117000D01*
G37*
G36*
X75621Y122000D02*X78879D01*
X79000Y121879D01*
Y111000D01*
X75500D01*
Y121879D01*
X75621Y122000D01*
G37*
G36*
X77000Y114500D02*X64059D01*
X64000Y114505D01*
X63941Y114500D01*
X63500D01*
Y118500D01*
X77000D01*
Y114500D01*
G37*
G36*
X65500Y117000D02*X62000D01*
Y125500D01*
X65500D01*
Y117000D01*
G37*
G36*
X44500Y142500D02*Y147000D01*
X57500D01*
Y142500D01*
X44500D01*
G37*
G36*
X57500Y125500D02*Y121000D01*
X44500D01*
Y125500D01*
X57500D01*
G37*
G36*
X44500Y107500D02*Y112000D01*
X57500D01*
Y107500D01*
X44500D01*
G37*
G36*
X63000Y152000D02*X55000D01*
Y160500D01*
X63000D01*
Y152000D01*
G37*
G36*
X75621Y157000D02*X78879D01*
X79000Y156879D01*
Y146000D01*
X75500D01*
Y156879D01*
X75621Y157000D01*
G37*
G36*
X77000Y149500D02*X64059D01*
X64000Y149505D01*
X63941Y149500D01*
X63500D01*
Y153500D01*
X77000D01*
Y149500D01*
G37*
G36*
X65500Y152000D02*X62000D01*
Y160500D01*
X65500D01*
Y152000D01*
G37*
G36*
X38000Y195500D02*Y187000D01*
X35506D01*
Y187000D01*
X35481Y187314D01*
X35481Y187314D01*
X35408Y187620D01*
X35288Y187911D01*
X35123Y188179D01*
X34919Y188419D01*
X34859Y188470D01*
X33501Y189827D01*
X33450Y189887D01*
X33211Y190091D01*
X33211Y190092D01*
X32942Y190256D01*
X32651Y190376D01*
X32345Y190450D01*
X32032Y190475D01*
X31953Y190469D01*
X31000D01*
Y195500D01*
X38000D01*
G37*
G36*
X31000Y186000D02*X31500D01*
Y183500D01*
X31519Y183186D01*
X31592Y182880D01*
X31712Y182589D01*
X31877Y182321D01*
X32081Y182081D01*
X32321Y181877D01*
X32589Y181712D01*
X32880Y181592D01*
X33186Y181519D01*
X33500Y181494D01*
X33814Y181519D01*
X34120Y181592D01*
X34411Y181712D01*
X34679Y181877D01*
X34919Y182081D01*
X35123Y182321D01*
X35288Y182589D01*
X35408Y182880D01*
X35481Y183186D01*
X35500Y183500D01*
Y186000D01*
X38000D01*
Y177500D01*
X31000D01*
Y186000D01*
G37*
G36*
X57500Y195500D02*Y191000D01*
X44500D01*
Y195500D01*
X57500D01*
G37*
G36*
X31000Y186000D02*X38000D01*
Y179500D01*
X31000D01*
Y186000D01*
G37*
G36*
X63000Y187000D02*X55000D01*
Y195500D01*
X63000D01*
Y187000D01*
G37*
G36*
X75621Y192000D02*X78879D01*
X79000Y191879D01*
Y181000D01*
X75500D01*
Y191879D01*
X75621Y192000D01*
G37*
G36*
X77000Y184500D02*X64059D01*
X64000Y184505D01*
X63941Y184500D01*
X63500D01*
Y188500D01*
X77000D01*
Y184500D01*
G37*
G36*
X65500Y187000D02*X62000D01*
Y195500D01*
X65500D01*
Y187000D01*
G37*
G54D12*X26500Y157406D02*X33500D01*
X26500Y153469D02*X32031D01*
X33500Y152000D01*
G54D13*X42374Y154453D02*Y162000D01*
G54D12*X33500Y152000D02*Y148500D01*
G54D13*X42374Y148547D02*Y141000D01*
X26500Y149531D02*X22469D01*
X26500Y145594D02*X22594D01*
X21500Y144500D01*
Y142000D01*
X22500Y141000D01*
X22469Y149531D02*X21500Y150500D01*
Y161000D01*
X22500Y162000D01*
X42374Y152484D02*X51626D01*
Y154453D02*Y152484D01*
Y154500D02*X56000D01*
X22500Y162000D02*X70500D01*
X79500Y158500D02*X75000D01*
X70500Y162000D02*X72500Y160000D01*
X73059Y156559D02*Y155339D01*
X75000Y158500D02*X73059Y156559D01*
X70500Y155500D02*X64000D01*
Y148000D02*Y151000D01*
X51626Y148547D02*X56000D01*
X22500Y141000D02*X79500D01*
X68000Y147500D02*X64500D01*
X64000Y148000D01*
X70500Y147661D02*Y146000D01*
X69500Y145000D01*
X79500Y141000D02*X80500Y142000D01*
Y157500D01*
X79500Y158500D01*
X69500Y145000D02*X60000D01*
X73059Y147661D02*Y144000D01*
G54D12*X26500Y122406D02*X33500D01*
X26500Y118469D02*X32031D01*
G54D13*X22500Y127000D02*X70500D01*
X72500Y125000D01*
X70500Y120500D02*X64000D01*
G54D12*X32031Y118469D02*X33500Y117000D01*
G54D13*X42374Y117484D02*X51626D01*
Y119453D02*Y117484D01*
Y119500D02*X56000D01*
X51626Y113547D02*X56000D01*
G54D12*X33500Y117000D02*Y113500D01*
G54D13*X42374Y113547D02*Y106000D01*
Y119453D02*Y127000D01*
X21500Y115500D02*Y126000D01*
X22500Y127000D01*
X26500Y114531D02*X22469D01*
X26500Y110594D02*X22594D01*
X21500Y109500D01*
Y107000D01*
X22500Y106000D01*
X22469Y114531D02*X21500Y115500D01*
X22500Y106000D02*X79500D01*
X70500Y112661D02*Y111000D01*
X79500Y106000D02*X80500Y107000D01*
X70500Y111000D02*X69500Y110000D01*
X73059Y112661D02*Y109000D01*
X69500Y110000D02*X60000D01*
X68000Y112500D02*X64500D01*
X64000Y113000D01*
Y116000D01*
X80500Y107000D02*Y122500D01*
X79500Y123500D01*
X75000D01*
X73059Y121559D02*Y120339D01*
X75000Y123500D02*X73059Y121559D01*
X42374Y187484D02*X51626D01*
Y189453D02*Y187484D01*
X42374Y183547D02*Y176000D01*
Y189453D02*Y197000D01*
X51626Y189500D02*X56000D01*
X79500Y193500D02*X75000D01*
X70500Y197000D02*X72500Y195000D01*
X70500Y190500D02*X64000D01*
X73059Y191559D02*Y190339D01*
X75000Y193500D02*X73059Y191559D01*
X51626Y183547D02*X56000D01*
X68000Y182500D02*X64500D01*
X64000Y183000D01*
Y186000D01*
X22500Y176000D02*X79500D01*
X80500Y177000D01*
X22500Y197000D02*X70500D01*
X26500Y184531D02*X22469D01*
X21500Y185500D01*
Y196000D01*
G54D12*X26500Y192406D02*X33500D01*
X26500Y188469D02*X32031D01*
X33500Y187000D01*
Y183500D01*
G54D13*X21500Y196000D02*X22500Y197000D01*
X26500Y180594D02*X22594D01*
X21500Y179500D01*
Y177000D01*
X22500Y176000D01*
X70500Y182661D02*Y181000D01*
X69500Y180000D01*
X60000D01*
X80500Y177000D02*Y192500D01*
X79500Y193500D01*
X73059Y182661D02*Y179000D01*
G54D14*X24630Y192406D02*X28370D01*
X24630Y188469D02*X28370D01*
X24630Y184531D02*X28370D01*
X24630Y180594D02*X28370D01*
G54D15*X9620Y175919D02*X12868D01*
X9620Y197081D02*X12868D01*
G54D14*X24630Y157406D02*X28370D01*
X24630Y153469D02*X28370D01*
X24630Y149531D02*X28370D01*
X24630Y145594D02*X28370D01*
X24630Y122406D02*X28370D01*
X24630Y118469D02*X28370D01*
X24630Y114531D02*X28370D01*
X24630Y110594D02*X28370D01*
G54D15*X9620Y140919D02*X12868D01*
X9620Y162081D02*X12868D01*
X9620Y105919D02*X12868D01*
X9620Y127081D02*X12868D01*
G54D16*X59107Y182957D02*X59893D01*
G54D17*X67941D02*Y182366D01*
X70500Y182957D02*Y182366D01*
X73059Y182957D02*Y182366D01*
G54D18*X68531Y186500D02*X72469D01*
G54D16*X59107Y190043D02*X59893D01*
G54D17*X73059Y190634D02*Y190043D01*
X70500Y190634D02*Y190043D01*
X67941Y190634D02*Y190043D01*
G54D19*X41783Y189453D02*X42965D01*
X41783Y187484D02*X42965D01*
X41783Y185516D02*X42965D01*
X41783Y183547D02*X42965D01*
X51035D02*X52217D01*
X51035Y185516D02*X52217D01*
X51035Y187484D02*X52217D01*
X51035Y189453D02*X52217D01*
G54D20*X47000Y187878D02*Y185122D01*
G54D18*Y187878D02*Y185122D01*
G54D16*X59107Y147957D02*X59893D01*
X59107Y155043D02*X59893D01*
G54D17*X67941Y147957D02*Y147366D01*
X70500Y147957D02*Y147366D01*
X73059Y147957D02*Y147366D01*
G54D18*X68531Y151500D02*X72469D01*
G54D19*X41783Y154453D02*X42965D01*
G54D17*X73059Y155634D02*Y155043D01*
X70500Y155634D02*Y155043D01*
X67941Y155634D02*Y155043D01*
G54D19*X41783Y152484D02*X42965D01*
X41783Y150516D02*X42965D01*
X41783Y148547D02*X42965D01*
X51035D02*X52217D01*
X51035Y150516D02*X52217D01*
X51035Y152484D02*X52217D01*
X51035Y154453D02*X52217D01*
G54D20*X47000Y152878D02*Y150122D01*
G54D18*Y152878D02*Y150122D01*
G54D16*X59107Y112957D02*X59893D01*
X59107Y120043D02*X59893D01*
G54D17*X73059Y120634D02*Y120043D01*
X70500Y120634D02*Y120043D01*
X67941Y120634D02*Y120043D01*
Y112957D02*Y112366D01*
X70500Y112957D02*Y112366D01*
X73059Y112957D02*Y112366D01*
G54D18*X68531Y116500D02*X72469D01*
G54D19*X41783Y119453D02*X42965D01*
X41783Y117484D02*X42965D01*
X41783Y115516D02*X42965D01*
X41783Y113547D02*X42965D01*
X51035D02*X52217D01*
X51035Y115516D02*X52217D01*
X51035Y117484D02*X52217D01*
X51035Y119453D02*X52217D01*
G54D20*X47000Y117878D02*Y115122D01*
G54D18*Y117878D02*Y115122D01*
G54D21*X33000Y157500D03*
Y149000D03*
X36000D03*
Y157500D03*
X47000Y158000D03*
X50500D03*
X54000D03*
X47000Y123000D03*
X50500D03*
X54000D03*
X47000Y145000D03*
X50500D03*
X54000D03*
X33000Y192500D03*
Y184000D03*
X36000D03*
Y192500D03*
X47000Y193000D03*
X50500D03*
X54000D03*
X77000Y190000D03*
Y186500D03*
X47000Y180000D03*
X50500D03*
X54000D03*
X73059Y179000D03*
X72500Y195000D03*
X77000Y183000D03*
Y155000D03*
Y151500D03*
X73059Y144000D03*
X72500Y160000D03*
X77000Y148000D03*
Y120000D03*
Y116500D03*
X73059Y109000D03*
X72500Y125000D03*
X77000Y113000D03*
X33000Y122500D03*
Y114000D03*
X36000D03*
Y122500D03*
X47000Y110000D03*
X50500D03*
X54000D03*
G54D22*G54D23*G54D22*G54D23*G54D22*G54D23*G54D22*G54D23*G54D22*G54D23*G54D22*G54D23*G54D22*M02*
