G04 start of page 3 for group 1 idx 1 *
G04 Title: (unknown), bottom *
G04 Creator: pcb 20140316 *
G04 CreationDate: Sat 14 Dec 2019 03:41:57 AM GMT UTC *
G04 For: railfan *
G04 Format: Gerber/RS-274X *
G04 PCB-Dimensions (mil): 900.00 2000.00 *
G04 PCB-Coordinate-Origin: lower left *
%MOIN*%
%FSLAX25Y25*%
%LNBOTTOM*%
%ADD28C,0.0120*%
%ADD27C,0.0310*%
%ADD26C,0.0280*%
%ADD25C,0.0100*%
%ADD24C,0.0001*%
G54D24*G36*
X31000Y141000D02*Y151000D01*
X56500D01*
Y141000D01*
X31000D01*
G37*
G36*
Y162000D02*X71170D01*
X71085Y161948D01*
X70798Y161702D01*
X70552Y161415D01*
X70355Y161093D01*
X70210Y160744D01*
X70122Y160377D01*
X70093Y160000D01*
X70122Y159623D01*
X70210Y159256D01*
X70355Y158907D01*
X70552Y158585D01*
X70798Y158298D01*
X71085Y158052D01*
X71407Y157855D01*
X71756Y157710D01*
X72123Y157622D01*
X72500Y157593D01*
X72877Y157622D01*
X73244Y157710D01*
X73593Y157855D01*
X73915Y158052D01*
X74202Y158298D01*
X74375Y158500D01*
X78879D01*
X79000Y158379D01*
Y152000D01*
X31000D01*
Y162000D01*
G37*
G36*
X74375Y158500D02*X78879D01*
X79000Y158379D01*
Y145621D01*
X78879Y145500D01*
X74934D01*
X74761Y145702D01*
X74474Y145948D01*
X74152Y146145D01*
X73803Y146290D01*
X73436Y146378D01*
X73059Y146407D01*
X72682Y146378D01*
X72315Y146290D01*
X71966Y146145D01*
X71644Y145948D01*
X71357Y145702D01*
X71111Y145415D01*
X70914Y145093D01*
X70769Y144744D01*
X70681Y144377D01*
X70652Y144000D01*
X70681Y143623D01*
X70769Y143256D01*
X70914Y142907D01*
X71111Y142585D01*
X71357Y142298D01*
X71644Y142052D01*
X71966Y141855D01*
X72315Y141710D01*
X72682Y141622D01*
X73059Y141593D01*
X73436Y141622D01*
X73803Y141710D01*
X74152Y141855D01*
X74474Y142052D01*
X74761Y142298D01*
X74934Y142500D01*
X79441D01*
X79500Y142495D01*
Y141000D01*
X57500D01*
Y162000D01*
X71170D01*
X71085Y161948D01*
X70798Y161702D01*
X70552Y161415D01*
X70355Y161093D01*
X70210Y160744D01*
X70122Y160377D01*
X70093Y160000D01*
X70122Y159623D01*
X70210Y159256D01*
X70355Y158907D01*
X70552Y158585D01*
X70798Y158298D01*
X71085Y158052D01*
X71407Y157855D01*
X71756Y157710D01*
X72123Y157622D01*
X72500Y157593D01*
X72877Y157622D01*
X73244Y157710D01*
X73593Y157855D01*
X73915Y158052D01*
X74202Y158298D01*
X74375Y158500D01*
G37*
G36*
X31000Y106000D02*Y116000D01*
X56500D01*
Y106000D01*
X31000D01*
G37*
G36*
Y127000D02*X71170D01*
X71085Y126948D01*
X70798Y126702D01*
X70552Y126415D01*
X70355Y126093D01*
X70210Y125744D01*
X70122Y125377D01*
X70093Y125000D01*
X70122Y124623D01*
X70210Y124256D01*
X70355Y123907D01*
X70552Y123585D01*
X70798Y123298D01*
X71085Y123052D01*
X71407Y122855D01*
X71756Y122710D01*
X72123Y122622D01*
X72500Y122593D01*
X72877Y122622D01*
X73244Y122710D01*
X73593Y122855D01*
X73915Y123052D01*
X74202Y123298D01*
X74375Y123500D01*
X78879D01*
X79000Y123379D01*
Y117000D01*
X31000D01*
Y127000D01*
G37*
G36*
Y176000D02*Y186000D01*
X56500D01*
Y176000D01*
X31000D01*
G37*
G36*
Y197000D02*X71170D01*
X71085Y196948D01*
X70798Y196702D01*
X70552Y196415D01*
X70355Y196093D01*
X70210Y195744D01*
X70122Y195377D01*
X70093Y195000D01*
X70122Y194623D01*
X70210Y194256D01*
X70355Y193907D01*
X70552Y193585D01*
X70798Y193298D01*
X71085Y193052D01*
X71407Y192855D01*
X71756Y192710D01*
X72123Y192622D01*
X72500Y192593D01*
X72877Y192622D01*
X73244Y192710D01*
X73593Y192855D01*
X73915Y193052D01*
X74202Y193298D01*
X74375Y193500D01*
X78879D01*
X79000Y193379D01*
Y187000D01*
X31000D01*
Y197000D01*
G37*
G36*
X74375Y193500D02*X78879D01*
X79000Y193379D01*
Y180621D01*
X78879Y180500D01*
X74934D01*
X74761Y180702D01*
X74474Y180948D01*
X74152Y181145D01*
X73803Y181290D01*
X73436Y181378D01*
X73059Y181407D01*
X72682Y181378D01*
X72315Y181290D01*
X71966Y181145D01*
X71644Y180948D01*
X71357Y180702D01*
X71111Y180415D01*
X70914Y180093D01*
X70769Y179744D01*
X70681Y179377D01*
X70652Y179000D01*
X70681Y178623D01*
X70769Y178256D01*
X70914Y177907D01*
X71111Y177585D01*
X71357Y177298D01*
X71644Y177052D01*
X71966Y176855D01*
X72315Y176710D01*
X72682Y176622D01*
X73059Y176593D01*
X73436Y176622D01*
X73803Y176710D01*
X74152Y176855D01*
X74474Y177052D01*
X74761Y177298D01*
X74934Y177500D01*
X79441D01*
X79500Y177495D01*
Y176000D01*
X57500D01*
Y197000D01*
X71170D01*
X71085Y196948D01*
X70798Y196702D01*
X70552Y196415D01*
X70355Y196093D01*
X70210Y195744D01*
X70122Y195377D01*
X70093Y195000D01*
X70122Y194623D01*
X70210Y194256D01*
X70355Y193907D01*
X70552Y193585D01*
X70798Y193298D01*
X71085Y193052D01*
X71407Y192855D01*
X71756Y192710D01*
X72123Y192622D01*
X72500Y192593D01*
X72877Y192622D01*
X73244Y192710D01*
X73593Y192855D01*
X73915Y193052D01*
X74202Y193298D01*
X74375Y193500D01*
G37*
G36*
Y123500D02*X78879D01*
X79000Y123379D01*
Y110621D01*
X78879Y110500D01*
X74934D01*
X74761Y110702D01*
X74474Y110948D01*
X74152Y111145D01*
X73803Y111290D01*
X73436Y111378D01*
X73059Y111407D01*
X72682Y111378D01*
X72315Y111290D01*
X71966Y111145D01*
X71644Y110948D01*
X71357Y110702D01*
X71111Y110415D01*
X70914Y110093D01*
X70769Y109744D01*
X70681Y109377D01*
X70652Y109000D01*
X70681Y108623D01*
X70769Y108256D01*
X70914Y107907D01*
X71111Y107585D01*
X71357Y107298D01*
X71644Y107052D01*
X71966Y106855D01*
X72315Y106710D01*
X72682Y106622D01*
X73059Y106593D01*
X73436Y106622D01*
X73803Y106710D01*
X74152Y106855D01*
X74474Y107052D01*
X74761Y107298D01*
X74934Y107500D01*
X79441D01*
X79500Y107495D01*
Y106000D01*
X57500D01*
Y127000D01*
X71170D01*
X71085Y126948D01*
X70798Y126702D01*
X70552Y126415D01*
X70355Y126093D01*
X70210Y125744D01*
X70122Y125377D01*
X70093Y125000D01*
X70122Y124623D01*
X70210Y124256D01*
X70355Y123907D01*
X70552Y123585D01*
X70798Y123298D01*
X71085Y123052D01*
X71407Y122855D01*
X71756Y122710D01*
X72123Y122622D01*
X72500Y122593D01*
X72877Y122622D01*
X73244Y122710D01*
X73593Y122855D01*
X73915Y123052D01*
X74202Y123298D01*
X74375Y123500D01*
G37*
G54D25*X73059Y144000D02*X79500D01*
X80500Y145000D01*
X73059Y179000D02*X79500D01*
X80500Y180000D01*
Y194000D01*
X79500Y195000D01*
X72500D01*
X80500Y145000D02*Y159000D01*
Y110000D02*Y124000D01*
X79500Y125000D01*
X80500Y159000D02*X79500Y160000D01*
X72500D01*
X73059Y109000D02*X79500D01*
X80500Y110000D01*
X79500Y125000D02*X72500D01*
G54D26*X33000Y157500D03*
Y149000D03*
X36000D03*
Y157500D03*
X47000Y158000D03*
X50500D03*
X54000D03*
X47000Y123000D03*
X50500D03*
X54000D03*
X47000Y145000D03*
X50500D03*
X54000D03*
X33000Y192500D03*
Y184000D03*
X36000D03*
Y192500D03*
X47000Y193000D03*
X50500D03*
X54000D03*
X77000Y190000D03*
Y186500D03*
X47000Y180000D03*
X50500D03*
X54000D03*
X73059Y179000D03*
X72500Y195000D03*
X77000Y183000D03*
Y155000D03*
Y151500D03*
X73059Y144000D03*
X72500Y160000D03*
X77000Y148000D03*
Y120000D03*
Y116500D03*
X73059Y109000D03*
X72500Y125000D03*
X77000Y113000D03*
X33000Y122500D03*
Y114000D03*
X36000D03*
Y122500D03*
X47000Y110000D03*
X50500D03*
X54000D03*
G54D27*G54D28*G54D27*G54D28*G54D27*G54D28*G54D27*G54D28*G54D27*G54D28*G54D27*G54D28*G54D27*M02*
