G04 start of page 10 for group -4078 idx -4078 *
G04 Title: (unknown), bottomsilk *
G04 Creator: pcb 20140316 *
G04 CreationDate: Wed 28 Nov 2018 04:36:04 PM GMT UTC *
G04 For: railfan *
G04 Format: Gerber/RS-274X *
G04 PCB-Dimensions (mil): 900.00 970.00 *
G04 PCB-Coordinate-Origin: lower left *
%MOIN*%
%FSLAX25Y25*%
%LNBOTTOMSILK*%
%ADD41C,0.0080*%
G54D41*X32700Y93500D02*X34000D01*
X32000Y92800D02*X32700Y93500D01*
X32000Y90200D02*Y92800D01*
Y90200D02*X32700Y89500D01*
X34000D01*
X35900Y93500D02*X37200D01*
X35200Y92800D02*X35900Y93500D01*
X35200Y90200D02*Y92800D01*
Y90200D02*X35900Y89500D01*
X37200D01*
X40200Y93500D02*X42200D01*
X42700Y93000D01*
Y91800D02*Y93000D01*
X42200Y91300D02*X42700Y91800D01*
X40700Y91300D02*X42200D01*
X40700Y89500D02*Y93500D01*
X40200Y89500D02*X42200D01*
X42700Y90000D01*
Y90800D01*
X42200Y91300D02*X42700Y90800D01*
X43900Y89500D02*X44900Y91500D01*
X45900Y89500D01*
X44900Y91500D02*Y93500D01*
X47100Y91500D02*X49100D01*
X52300Y89500D02*X52800Y90000D01*
X50800Y89500D02*X52300D01*
X50300Y90000D02*X50800Y89500D01*
X50300Y90000D02*Y91000D01*
X50800Y91500D01*
X52300D01*
X52800Y92000D01*
Y93000D01*
X52300Y93500D02*X52800Y93000D01*
X50800Y93500D02*X52300D01*
X50300Y93000D02*X50800Y93500D01*
X54000Y90500D02*Y93500D01*
Y90500D02*X54700Y89500D01*
X55800D01*
X56500Y90500D01*
Y93500D01*
X54000Y91500D02*X56500D01*
X59500Y93000D02*X60000Y93500D01*
X59500Y90000D02*X60000Y89500D01*
X59500Y90000D02*Y93000D01*
X61900Y93500D02*X63200D01*
X61200Y92800D02*X61900Y93500D01*
X61200Y90200D02*Y92800D01*
Y90200D02*X61900Y89500D01*
X63200D01*
X64400D02*X64900Y90000D01*
Y93000D01*
X64400Y93500D02*X64900Y93000D01*
X66100Y90000D02*X66600Y89500D01*
X68100D01*
X68600Y90000D01*
Y91000D01*
X66100Y93500D02*X68600Y91000D01*
X66100Y93500D02*X68600D01*
X69800Y93000D02*X70300Y93500D01*
X69800Y90000D02*Y93000D01*
Y90000D02*X70300Y89500D01*
X71300D01*
X71800Y90000D01*
Y93000D01*
X71300Y93500D02*X71800Y93000D01*
X70300Y93500D02*X71300D01*
X69800Y92500D02*X71800Y90500D01*
X73000Y90300D02*X73800Y89500D01*
Y93500D01*
X73000D02*X74500D01*
X75700Y93000D02*X76200Y93500D01*
X75700Y92200D02*Y93000D01*
Y92200D02*X76400Y91500D01*
X77000D01*
X77700Y92200D01*
Y93000D01*
X77200Y93500D02*X77700Y93000D01*
X76200Y93500D02*X77200D01*
X75700Y90800D02*X76400Y91500D01*
X75700Y90000D02*Y90800D01*
Y90000D02*X76200Y89500D01*
X77200D01*
X77700Y90000D01*
Y90800D01*
X77000Y91500D02*X77700Y90800D01*
X38500Y81500D02*Y81600D01*
Y83000D02*Y84500D01*
X41000Y82500D02*X41500Y83000D01*
X40000Y82500D02*X41000D01*
X39500Y83000D02*X40000Y82500D01*
X39500Y83000D02*Y84000D01*
X40000Y84500D01*
X41500Y82500D02*Y84000D01*
X42000Y84500D01*
X40000D02*X41000D01*
X41500Y84000D01*
X43700Y84500D02*X45200D01*
X45700Y84000D01*
X45200Y83500D02*X45700Y84000D01*
X43700Y83500D02*X45200D01*
X43200Y83000D02*X43700Y83500D01*
X43200Y83000D02*X43700Y82500D01*
X45200D01*
X45700Y83000D01*
X43200Y84000D02*X43700Y84500D01*
X47400Y82500D02*X48900D01*
X46900Y83000D02*X47400Y82500D01*
X46900Y83000D02*Y84000D01*
X47400Y84500D01*
X48900D01*
X51600Y82500D02*X52100Y83000D01*
X50600Y82500D02*X51600D01*
X50100Y83000D02*X50600Y82500D01*
X50100Y83000D02*Y84000D01*
X50600Y84500D01*
X52100Y82500D02*Y84000D01*
X52600Y84500D01*
X50600D02*X51600D01*
X52100Y84000D01*
X53800Y80500D02*Y84000D01*
X54300Y84500D01*
X55800D02*X57300D01*
X55300Y84000D02*X55800Y84500D01*
X55300Y83000D02*Y84000D01*
Y83000D02*X55800Y82500D01*
X56800D01*
X57300Y83000D01*
X55300Y83500D02*X57300D01*
Y83000D02*Y83500D01*
X60500Y80500D02*Y84500D01*
X60000D02*X60500Y84000D01*
X59000Y84500D02*X60000D01*
X58500Y84000D02*X59000Y84500D01*
X58500Y83000D02*Y84000D01*
Y83000D02*X59000Y82500D01*
X60000D01*
X60500Y83000D01*
X61700Y84500D02*X62200D01*
X63900Y82500D02*X65400D01*
X63400Y83000D02*X63900Y82500D01*
X63400Y83000D02*Y84000D01*
X63900Y84500D01*
X65400D01*
X66600Y83000D02*Y84000D01*
Y83000D02*X67100Y82500D01*
X68100D01*
X68600Y83000D01*
Y84000D01*
X68100Y84500D02*X68600Y84000D01*
X67100Y84500D02*X68100D01*
X66600Y84000D02*X67100Y84500D01*
X70300Y83000D02*Y84500D01*
Y83000D02*X70800Y82500D01*
X71300D01*
X71800Y83000D01*
Y84500D01*
Y83000D02*X72300Y82500D01*
X72800D01*
X73300Y83000D01*
Y84500D01*
X69800Y82500D02*X70300Y83000D01*
X32700Y58500D02*X34000D01*
X32000Y57800D02*X32700Y58500D01*
X32000Y55200D02*Y57800D01*
Y55200D02*X32700Y54500D01*
X34000D01*
X35900Y58500D02*X37200D01*
X35200Y57800D02*X35900Y58500D01*
X35200Y55200D02*Y57800D01*
Y55200D02*X35900Y54500D01*
X37200D01*
X40200Y58500D02*X42200D01*
X42700Y58000D01*
Y56800D02*Y58000D01*
X42200Y56300D02*X42700Y56800D01*
X40700Y56300D02*X42200D01*
X40700Y54500D02*Y58500D01*
X40200Y54500D02*X42200D01*
X42700Y55000D01*
Y55800D01*
X42200Y56300D02*X42700Y55800D01*
X43900Y54500D02*X44900Y56500D01*
X45900Y54500D01*
X44900Y56500D02*Y58500D01*
X47100Y56500D02*X49100D01*
X52300Y54500D02*X52800Y55000D01*
X50800Y54500D02*X52300D01*
X50300Y55000D02*X50800Y54500D01*
X50300Y55000D02*Y56000D01*
X50800Y56500D01*
X52300D01*
X52800Y57000D01*
Y58000D01*
X52300Y58500D02*X52800Y58000D01*
X50800Y58500D02*X52300D01*
X50300Y58000D02*X50800Y58500D01*
X54000Y55500D02*Y58500D01*
Y55500D02*X54700Y54500D01*
X55800D01*
X56500Y55500D01*
Y58500D01*
X54000Y56500D02*X56500D01*
X59500Y58000D02*X60000Y58500D01*
X59500Y55000D02*X60000Y54500D01*
X59500Y55000D02*Y58000D01*
X61900Y58500D02*X63200D01*
X61200Y57800D02*X61900Y58500D01*
X61200Y55200D02*Y57800D01*
Y55200D02*X61900Y54500D01*
X63200D01*
X64400D02*X64900Y55000D01*
Y58000D01*
X64400Y58500D02*X64900Y58000D01*
X66100Y55000D02*X66600Y54500D01*
X68100D01*
X68600Y55000D01*
Y56000D01*
X66100Y58500D02*X68600Y56000D01*
X66100Y58500D02*X68600D01*
X69800Y58000D02*X70300Y58500D01*
X69800Y55000D02*Y58000D01*
Y55000D02*X70300Y54500D01*
X71300D01*
X71800Y55000D01*
Y58000D01*
X71300Y58500D02*X71800Y58000D01*
X70300Y58500D02*X71300D01*
X69800Y57500D02*X71800Y55500D01*
X73000Y55300D02*X73800Y54500D01*
Y58500D01*
X73000D02*X74500D01*
X75700Y58000D02*X76200Y58500D01*
X75700Y57200D02*Y58000D01*
Y57200D02*X76400Y56500D01*
X77000D01*
X77700Y57200D01*
Y58000D01*
X77200Y58500D02*X77700Y58000D01*
X76200Y58500D02*X77200D01*
X75700Y55800D02*X76400Y56500D01*
X75700Y55000D02*Y55800D01*
Y55000D02*X76200Y54500D01*
X77200D01*
X77700Y55000D01*
Y55800D01*
X77000Y56500D02*X77700Y55800D01*
X38500Y46500D02*Y46600D01*
Y48000D02*Y49500D01*
X41000Y47500D02*X41500Y48000D01*
X40000Y47500D02*X41000D01*
X39500Y48000D02*X40000Y47500D01*
X39500Y48000D02*Y49000D01*
X40000Y49500D01*
X41500Y47500D02*Y49000D01*
X42000Y49500D01*
X40000D02*X41000D01*
X41500Y49000D01*
X43700Y49500D02*X45200D01*
X45700Y49000D01*
X45200Y48500D02*X45700Y49000D01*
X43700Y48500D02*X45200D01*
X43200Y48000D02*X43700Y48500D01*
X43200Y48000D02*X43700Y47500D01*
X45200D01*
X45700Y48000D01*
X43200Y49000D02*X43700Y49500D01*
X47400Y47500D02*X48900D01*
X46900Y48000D02*X47400Y47500D01*
X46900Y48000D02*Y49000D01*
X47400Y49500D01*
X48900D01*
X51600Y47500D02*X52100Y48000D01*
X50600Y47500D02*X51600D01*
X50100Y48000D02*X50600Y47500D01*
X50100Y48000D02*Y49000D01*
X50600Y49500D01*
X52100Y47500D02*Y49000D01*
X52600Y49500D01*
X50600D02*X51600D01*
X52100Y49000D01*
X53800Y45500D02*Y49000D01*
X54300Y49500D01*
X55800D02*X57300D01*
X55300Y49000D02*X55800Y49500D01*
X55300Y48000D02*Y49000D01*
Y48000D02*X55800Y47500D01*
X56800D01*
X57300Y48000D01*
X55300Y48500D02*X57300D01*
Y48000D02*Y48500D01*
X60500Y45500D02*Y49500D01*
X60000D02*X60500Y49000D01*
X59000Y49500D02*X60000D01*
X58500Y49000D02*X59000Y49500D01*
X58500Y48000D02*Y49000D01*
Y48000D02*X59000Y47500D01*
X60000D01*
X60500Y48000D01*
X61700Y49500D02*X62200D01*
X63900Y47500D02*X65400D01*
X63400Y48000D02*X63900Y47500D01*
X63400Y48000D02*Y49000D01*
X63900Y49500D01*
X65400D01*
X66600Y48000D02*Y49000D01*
Y48000D02*X67100Y47500D01*
X68100D01*
X68600Y48000D01*
Y49000D01*
X68100Y49500D02*X68600Y49000D01*
X67100Y49500D02*X68100D01*
X66600Y49000D02*X67100Y49500D01*
X70300Y48000D02*Y49500D01*
Y48000D02*X70800Y47500D01*
X71300D01*
X71800Y48000D01*
Y49500D01*
Y48000D02*X72300Y47500D01*
X72800D01*
X73300Y48000D01*
Y49500D01*
X69800Y47500D02*X70300Y48000D01*
X71500Y75000D02*Y78000D01*
Y75000D02*X72200Y74000D01*
X73300D01*
X74000Y75000D01*
Y78000D01*
X71500Y76000D02*X74000D01*
X4000Y82000D02*X5000Y84000D01*
X6000Y82000D02*X5000Y84000D01*
X7200Y80500D02*X7700Y80000D01*
X9200D01*
X9700Y80500D01*
Y81500D01*
X7200Y84000D02*X9700Y81500D01*
X7200Y84000D02*X9700D01*
X10900D02*X11400D01*
X12600Y83500D02*X13100Y84000D01*
X12600Y80500D02*Y83500D01*
Y80500D02*X13100Y80000D01*
X14100D01*
X14600Y80500D01*
Y83500D01*
X14100Y84000D02*X14600Y83500D01*
X13100Y84000D02*X14100D01*
X12600Y83000D02*X14600Y81000D01*
X3500Y73500D02*X4500D01*
X4000D02*Y77500D01*
X3500D02*X4500D01*
X5700Y74000D02*X6200Y73500D01*
X7700D01*
X8200Y74000D01*
Y75000D01*
X5700Y77500D02*X8200Y75000D01*
X5700Y77500D02*X8200D01*
X10100D02*X11400D01*
X9400Y76800D02*X10100Y77500D01*
X9400Y74200D02*Y76800D01*
Y74200D02*X10100Y73500D01*
X11400D01*
X12600Y75500D02*X14600D01*
X15800Y73500D02*Y75500D01*
X16300Y77500D01*
X17300Y75500D01*
X18300Y77500D01*
X18800Y75500D01*
Y73500D02*Y75500D01*
X20000Y77500D02*X22500Y73500D01*
X20000D02*X22500Y77500D01*
X25700Y73500D02*X26200Y74000D01*
X24200Y73500D02*X25700D01*
X23700Y74000D02*X24200Y73500D01*
X23700Y74000D02*Y75000D01*
X24200Y75500D01*
X25700D01*
X26200Y76000D01*
Y77000D01*
X25700Y77500D02*X26200Y77000D01*
X24200Y77500D02*X25700D01*
X23700Y77000D02*X24200Y77500D01*
X27400Y73500D02*Y77500D01*
Y73500D02*X29900Y77500D01*
Y73500D02*Y77500D01*
X33100Y73500D02*X33600Y74000D01*
X31600Y73500D02*X33100D01*
X31100Y74000D02*X31600Y73500D01*
X31100Y74000D02*Y75000D01*
X31600Y75500D01*
X33100D01*
X33600Y76000D01*
Y77000D01*
X33100Y77500D02*X33600Y77000D01*
X31600Y77500D02*X33100D01*
X31100Y77000D02*X31600Y77500D01*
X4000Y47000D02*X5000Y49000D01*
X6000Y47000D02*X5000Y49000D01*
X7200Y45500D02*X7700Y45000D01*
X9200D01*
X9700Y45500D01*
Y46500D01*
X7200Y49000D02*X9700Y46500D01*
X7200Y49000D02*X9700D01*
X10900D02*X11400D01*
X12600Y48500D02*X13100Y49000D01*
X12600Y45500D02*Y48500D01*
Y45500D02*X13100Y45000D01*
X14100D01*
X14600Y45500D01*
Y48500D01*
X14100Y49000D02*X14600Y48500D01*
X13100Y49000D02*X14100D01*
X12600Y48000D02*X14600Y46000D01*
X3500Y38500D02*X4500D01*
X4000D02*Y42500D01*
X3500D02*X4500D01*
X5700Y39000D02*X6200Y38500D01*
X7700D01*
X8200Y39000D01*
Y40000D01*
X5700Y42500D02*X8200Y40000D01*
X5700Y42500D02*X8200D01*
X10100D02*X11400D01*
X9400Y41800D02*X10100Y42500D01*
X9400Y39200D02*Y41800D01*
Y39200D02*X10100Y38500D01*
X11400D01*
X12600Y40500D02*X14600D01*
X15800Y38500D02*Y40500D01*
X16300Y42500D01*
X17300Y40500D01*
X18300Y42500D01*
X18800Y40500D01*
Y38500D02*Y40500D01*
X20000Y42500D02*X22500Y38500D01*
X20000D02*X22500Y42500D01*
X25700Y38500D02*X26200Y39000D01*
X24200Y38500D02*X25700D01*
X23700Y39000D02*X24200Y38500D01*
X23700Y39000D02*Y40000D01*
X24200Y40500D01*
X25700D01*
X26200Y41000D01*
Y42000D01*
X25700Y42500D02*X26200Y42000D01*
X24200Y42500D02*X25700D01*
X23700Y42000D02*X24200Y42500D01*
X27400Y38500D02*Y42500D01*
Y38500D02*X29900Y42500D01*
Y38500D02*Y42500D01*
X33100Y38500D02*X33600Y39000D01*
X31600Y38500D02*X33100D01*
X31100Y39000D02*X31600Y38500D01*
X31100Y39000D02*Y40000D01*
X31600Y40500D01*
X33100D01*
X33600Y41000D01*
Y42000D01*
X33100Y42500D02*X33600Y42000D01*
X31600Y42500D02*X33100D01*
X31100Y42000D02*X31600Y42500D01*
X71500Y43000D02*X73500D01*
X74000Y42500D01*
Y41300D02*Y42500D01*
X73500Y40800D02*X74000Y41300D01*
X72000Y40800D02*X73500D01*
X72000Y39000D02*Y43000D01*
X71500Y39000D02*X73500D01*
X74000Y39500D01*
Y40300D01*
X73500Y40800D02*X74000Y40300D01*
X4000Y12000D02*X5000Y14000D01*
X6000Y12000D02*X5000Y14000D01*
X7200Y10500D02*X7700Y10000D01*
X9200D01*
X9700Y10500D01*
Y11500D01*
X7200Y14000D02*X9700Y11500D01*
X7200Y14000D02*X9700D01*
X10900D02*X11400D01*
X12600Y13500D02*X13100Y14000D01*
X12600Y10500D02*Y13500D01*
Y10500D02*X13100Y10000D01*
X14100D01*
X14600Y10500D01*
Y13500D01*
X14100Y14000D02*X14600Y13500D01*
X13100Y14000D02*X14100D01*
X12600Y13000D02*X14600Y11000D01*
X3500Y3500D02*X4500D01*
X4000D02*Y7500D01*
X3500D02*X4500D01*
X5700Y4000D02*X6200Y3500D01*
X7700D01*
X8200Y4000D01*
Y5000D01*
X5700Y7500D02*X8200Y5000D01*
X5700Y7500D02*X8200D01*
X10100D02*X11400D01*
X9400Y6800D02*X10100Y7500D01*
X9400Y4200D02*Y6800D01*
Y4200D02*X10100Y3500D01*
X11400D01*
X12600Y5500D02*X14600D01*
X15800Y3500D02*Y5500D01*
X16300Y7500D01*
X17300Y5500D01*
X18300Y7500D01*
X18800Y5500D01*
Y3500D02*Y5500D01*
X20000Y7500D02*X22500Y3500D01*
X20000D02*X22500Y7500D01*
X25700Y3500D02*X26200Y4000D01*
X24200Y3500D02*X25700D01*
X23700Y4000D02*X24200Y3500D01*
X23700Y4000D02*Y5000D01*
X24200Y5500D01*
X25700D01*
X26200Y6000D01*
Y7000D01*
X25700Y7500D02*X26200Y7000D01*
X24200Y7500D02*X25700D01*
X23700Y7000D02*X24200Y7500D01*
X27400Y3500D02*Y7500D01*
Y3500D02*X29900Y7500D01*
Y3500D02*Y7500D01*
X33100Y3500D02*X33600Y4000D01*
X31600Y3500D02*X33100D01*
X31100Y4000D02*X31600Y3500D01*
X31100Y4000D02*Y5000D01*
X31600Y5500D01*
X33100D01*
X33600Y6000D01*
Y7000D01*
X33100Y7500D02*X33600Y7000D01*
X31600Y7500D02*X33100D01*
X31100Y7000D02*X31600Y7500D01*
X32700Y23500D02*X34000D01*
X32000Y22800D02*X32700Y23500D01*
X32000Y20200D02*Y22800D01*
Y20200D02*X32700Y19500D01*
X34000D01*
X35900Y23500D02*X37200D01*
X35200Y22800D02*X35900Y23500D01*
X35200Y20200D02*Y22800D01*
Y20200D02*X35900Y19500D01*
X37200D01*
X40200Y23500D02*X42200D01*
X42700Y23000D01*
Y21800D02*Y23000D01*
X42200Y21300D02*X42700Y21800D01*
X40700Y21300D02*X42200D01*
X40700Y19500D02*Y23500D01*
X40200Y19500D02*X42200D01*
X42700Y20000D01*
Y20800D01*
X42200Y21300D02*X42700Y20800D01*
X43900Y19500D02*X44900Y21500D01*
X45900Y19500D01*
X44900Y21500D02*Y23500D01*
X47100Y21500D02*X49100D01*
X52300Y19500D02*X52800Y20000D01*
X50800Y19500D02*X52300D01*
X50300Y20000D02*X50800Y19500D01*
X50300Y20000D02*Y21000D01*
X50800Y21500D01*
X52300D01*
X52800Y22000D01*
Y23000D01*
X52300Y23500D02*X52800Y23000D01*
X50800Y23500D02*X52300D01*
X50300Y23000D02*X50800Y23500D01*
X54000Y20500D02*Y23500D01*
Y20500D02*X54700Y19500D01*
X55800D01*
X56500Y20500D01*
Y23500D01*
X54000Y21500D02*X56500D01*
X59500Y23000D02*X60000Y23500D01*
X59500Y20000D02*X60000Y19500D01*
X59500Y20000D02*Y23000D01*
X61900Y23500D02*X63200D01*
X61200Y22800D02*X61900Y23500D01*
X61200Y20200D02*Y22800D01*
Y20200D02*X61900Y19500D01*
X63200D01*
X64400D02*X64900Y20000D01*
Y23000D01*
X64400Y23500D02*X64900Y23000D01*
X66100Y20000D02*X66600Y19500D01*
X68100D01*
X68600Y20000D01*
Y21000D01*
X66100Y23500D02*X68600Y21000D01*
X66100Y23500D02*X68600D01*
X69800Y23000D02*X70300Y23500D01*
X69800Y20000D02*Y23000D01*
Y20000D02*X70300Y19500D01*
X71300D01*
X71800Y20000D01*
Y23000D01*
X71300Y23500D02*X71800Y23000D01*
X70300Y23500D02*X71300D01*
X69800Y22500D02*X71800Y20500D01*
X73000Y20300D02*X73800Y19500D01*
Y23500D01*
X73000D02*X74500D01*
X75700Y23000D02*X76200Y23500D01*
X75700Y22200D02*Y23000D01*
Y22200D02*X76400Y21500D01*
X77000D01*
X77700Y22200D01*
Y23000D01*
X77200Y23500D02*X77700Y23000D01*
X76200Y23500D02*X77200D01*
X75700Y20800D02*X76400Y21500D01*
X75700Y20000D02*Y20800D01*
Y20000D02*X76200Y19500D01*
X77200D01*
X77700Y20000D01*
Y20800D01*
X77000Y21500D02*X77700Y20800D01*
X38500Y11500D02*Y11600D01*
Y13000D02*Y14500D01*
X41000Y12500D02*X41500Y13000D01*
X40000Y12500D02*X41000D01*
X39500Y13000D02*X40000Y12500D01*
X39500Y13000D02*Y14000D01*
X40000Y14500D01*
X41500Y12500D02*Y14000D01*
X42000Y14500D01*
X40000D02*X41000D01*
X41500Y14000D01*
X43700Y14500D02*X45200D01*
X45700Y14000D01*
X45200Y13500D02*X45700Y14000D01*
X43700Y13500D02*X45200D01*
X43200Y13000D02*X43700Y13500D01*
X43200Y13000D02*X43700Y12500D01*
X45200D01*
X45700Y13000D01*
X43200Y14000D02*X43700Y14500D01*
X47400Y12500D02*X48900D01*
X46900Y13000D02*X47400Y12500D01*
X46900Y13000D02*Y14000D01*
X47400Y14500D01*
X48900D01*
X51600Y12500D02*X52100Y13000D01*
X50600Y12500D02*X51600D01*
X50100Y13000D02*X50600Y12500D01*
X50100Y13000D02*Y14000D01*
X50600Y14500D01*
X52100Y12500D02*Y14000D01*
X52600Y14500D01*
X50600D02*X51600D01*
X52100Y14000D01*
X53800Y10500D02*Y14000D01*
X54300Y14500D01*
X55800D02*X57300D01*
X55300Y14000D02*X55800Y14500D01*
X55300Y13000D02*Y14000D01*
Y13000D02*X55800Y12500D01*
X56800D01*
X57300Y13000D01*
X55300Y13500D02*X57300D01*
Y13000D02*Y13500D01*
X60500Y10500D02*Y14500D01*
X60000D02*X60500Y14000D01*
X59000Y14500D02*X60000D01*
X58500Y14000D02*X59000Y14500D01*
X58500Y13000D02*Y14000D01*
Y13000D02*X59000Y12500D01*
X60000D01*
X60500Y13000D01*
X61700Y14500D02*X62200D01*
X63900Y12500D02*X65400D01*
X63400Y13000D02*X63900Y12500D01*
X63400Y13000D02*Y14000D01*
X63900Y14500D01*
X65400D01*
X66600Y13000D02*Y14000D01*
Y13000D02*X67100Y12500D01*
X68100D01*
X68600Y13000D01*
Y14000D01*
X68100Y14500D02*X68600Y14000D01*
X67100Y14500D02*X68100D01*
X66600Y14000D02*X67100Y14500D01*
X70300Y13000D02*Y14500D01*
Y13000D02*X70800Y12500D01*
X71300D01*
X71800Y13000D01*
Y14500D01*
Y13000D02*X72300Y12500D01*
X72800D01*
X73300Y13000D01*
Y14500D01*
X69800Y12500D02*X70300Y13000D01*
X72200Y8000D02*X73500D01*
X71500Y7300D02*X72200Y8000D01*
X71500Y4700D02*Y7300D01*
Y4700D02*X72200Y4000D01*
X73500D01*
M02*
