M48
INCH
T29C0.012
%
T29
X002650Y008950
X002650Y008100
X002650Y005450
X002650Y004600
X002650Y001950
X002650Y001100
X002950Y008950
X002950Y008100
X002950Y005450
X002950Y004600
X002950Y001950
X002950Y001100
X008150Y009150
X008150Y007550
X008150Y005650
X008150Y004050
X008150Y002150
X008150Y000550
X008500Y009150
X008500Y007550
X008500Y005650
X008500Y004050
X008500Y002150
X008500Y000550
M30
