G04 start of page 7 for group -4063 idx -4063 *
G04 Title: (unknown), componentmask *
G04 Creator: pcb 20140316 *
G04 CreationDate: Wed 28 Nov 2018 04:36:04 PM GMT UTC *
G04 For: railfan *
G04 Format: Gerber/RS-274X *
G04 PCB-Dimensions (mil): 900.00 970.00 *
G04 PCB-Coordinate-Origin: lower left *
%MOIN*%
%FSLAX25Y25*%
%LNTOPMASK*%
%ADD38R,0.0454X0.0454*%
%ADD37R,0.0414X0.0414*%
%ADD36R,0.0158X0.0158*%
%ADD35R,0.0572X0.0572*%
%ADD34C,0.0001*%
%ADD33R,0.0178X0.0178*%
%ADD32R,0.0444X0.0444*%
%ADD31R,0.0296X0.0296*%
G54D31*X18130Y89406D02*X21870D01*
X18130Y85469D02*X21870D01*
X18130Y81531D02*X21870D01*
X18130Y77594D02*X21870D01*
G54D32*X3120Y72919D02*X6368D01*
X3120Y94081D02*X6368D01*
G54D31*X18130Y54406D02*X21870D01*
X18130Y50469D02*X21870D01*
X18130Y46531D02*X21870D01*
X18130Y42594D02*X21870D01*
X18130Y19406D02*X21870D01*
X18130Y15469D02*X21870D01*
X18130Y11531D02*X21870D01*
X18130Y7594D02*X21870D01*
G54D32*X3120Y37919D02*X6368D01*
X3120Y59081D02*X6368D01*
X3120Y2919D02*X6368D01*
X3120Y24081D02*X6368D01*
G54D33*X55693Y44661D02*X57268D01*
X45161Y41807D02*Y40232D01*
X47720Y41807D02*Y40232D01*
X50280Y41807D02*Y40232D01*
X52839Y41807D02*Y40232D01*
X55693Y47220D02*X57268D01*
X40732D02*X42307D01*
G54D34*G36*
X43976Y53524D02*Y43476D01*
X54024D01*
Y53524D01*
X43976D01*
G37*
G36*
Y43476D01*
X54024D01*
Y53524D01*
X43976D01*
G37*
G54D33*X55693Y49780D02*X57268D01*
X40732D02*X42307D01*
X55693Y52339D02*X57268D01*
X52839Y56768D02*Y55193D01*
X50280Y56768D02*Y55193D01*
X47720Y56768D02*Y55193D01*
X45161Y56768D02*Y55193D01*
X40732Y52339D02*X42307D01*
X40732Y44661D02*X42307D01*
G54D35*X33607Y44957D02*X34393D01*
X33607Y52043D02*X34393D01*
G54D33*X55693Y9661D02*X57268D01*
X55693Y12220D02*X57268D01*
X55693Y14780D02*X57268D01*
G54D34*G36*
X43976Y18524D02*Y8476D01*
X54024D01*
Y18524D01*
X43976D01*
G37*
G36*
Y8476D01*
X54024D01*
Y18524D01*
X43976D01*
G37*
G54D33*X55693Y17339D02*X57268D01*
X40732D02*X42307D01*
G54D36*X65283Y16453D02*X66465D01*
X65283Y14484D02*X66465D01*
G54D33*X52839Y21768D02*Y20193D01*
Y6807D02*Y5232D01*
X50280Y21768D02*Y20193D01*
Y6807D02*Y5232D01*
G54D36*X65283Y12516D02*X66465D01*
X65283Y10547D02*X66465D01*
X74535D02*X75717D01*
X74535Y12516D02*X75717D01*
X74535Y14484D02*X75717D01*
X74535Y16453D02*X75717D01*
G54D37*X70500Y14878D02*Y12122D01*
G54D38*Y14878D02*Y12122D01*
G54D35*X83107Y9957D02*X83893D01*
X83107Y17043D02*X83893D01*
G54D33*X47720Y21768D02*Y20193D01*
X45161Y21768D02*Y20193D01*
Y6807D02*Y5232D01*
X47720Y6807D02*Y5232D01*
X40732Y14780D02*X42307D01*
X40732Y12220D02*X42307D01*
X40732Y9661D02*X42307D01*
G54D35*X33607Y9957D02*X34393D01*
X33607Y17043D02*X34393D01*
G54D33*X55693Y79661D02*X57268D01*
X45161Y76807D02*Y75232D01*
X47720Y76807D02*Y75232D01*
X50280Y76807D02*Y75232D01*
X52839Y76807D02*Y75232D01*
X55693Y82220D02*X57268D01*
X40732D02*X42307D01*
X55693Y84780D02*X57268D01*
X40732D02*X42307D01*
G54D36*X65283Y84484D02*X66465D01*
X74535D02*X75717D01*
G54D33*X55693Y87339D02*X57268D01*
X40732D02*X42307D01*
G54D36*X65283Y86453D02*X66465D01*
X74535D02*X75717D01*
G54D33*X52839Y91768D02*Y90193D01*
X50280Y91768D02*Y90193D01*
X47720Y91768D02*Y90193D01*
X45161Y91768D02*Y90193D01*
G54D34*G36*
X43976Y88524D02*Y78476D01*
X54024D01*
Y88524D01*
X43976D01*
G37*
G36*
Y78476D01*
X54024D01*
Y88524D01*
X43976D01*
G37*
G54D33*X40732Y79661D02*X42307D01*
G54D35*X33607Y79957D02*X34393D01*
X33607Y87043D02*X34393D01*
G54D36*X65283Y82516D02*X66465D01*
X65283Y80547D02*X66465D01*
G54D37*X70500Y84878D02*Y82122D01*
G54D38*Y84878D02*Y82122D01*
G54D36*X74535Y80547D02*X75717D01*
X74535Y82516D02*X75717D01*
G54D35*X83107Y79957D02*X83893D01*
X83107Y87043D02*X83893D01*
G54D36*X65283Y51453D02*X66465D01*
X65283Y49484D02*X66465D01*
X65283Y47516D02*X66465D01*
X65283Y45547D02*X66465D01*
G54D37*X70500Y49878D02*Y47122D01*
G54D38*Y49878D02*Y47122D01*
G54D36*X74535Y45547D02*X75717D01*
X74535Y47516D02*X75717D01*
X74535Y49484D02*X75717D01*
X74535Y51453D02*X75717D01*
G54D35*X83107Y44957D02*X83893D01*
X83107Y52043D02*X83893D01*
M02*
