G04 start of page 4 for group 2 idx 2 *
G04 Title: (unknown), outline *
G04 Creator: pcb 20140316 *
G04 CreationDate: Wed 28 Nov 2018 04:36:04 PM GMT UTC *
G04 For: railfan *
G04 Format: Gerber/RS-274X *
G04 PCB-Dimensions (mil): 900.00 970.00 *
G04 PCB-Coordinate-Origin: lower left *
%MOIN*%
%FSLAX25Y25*%
%LNOUTLINE*%
%ADD28C,0.0100*%
G54D28*X1000Y71000D02*X35000D01*
X1000Y96000D02*Y71000D01*
Y36000D02*X35000D01*
X1000Y61000D02*Y36000D01*
Y61000D02*X35000D01*
X55000Y71000D02*X89000D01*
Y96000D02*Y71000D01*
Y96000D02*X1000D01*
X55000Y36000D02*X89000D01*
Y61000D02*Y36000D01*
X55000Y61000D02*X89000D01*
X1000Y1000D02*X89000D01*
Y26000D02*Y1000D01*
X1000Y26000D02*Y1000D01*
X55000Y26000D02*X89000D01*
X1000D02*X35000D01*
X50000Y31000D02*G75*G03X55000Y26000I5000J0D01*G01*
X50000Y31000D02*G75*G02X55000Y36000I5000J0D01*G01*
X40000Y31000D02*G75*G02X35000Y26000I-5000J0D01*G01*
X40000Y31000D02*G75*G03X35000Y36000I-5000J0D01*G01*
X50000Y66000D02*G75*G03X55000Y61000I5000J0D01*G01*
X50000Y66000D02*G75*G02X55000Y71000I5000J0D01*G01*
X40000Y66000D02*G75*G02X35000Y61000I-5000J0D01*G01*
X40000Y66000D02*G75*G03X35000Y71000I-5000J0D01*G01*
M02*
