G04 start of page 9 for group -4078 idx -4078 *
G04 Title: (unknown), bottomsilk *
G04 Creator: pcb 20110918 *
G04 CreationDate: Sat 30 Jan 2016 03:30:32 AM GMT UTC *
G04 For: railfan *
G04 Format: Gerber/RS-274X *
G04 PCB-Dimensions: 140000 25000 *
G04 PCB-Coordinate-Origin: lower left *
%MOIN*%
%FSLAX25Y25*%
%LNBOTTOMSILK*%
%ADD32C,0.0080*%
G54D32*X34600Y19800D02*X35000Y20200D01*
X33400Y19800D02*X34600D01*
X33000Y20200D02*X33400Y19800D01*
X33000Y20200D02*Y21000D01*
X33400Y21400D01*
X34600D01*
X35000Y21800D01*
Y22600D01*
X34600Y23000D02*X35000Y22600D01*
X33400Y23000D02*X34600D01*
X33000Y22600D02*X33400Y23000D01*
X36520D02*X37560D01*
X35960Y22440D02*X36520Y23000D01*
X35960Y20360D02*Y22440D01*
Y20360D02*X36520Y19800D01*
X37560D01*
X38520D02*Y23000D01*
X40120D01*
X49500Y2500D02*X50500D01*
X50000D02*Y6500D01*
X49500D02*X50500D01*
X51700Y3000D02*X52200Y2500D01*
X53700D01*
X54200Y3000D01*
Y4000D01*
X51700Y6500D02*X54200Y4000D01*
X51700Y6500D02*X54200D01*
X56100D02*X57400D01*
X55400Y5800D02*X56100Y6500D01*
X55400Y3200D02*Y5800D01*
Y3200D02*X56100Y2500D01*
X57400D01*
X58600Y4500D02*X60600D01*
X61800Y2500D02*Y4500D01*
X62300Y6500D01*
X63300Y4500D01*
X64300Y6500D01*
X64800Y4500D01*
Y2500D02*Y4500D01*
X66000Y6500D02*X68500Y2500D01*
X66000D02*X68500Y6500D01*
X71700Y2500D02*X72200Y3000D01*
X70200Y2500D02*X71700D01*
X69700Y3000D02*X70200Y2500D01*
X69700Y3000D02*Y4000D01*
X70200Y4500D01*
X71700D01*
X72200Y5000D01*
Y6000D01*
X71700Y6500D02*X72200Y6000D01*
X70200Y6500D02*X71700D01*
X69700Y6000D02*X70200Y6500D01*
X73400Y2500D02*Y6500D01*
Y2500D02*X75900Y6500D01*
Y2500D02*Y6500D01*
X79100Y2500D02*X79600Y3000D01*
X77600Y2500D02*X79100D01*
X77100Y3000D02*X77600Y2500D01*
X77100Y3000D02*Y4000D01*
X77600Y4500D01*
X79100D01*
X79600Y5000D01*
Y6000D01*
X79100Y6500D02*X79600Y6000D01*
X77600Y6500D02*X79100D01*
X77100Y6000D02*X77600Y6500D01*
X49500Y10500D02*X50500Y12500D01*
X51500Y10500D02*X50500Y12500D01*
X52700Y9300D02*X53500Y8500D01*
Y12500D01*
X52700D02*X54200D01*
X55400D02*X55900D01*
X57100Y12000D02*X57600Y12500D01*
X57100Y9000D02*Y12000D01*
Y9000D02*X57600Y8500D01*
X58600D01*
X59100Y9000D01*
Y12000D01*
X58600Y12500D02*X59100Y12000D01*
X57600Y12500D02*X58600D01*
X57100Y11500D02*X59100Y9500D01*
X34100Y1800D02*X34500Y2200D01*
X32900Y1800D02*X34100D01*
X32500Y2200D02*X32900Y1800D01*
X32500Y2200D02*Y3000D01*
X32900Y3400D01*
X34100D01*
X34500Y3800D01*
Y4600D01*
X34100Y5000D02*X34500Y4600D01*
X32900Y5000D02*X34100D01*
X32500Y4600D02*X32900Y5000D01*
X35860Y1800D02*Y5000D01*
X36900Y1800D02*X37460Y2360D01*
Y4440D01*
X36900Y5000D02*X37460Y4440D01*
X35460Y5000D02*X36900D01*
X35460Y1800D02*X36900D01*
X38420Y2600D02*Y5000D01*
Y2600D02*X38980Y1800D01*
X39860D01*
X40420Y2600D01*
Y5000D01*
X38420Y3400D02*X40420D01*
X34100Y7800D02*X34500Y8200D01*
X32900Y7800D02*X34100D01*
X32500Y8200D02*X32900Y7800D01*
X32500Y8200D02*Y10600D01*
X32900Y11000D01*
X34100D01*
X34500Y10600D01*
Y9800D02*Y10600D01*
X34100Y9400D02*X34500Y9800D01*
X33300Y9400D02*X34100D01*
X35460Y7800D02*Y11000D01*
Y7800D02*X37460Y11000D01*
Y7800D02*Y11000D01*
X38820Y7800D02*Y11000D01*
X39860Y7800D02*X40420Y8360D01*
Y10440D01*
X39860Y11000D02*X40420Y10440D01*
X38420Y11000D02*X39860D01*
X38420Y7800D02*X39860D01*
X32500Y13800D02*X33300Y17000D01*
X34100Y13800D01*
X35460D02*Y17000D01*
X36500Y13800D02*X37060Y14360D01*
Y16440D01*
X36500Y17000D02*X37060Y16440D01*
X35060Y17000D02*X36500D01*
X35060Y13800D02*X36500D01*
X38420D02*Y17000D01*
X39460Y13800D02*X40020Y14360D01*
Y16440D01*
X39460Y17000D02*X40020Y16440D01*
X38020Y17000D02*X39460D01*
X38020Y13800D02*X39460D01*
X80000Y11500D02*Y15500D01*
Y14000D02*X80500Y13500D01*
X81500D01*
X82000Y14000D01*
Y15500D01*
X83700Y11500D02*Y15000D01*
X84200Y15500D01*
X83200Y13000D02*X84200D01*
X85700Y11500D02*Y15000D01*
X86200Y15500D01*
X85200Y13000D02*X86200D01*
X87700Y14000D02*Y17000D01*
X87200Y13500D02*X87700Y14000D01*
X88200Y13500D01*
X89200D01*
X89700Y14000D01*
Y15000D01*
X89200Y15500D02*X89700Y15000D01*
X88200Y15500D02*X89200D01*
X87700Y15000D02*X88200Y15500D01*
X90900Y13000D02*X91400D01*
X90900Y14000D02*X91400D01*
X92600Y15000D02*X95600Y12000D01*
X96800Y15000D02*X99800Y12000D01*
X101000Y12500D02*Y12600D01*
Y14000D02*Y15500D01*
X103500Y13500D02*X104000Y14000D01*
X102500Y13500D02*X103500D01*
X102000Y14000D02*X102500Y13500D01*
X102000Y14000D02*Y15000D01*
X102500Y15500D01*
X104000Y13500D02*Y15000D01*
X104500Y15500D01*
X102500D02*X103500D01*
X104000Y15000D01*
X106200Y15500D02*X107700D01*
X108200Y15000D01*
X107700Y14500D02*X108200Y15000D01*
X106200Y14500D02*X107700D01*
X105700Y14000D02*X106200Y14500D01*
X105700Y14000D02*X106200Y13500D01*
X107700D01*
X108200Y14000D01*
X105700Y15000D02*X106200Y15500D01*
X109900Y13500D02*X111400D01*
X109400Y14000D02*X109900Y13500D01*
X109400Y14000D02*Y15000D01*
X109900Y15500D01*
X111400D01*
X114100Y13500D02*X114600Y14000D01*
X113100Y13500D02*X114100D01*
X112600Y14000D02*X113100Y13500D01*
X112600Y14000D02*Y15000D01*
X113100Y15500D01*
X114600Y13500D02*Y15000D01*
X115100Y15500D01*
X113100D02*X114100D01*
X114600Y15000D01*
X116300Y11500D02*Y15000D01*
X116800Y15500D01*
X118300D02*X119800D01*
X117800Y15000D02*X118300Y15500D01*
X117800Y14000D02*Y15000D01*
Y14000D02*X118300Y13500D01*
X119300D01*
X119800Y14000D01*
X117800Y14500D02*X119800D01*
Y14000D02*Y14500D01*
X123000Y11500D02*Y15500D01*
X122500D02*X123000Y15000D01*
X121500Y15500D02*X122500D01*
X121000Y15000D02*X121500Y15500D01*
X121000Y14000D02*Y15000D01*
Y14000D02*X121500Y13500D01*
X122500D01*
X123000Y14000D01*
X124200Y15500D02*X124700D01*
X126400Y13500D02*X127900D01*
X125900Y14000D02*X126400Y13500D01*
X125900Y14000D02*Y15000D01*
X126400Y15500D01*
X127900D01*
X129100Y14000D02*Y15000D01*
Y14000D02*X129600Y13500D01*
X130600D01*
X131100Y14000D01*
Y15000D01*
X130600Y15500D02*X131100Y15000D01*
X129600Y15500D02*X130600D01*
X129100Y15000D02*X129600Y15500D01*
X132800Y14000D02*Y15500D01*
Y14000D02*X133300Y13500D01*
X133800D01*
X134300Y14000D01*
Y15500D01*
Y14000D02*X134800Y13500D01*
X135300D01*
X135800Y14000D01*
Y15500D01*
X132300Y13500D02*X132800Y14000D01*
X80700Y22500D02*X82000D01*
X80000Y21800D02*X80700Y22500D01*
X80000Y19200D02*Y21800D01*
Y19200D02*X80700Y18500D01*
X82000D01*
X83900Y22500D02*X85200D01*
X83200Y21800D02*X83900Y22500D01*
X83200Y19200D02*Y21800D01*
Y19200D02*X83900Y18500D01*
X85200D01*
X88200Y22500D02*X90200D01*
X90700Y22000D01*
Y20800D02*Y22000D01*
X90200Y20300D02*X90700Y20800D01*
X88700Y20300D02*X90200D01*
X88700Y18500D02*Y22500D01*
X88200Y18500D02*X90200D01*
X90700Y19000D01*
Y19800D01*
X90200Y20300D02*X90700Y19800D01*
X91900Y18500D02*X92900Y20500D01*
X93900Y18500D01*
X92900Y20500D02*Y22500D01*
X95100Y20500D02*X97100D01*
X100300Y18500D02*X100800Y19000D01*
X98800Y18500D02*X100300D01*
X98300Y19000D02*X98800Y18500D01*
X98300Y19000D02*Y20000D01*
X98800Y20500D01*
X100300D01*
X100800Y21000D01*
Y22000D01*
X100300Y22500D02*X100800Y22000D01*
X98800Y22500D02*X100300D01*
X98300Y22000D02*X98800Y22500D01*
X102000Y19500D02*Y22500D01*
Y19500D02*X102700Y18500D01*
X103800D01*
X104500Y19500D01*
Y22500D01*
X102000Y20500D02*X104500D01*
X107500Y22000D02*X108000Y22500D01*
X107500Y19000D02*X108000Y18500D01*
X107500Y19000D02*Y22000D01*
X109900Y22500D02*X111200D01*
X109200Y21800D02*X109900Y22500D01*
X109200Y19200D02*Y21800D01*
Y19200D02*X109900Y18500D01*
X111200D01*
X112400D02*X112900Y19000D01*
Y22000D01*
X112400Y22500D02*X112900Y22000D01*
X114100Y19000D02*X114600Y18500D01*
X116100D01*
X116600Y19000D01*
Y20000D01*
X114100Y22500D02*X116600Y20000D01*
X114100Y22500D02*X116600D01*
X117800Y22000D02*X118300Y22500D01*
X117800Y19000D02*Y22000D01*
Y19000D02*X118300Y18500D01*
X119300D01*
X119800Y19000D01*
Y22000D01*
X119300Y22500D02*X119800Y22000D01*
X118300Y22500D02*X119300D01*
X117800Y21500D02*X119800Y19500D01*
X121000Y19300D02*X121800Y18500D01*
Y22500D01*
X121000D02*X122500D01*
X125200Y18500D02*X125700Y19000D01*
X124200Y18500D02*X125200D01*
X123700Y19000D02*X124200Y18500D01*
X123700Y19000D02*Y22000D01*
X124200Y22500D01*
X125200Y20300D02*X125700Y20800D01*
X123700Y20300D02*X125200D01*
X124200Y22500D02*X125200D01*
X125700Y22000D01*
Y20800D02*Y22000D01*
M02*
