G04 start of page 10 for group -4015 idx -4015 *
G04 Title: (unknown), toppaste *
G04 Creator: pcb 20110918 *
G04 CreationDate: Sat 30 Jan 2016 03:30:32 AM GMT UTC *
G04 For: railfan *
G04 Format: Gerber/RS-274X *
G04 PCB-Dimensions: 140000 25000 *
G04 PCB-Coordinate-Origin: lower left *
%MOIN*%
%FSLAX25Y25*%
%LNTOPPASTE*%
%ADD37R,0.0360X0.0360*%
%ADD36R,0.0200X0.0200*%
%ADD35R,0.0512X0.0512*%
%ADD34C,0.0001*%
%ADD33R,0.0118X0.0118*%
G54D33*X50232Y16339D02*X51807D01*
X50232Y13780D02*X51807D01*
X50232Y11220D02*X51807D01*
X50232Y8661D02*X51807D01*
X54661Y5807D02*Y4232D01*
X57220Y5807D02*Y4232D01*
X59780Y5807D02*Y4232D01*
X62339Y5807D02*Y4232D01*
X65193Y8661D02*X66768D01*
X65193Y11220D02*X66768D01*
X65193Y13780D02*X66768D01*
X65193Y16339D02*X66768D01*
X62339Y20768D02*Y19193D01*
X59780Y20768D02*Y19193D01*
X57220Y20768D02*Y19193D01*
X54661Y20768D02*Y19193D01*
G54D34*G36*
X54563Y16437D02*Y8563D01*
X62437D01*
Y16437D01*
X54563D01*
G37*
G54D35*X134607Y20043D02*X135393D01*
X134607Y12957D02*X135393D01*
X77107Y16043D02*X77893D01*
X77107Y8957D02*X77893D01*
G54D36*X97000Y20000D02*X103500D01*
X97000Y15000D02*X103500D01*
X97000Y10000D02*X103500D01*
X97000Y5000D02*X103500D01*
X117500D02*X124000D01*
X117500Y10000D02*X124000D01*
X117500Y15000D02*X124000D01*
X117500Y20000D02*X124000D01*
G54D35*X87107Y20043D02*X87893D01*
X87107Y12957D02*X87893D01*
G54D37*X20500Y3500D02*X36500D01*
X20500Y9500D02*X36500D01*
X20500Y15500D02*X36500D01*
X20500Y21500D02*X36500D01*
M02*
