G04 start of page 2 for group 0 idx 0 *
G04 Title: (unknown), top *
G04 Creator: pcb 20140316 *
G04 CreationDate: Wed 28 Nov 2018 04:35:58 PM GMT UTC *
G04 For: railfan *
G04 Format: Gerber/RS-274X *
G04 PCB-Dimensions (mil): 880.00 250.00 *
G04 PCB-Coordinate-Origin: lower left *
%MOIN*%
%FSLAX25Y25*%
%LNTOP*%
%ADD22C,0.0120*%
%ADD21C,0.0280*%
%ADD20R,0.0118X0.0118*%
%ADD19R,0.0384X0.0384*%
%ADD18R,0.0236X0.0236*%
%ADD17R,0.0394X0.0394*%
%ADD16R,0.0354X0.0354*%
%ADD15R,0.0098X0.0098*%
%ADD14R,0.0512X0.0512*%
%ADD13C,0.0100*%
%ADD12C,0.0200*%
%ADD11C,0.0001*%
G54D11*G36*
X29000Y12000D02*X35995D01*
X36014Y11765D01*
X36069Y11535D01*
X36159Y11317D01*
X36283Y11116D01*
X36436Y10936D01*
X36481Y10898D01*
X37178Y10201D01*
X37216Y10156D01*
X37395Y10003D01*
X37396Y10003D01*
X37597Y9879D01*
X37815Y9789D01*
X38000Y9745D01*
Y3500D01*
X29000D01*
Y12000D01*
G37*
G36*
X30000Y3500D02*X23500D01*
Y12000D01*
X30000D01*
Y3500D01*
G37*
G36*
X37000Y21500D02*Y15916D01*
X36817Y15841D01*
X36616Y15717D01*
X36436Y15564D01*
X36283Y15384D01*
X36159Y15183D01*
X36069Y14965D01*
X36014Y14735D01*
X36000Y14500D01*
Y13000D01*
X28006D01*
Y13000D01*
X27981Y13314D01*
X27981Y13314D01*
X27908Y13620D01*
X27788Y13911D01*
X27623Y14179D01*
X27419Y14419D01*
X27359Y14470D01*
X26001Y15827D01*
X25950Y15887D01*
X25711Y16091D01*
X25711Y16092D01*
X25442Y16256D01*
X25151Y16376D01*
X24845Y16450D01*
X24532Y16475D01*
X24453Y16469D01*
X23500D01*
Y21500D01*
X37000D01*
G37*
G36*
X36000Y13000D02*Y21500D01*
X38000D01*
Y13000D01*
X36000D01*
G37*
G36*
X0Y0D02*Y25000D01*
X12500D01*
Y22059D01*
X12495Y22000D01*
X12500Y21941D01*
Y11559D01*
X12495Y11500D01*
X12500Y11441D01*
Y5559D01*
X12495Y5500D01*
X12500Y5441D01*
Y3059D01*
X12495Y3000D01*
X12500Y2941D01*
Y0D01*
X0D01*
G37*
G36*
X86000Y12000D02*Y2000D01*
X78000D01*
Y12000D01*
X86000D01*
G37*
G36*
Y13000D02*X78000D01*
Y23000D01*
X86000D01*
Y13000D01*
G37*
G54D12*X19000Y18406D02*X26000D01*
X19000Y14469D02*X24531D01*
X26000Y13000D01*
Y9500D01*
G54D13*X19000Y10531D02*X14969D01*
X14000Y11500D01*
Y22000D01*
X15000Y23000D01*
X19000Y6594D02*X15094D01*
X14000Y5500D01*
Y3000D01*
X15000Y2000D01*
X40520Y11220D02*X48000D01*
X15000Y23000D02*X59000D01*
X58720Y11220D02*X55480D01*
X40520D02*X38280D01*
X37500Y12000D01*
Y14500D01*
X64874Y15453D02*X60000D01*
X64874Y13484D02*X74126D01*
Y15453D02*Y13484D01*
Y9547D02*X82500D01*
X74126Y15453D02*X82500D01*
X40520Y8661D02*X36500D01*
X15000Y2000D02*X59000D01*
X55480Y16339D02*Y13780D01*
X48000D02*X55480D01*
X59000Y23000D02*X60000Y22000D01*
Y12500D01*
X58720Y11220D01*
X59000Y2000D02*X60000Y3000D01*
Y7500D01*
X62047Y9547D01*
X64874D01*
X60000Y7500D02*X58839Y8661D01*
X55480D01*
G54D14*X82107Y8957D02*X82893D01*
X82107Y16043D02*X82893D01*
G54D15*X73535Y9547D02*X74717D01*
X73535Y11516D02*X74717D01*
X73535Y13484D02*X74717D01*
X73535Y15453D02*X74717D01*
X64283D02*X65465D01*
X64283Y13484D02*X65465D01*
X64283Y11516D02*X65465D01*
X64283Y9547D02*X65465D01*
G54D16*X69500Y13878D02*Y11122D01*
G54D17*Y13878D02*Y11122D01*
G54D14*X32607Y8957D02*X33393D01*
X32607Y16043D02*X33393D01*
G54D18*X17130Y18406D02*X20870D01*
X17130Y14469D02*X20870D01*
X17130Y10531D02*X20870D01*
X17130Y6594D02*X20870D01*
G54D19*X2120Y1919D02*X5368D01*
X2120Y23081D02*X5368D01*
G54D20*X54693Y8661D02*X56268D01*
X54693Y11220D02*X56268D01*
X54693Y13780D02*X56268D01*
X54693Y16339D02*X56268D01*
X51839Y20768D02*Y19193D01*
X49280Y20768D02*Y19193D01*
X46720Y20768D02*Y19193D01*
X44161Y20768D02*Y19193D01*
X39732Y16339D02*X41307D01*
X39732Y13780D02*X41307D01*
X39732Y11220D02*X41307D01*
X39732Y8661D02*X41307D01*
X44161Y5807D02*Y4232D01*
X46720Y5807D02*Y4232D01*
X49280Y5807D02*Y4232D01*
X51839Y5807D02*Y4232D01*
G54D11*G36*
X44063Y16437D02*Y8563D01*
X51937D01*
Y16437D01*
X44063D01*
G37*
G36*
X43276Y17224D02*Y7776D01*
X52724D01*
Y17224D01*
X43276D01*
G37*
G54D21*X25500Y18500D03*
Y10000D03*
X28500D03*
Y18500D03*
X84000Y20500D03*
X80500D03*
Y4500D03*
X84000D03*
G54D22*M02*
