G04 start of page 8 for group -4079 idx -4079 *
G04 Title: (unknown), topsilk *
G04 Creator: pcb 20140316 *
G04 CreationDate: Wed 28 Nov 2018 04:35:58 PM GMT UTC *
G04 For: railfan *
G04 Format: Gerber/RS-274X *
G04 PCB-Dimensions (mil): 880.00 250.00 *
G04 PCB-Coordinate-Origin: lower left *
%MOIN*%
%FSLAX25Y25*%
%LNTOPSILK*%
%ADD37C,0.0080*%
%ADD36C,0.0100*%
G54D36*X79745Y12893D02*Y12107D01*
X85255Y12893D02*Y12107D01*
X30245Y12893D02*Y12107D01*
X35755Y12893D02*Y12107D01*
X62610Y17421D02*X76390D01*
Y7579D01*
X62610D01*
Y17421D01*
X60610Y18921D02*G75*G03X60610Y18921I500J0D01*G01*
X38157Y2657D02*X57843D01*
X38157Y22343D02*Y2657D01*
Y22343D02*X57843D01*
Y2657D01*
X60500Y2500D02*G75*G03X60500Y2500I-500J0D01*G01*
G54D37*X73937Y19107D02*X75107D01*
X73307Y19737D02*X73937Y19107D01*
X73307Y22077D02*Y19737D01*
Y22077D02*X73937Y22707D01*
X75107D01*
X76187Y22257D02*X76637Y22707D01*
X77987D01*
X78437Y22257D01*
Y21357D01*
X76187Y19107D02*X78437Y21357D01*
X76187Y19107D02*X78437D01*
X31630Y20000D02*X32800D01*
X31000Y20630D02*X31630Y20000D01*
X31000Y22970D02*Y20630D01*
Y22970D02*X31630Y23600D01*
X32800D01*
X33880Y22880D02*X34600Y23600D01*
Y20000D01*
X33880D02*X35230D01*
X66976Y5744D02*Y2244D01*
X67476Y1744D01*
X68476D01*
X68976Y2244D01*
Y5744D02*Y2244D01*
X70176Y5244D02*X70676Y5744D01*
X72176D01*
X72676Y5244D01*
Y4244D01*
X70176Y1744D02*X72676Y4244D01*
X70176Y1744D02*X72676D01*
X9000Y14300D02*Y13500D01*
X5500D02*X9000D01*
X5000Y14000D02*X5500Y13500D01*
X5000Y14500D02*Y14000D01*
X5500Y15000D02*X5000Y14500D01*
X5500Y15000D02*X6000D01*
X8200Y12300D02*X9000Y11500D01*
X5000D02*X9000D01*
X5000Y12300D02*Y10800D01*
X32500Y5100D02*Y1950D01*
X32950Y1500D01*
X33850D01*
X34300Y1950D01*
Y5100D02*Y1950D01*
X35380Y4380D02*X36100Y5100D01*
Y1500D01*
X35380D02*X36730D01*
M02*
