G04 start of page 9 for group -4078 idx -4078 *
G04 Title: (unknown), bottomsilk *
G04 Creator: pcb 20140316 *
G04 CreationDate: Wed 28 Nov 2018 04:35:58 PM GMT UTC *
G04 For: railfan *
G04 Format: Gerber/RS-274X *
G04 PCB-Dimensions (mil): 880.00 250.00 *
G04 PCB-Coordinate-Origin: lower left *
%MOIN*%
%FSLAX25Y25*%
%LNBOTTOMSILK*%
%ADD38C,0.0080*%
G54D38*X2500Y2500D02*X3500D01*
X3000D02*Y6500D01*
X2500D02*X3500D01*
X4700Y3000D02*X5200Y2500D01*
X6700D01*
X7200Y3000D01*
Y4000D01*
X4700Y6500D02*X7200Y4000D01*
X4700Y6500D02*X7200D01*
X9100D02*X10400D01*
X8400Y5800D02*X9100Y6500D01*
X8400Y3200D02*Y5800D01*
Y3200D02*X9100Y2500D01*
X10400D01*
X11600Y4500D02*X13600D01*
X14800Y2500D02*Y4500D01*
X15300Y6500D01*
X16300Y4500D01*
X17300Y6500D01*
X17800Y4500D01*
Y2500D02*Y4500D01*
X19000Y6500D02*X21500Y2500D01*
X19000D02*X21500Y6500D01*
X24700Y2500D02*X25200Y3000D01*
X23200Y2500D02*X24700D01*
X22700Y3000D02*X23200Y2500D01*
X22700Y3000D02*Y4000D01*
X23200Y4500D01*
X24700D01*
X25200Y5000D01*
Y6000D01*
X24700Y6500D02*X25200Y6000D01*
X23200Y6500D02*X24700D01*
X22700Y6000D02*X23200Y6500D01*
X26400Y2500D02*Y6500D01*
Y2500D02*X28900Y6500D01*
Y2500D02*Y6500D01*
X32100Y2500D02*X32600Y3000D01*
X30600Y2500D02*X32100D01*
X30100Y3000D02*X30600Y2500D01*
X30100Y3000D02*Y4000D01*
X30600Y4500D01*
X32100D01*
X32600Y5000D01*
Y6000D01*
X32100Y6500D02*X32600Y6000D01*
X30600Y6500D02*X32100D01*
X30100Y6000D02*X30600Y6500D01*
X37500Y10500D02*Y10600D01*
Y12000D02*Y13500D01*
X40000Y11500D02*X40500Y12000D01*
X39000Y11500D02*X40000D01*
X38500Y12000D02*X39000Y11500D01*
X38500Y12000D02*Y13000D01*
X39000Y13500D01*
X40500Y11500D02*Y13000D01*
X41000Y13500D01*
X39000D02*X40000D01*
X40500Y13000D01*
X42700Y13500D02*X44200D01*
X44700Y13000D01*
X44200Y12500D02*X44700Y13000D01*
X42700Y12500D02*X44200D01*
X42200Y12000D02*X42700Y12500D01*
X42200Y12000D02*X42700Y11500D01*
X44200D01*
X44700Y12000D01*
X42200Y13000D02*X42700Y13500D01*
X46400Y11500D02*X47900D01*
X45900Y12000D02*X46400Y11500D01*
X45900Y12000D02*Y13000D01*
X46400Y13500D01*
X47900D01*
X50600Y11500D02*X51100Y12000D01*
X49600Y11500D02*X50600D01*
X49100Y12000D02*X49600Y11500D01*
X49100Y12000D02*Y13000D01*
X49600Y13500D01*
X51100Y11500D02*Y13000D01*
X51600Y13500D01*
X49600D02*X50600D01*
X51100Y13000D01*
X52800Y9500D02*Y13000D01*
X53300Y13500D01*
X54800D02*X56300D01*
X54300Y13000D02*X54800Y13500D01*
X54300Y12000D02*Y13000D01*
Y12000D02*X54800Y11500D01*
X55800D01*
X56300Y12000D01*
X54300Y12500D02*X56300D01*
Y12000D02*Y12500D01*
X59500Y9500D02*Y13500D01*
X59000D02*X59500Y13000D01*
X58000Y13500D02*X59000D01*
X57500Y13000D02*X58000Y13500D01*
X57500Y12000D02*Y13000D01*
Y12000D02*X58000Y11500D01*
X59000D01*
X59500Y12000D01*
X60700Y13500D02*X61200D01*
X62900Y11500D02*X64400D01*
X62400Y12000D02*X62900Y11500D01*
X62400Y12000D02*Y13000D01*
X62900Y13500D01*
X64400D01*
X65600Y12000D02*Y13000D01*
Y12000D02*X66100Y11500D01*
X67100D01*
X67600Y12000D01*
Y13000D01*
X67100Y13500D02*X67600Y13000D01*
X66100Y13500D02*X67100D01*
X65600Y13000D02*X66100Y13500D01*
X69300Y12000D02*Y13500D01*
Y12000D02*X69800Y11500D01*
X70300D01*
X70800Y12000D01*
Y13500D01*
Y12000D02*X71300Y11500D01*
X71800D01*
X72300Y12000D01*
Y13500D01*
X68800Y11500D02*X69300Y12000D01*
X31700Y22500D02*X33000D01*
X31000Y21800D02*X31700Y22500D01*
X31000Y19200D02*Y21800D01*
Y19200D02*X31700Y18500D01*
X33000D01*
X34900Y22500D02*X36200D01*
X34200Y21800D02*X34900Y22500D01*
X34200Y19200D02*Y21800D01*
Y19200D02*X34900Y18500D01*
X36200D01*
X39200Y22500D02*X41200D01*
X41700Y22000D01*
Y20800D02*Y22000D01*
X41200Y20300D02*X41700Y20800D01*
X39700Y20300D02*X41200D01*
X39700Y18500D02*Y22500D01*
X39200Y18500D02*X41200D01*
X41700Y19000D01*
Y19800D01*
X41200Y20300D02*X41700Y19800D01*
X42900Y18500D02*X43900Y20500D01*
X44900Y18500D01*
X43900Y20500D02*Y22500D01*
X46100Y20500D02*X48100D01*
X51300Y18500D02*X51800Y19000D01*
X49800Y18500D02*X51300D01*
X49300Y19000D02*X49800Y18500D01*
X49300Y19000D02*Y20000D01*
X49800Y20500D01*
X51300D01*
X51800Y21000D01*
Y22000D01*
X51300Y22500D02*X51800Y22000D01*
X49800Y22500D02*X51300D01*
X49300Y22000D02*X49800Y22500D01*
X53000Y19500D02*Y22500D01*
Y19500D02*X53700Y18500D01*
X54800D01*
X55500Y19500D01*
Y22500D01*
X53000Y20500D02*X55500D01*
X58500Y22000D02*X59000Y22500D01*
X58500Y19000D02*X59000Y18500D01*
X58500Y19000D02*Y22000D01*
X60900Y22500D02*X62200D01*
X60200Y21800D02*X60900Y22500D01*
X60200Y19200D02*Y21800D01*
Y19200D02*X60900Y18500D01*
X62200D01*
X63400D02*X63900Y19000D01*
Y22000D01*
X63400Y22500D02*X63900Y22000D01*
X65100Y19000D02*X65600Y18500D01*
X67100D01*
X67600Y19000D01*
Y20000D01*
X65100Y22500D02*X67600Y20000D01*
X65100Y22500D02*X67600D01*
X68800Y22000D02*X69300Y22500D01*
X68800Y19000D02*Y22000D01*
Y19000D02*X69300Y18500D01*
X70300D01*
X70800Y19000D01*
Y22000D01*
X70300Y22500D02*X70800Y22000D01*
X69300Y22500D02*X70300D01*
X68800Y21500D02*X70800Y19500D01*
X72000Y19300D02*X72800Y18500D01*
Y22500D01*
X72000D02*X73500D01*
X74700Y22000D02*X75200Y22500D01*
X74700Y21200D02*Y22000D01*
Y21200D02*X75400Y20500D01*
X76000D01*
X76700Y21200D01*
Y22000D01*
X76200Y22500D02*X76700Y22000D01*
X75200Y22500D02*X76200D01*
X74700Y19800D02*X75400Y20500D01*
X74700Y19000D02*Y19800D01*
Y19000D02*X75200Y18500D01*
X76200D01*
X76700Y19000D01*
Y19800D01*
X76000Y20500D02*X76700Y19800D01*
X3000Y11000D02*X4000Y13000D01*
X5000Y11000D02*X4000Y13000D01*
X6200Y9500D02*X6700Y9000D01*
X8200D01*
X8700Y9500D01*
Y10500D01*
X6200Y13000D02*X8700Y10500D01*
X6200Y13000D02*X8700D01*
X9900D02*X10400D01*
X11600Y12500D02*X12100Y13000D01*
X11600Y9500D02*Y12500D01*
Y9500D02*X12100Y9000D01*
X13100D01*
X13600Y9500D01*
Y12500D01*
X13100Y13000D02*X13600Y12500D01*
X12100Y13000D02*X13100D01*
X11600Y12000D02*X13600Y10000D01*
M02*
