G04 start of page 6 for group -4063 idx -4063 *
G04 Title: (unknown), componentmask *
G04 Creator: pcb 20140316 *
G04 CreationDate: Wed 28 Nov 2018 04:35:58 PM GMT UTC *
G04 For: railfan *
G04 Format: Gerber/RS-274X *
G04 PCB-Dimensions (mil): 880.00 250.00 *
G04 PCB-Coordinate-Origin: lower left *
%MOIN*%
%FSLAX25Y25*%
%LNTOPMASK*%
%ADD35C,0.0001*%
%ADD34R,0.0178X0.0178*%
%ADD33R,0.0444X0.0444*%
%ADD32R,0.0296X0.0296*%
%ADD31R,0.0454X0.0454*%
%ADD30R,0.0414X0.0414*%
%ADD29R,0.0158X0.0158*%
%ADD28R,0.0572X0.0572*%
G54D28*X82107Y8957D02*X82893D01*
X82107Y16043D02*X82893D01*
G54D29*X73535Y9547D02*X74717D01*
X73535Y11516D02*X74717D01*
X73535Y13484D02*X74717D01*
X73535Y15453D02*X74717D01*
X64283D02*X65465D01*
X64283Y13484D02*X65465D01*
X64283Y11516D02*X65465D01*
X64283Y9547D02*X65465D01*
G54D30*X69500Y13878D02*Y11122D01*
G54D31*Y13878D02*Y11122D01*
G54D28*X32607Y8957D02*X33393D01*
X32607Y16043D02*X33393D01*
G54D32*X17130Y18406D02*X20870D01*
X17130Y14469D02*X20870D01*
X17130Y10531D02*X20870D01*
X17130Y6594D02*X20870D01*
G54D33*X2120Y1919D02*X5368D01*
X2120Y23081D02*X5368D01*
G54D34*X54693Y8661D02*X56268D01*
X54693Y11220D02*X56268D01*
X54693Y13780D02*X56268D01*
X54693Y16339D02*X56268D01*
X51839Y20768D02*Y19193D01*
X49280Y20768D02*Y19193D01*
X46720Y20768D02*Y19193D01*
X44161Y20768D02*Y19193D01*
X39732Y16339D02*X41307D01*
X39732Y13780D02*X41307D01*
X39732Y11220D02*X41307D01*
X39732Y8661D02*X41307D01*
X44161Y5807D02*Y4232D01*
X46720Y5807D02*Y4232D01*
X49280Y5807D02*Y4232D01*
X51839Y5807D02*Y4232D01*
G54D35*G36*
X42976Y17524D02*Y7476D01*
X53024D01*
Y17524D01*
X42976D01*
G37*
G36*
Y7476D01*
X53024D01*
Y17524D01*
X42976D01*
G37*
M02*
