G04 start of page 10 for group -4015 idx -4015 *
G04 Title: (unknown), toppaste *
G04 Creator: pcb 20140316 *
G04 CreationDate: Wed 28 Nov 2018 04:35:58 PM GMT UTC *
G04 For: railfan *
G04 Format: Gerber/RS-274X *
G04 PCB-Dimensions (mil): 880.00 250.00 *
G04 PCB-Coordinate-Origin: lower left *
%MOIN*%
%FSLAX25Y25*%
%LNTOPPASTE*%
%ADD45C,0.0001*%
%ADD44R,0.0118X0.0118*%
%ADD43R,0.0384X0.0384*%
%ADD42R,0.0236X0.0236*%
%ADD41R,0.0354X0.0354*%
%ADD40R,0.0098X0.0098*%
%ADD39R,0.0512X0.0512*%
G54D39*X82107Y8957D02*X82893D01*
X82107Y16043D02*X82893D01*
X32607Y8957D02*X33393D01*
X32607Y16043D02*X33393D01*
G54D40*X64283Y15453D02*X65465D01*
X64283Y13484D02*X65465D01*
X64283Y11516D02*X65465D01*
X64283Y9547D02*X65465D01*
X73535D02*X74717D01*
X73535Y11516D02*X74717D01*
X73535Y13484D02*X74717D01*
X73535Y15453D02*X74717D01*
G54D41*X69500Y13878D02*Y11122D01*
G54D42*X17130Y18406D02*X20870D01*
X17130Y14469D02*X20870D01*
X17130Y10531D02*X20870D01*
X17130Y6594D02*X20870D01*
G54D43*X2120Y1919D02*X5368D01*
X2120Y23081D02*X5368D01*
G54D44*X54693Y8661D02*X56268D01*
X54693Y11220D02*X56268D01*
X54693Y13780D02*X56268D01*
X54693Y16339D02*X56268D01*
X51839Y20768D02*Y19193D01*
X49280Y20768D02*Y19193D01*
X46720Y20768D02*Y19193D01*
X44161Y20768D02*Y19193D01*
X39732Y16339D02*X41307D01*
X39732Y13780D02*X41307D01*
X39732Y11220D02*X41307D01*
X39732Y8661D02*X41307D01*
X44161Y5807D02*Y4232D01*
X46720Y5807D02*Y4232D01*
X49280Y5807D02*Y4232D01*
X51839Y5807D02*Y4232D01*
G54D45*G36*
X44063Y16437D02*Y8563D01*
X51937D01*
Y16437D01*
X44063D01*
G37*
M02*
