G04 #@! TF.GenerationSoftware,KiCad,Pcbnew,6.0.2+dfsg-1*
G04 #@! TF.CreationDate,2023-06-21T21:46:00-06:00*
G04 #@! TF.ProjectId,i2c-wxsns-array,6932632d-7778-4736-9e73-2d6172726179,rev?*
G04 #@! TF.SameCoordinates,Original*
G04 #@! TF.FileFunction,Soldermask,Top*
G04 #@! TF.FilePolarity,Negative*
%FSLAX46Y46*%
G04 Gerber Fmt 4.6, Leading zero omitted, Abs format (unit mm)*
G04 Created by KiCad (PCBNEW 6.0.2+dfsg-1) date 2023-06-21 21:46:00*
%MOMM*%
%LPD*%
G01*
G04 APERTURE LIST*
%ADD10C,2.000000*%
G04 APERTURE END LIST*
G36*
G01*
X49192800Y-25547000D02*
X49192800Y-25297000D01*
G75*
G02*
X49269000Y-25220800I76200J0D01*
G01*
X49819000Y-25220800D01*
G75*
G02*
X49895200Y-25297000I0J-76200D01*
G01*
X49895200Y-25547000D01*
G75*
G02*
X49819000Y-25623200I-76200J0D01*
G01*
X49269000Y-25623200D01*
G75*
G02*
X49192800Y-25547000I0J76200D01*
G01*
G37*
G36*
G01*
X49192800Y-26047000D02*
X49192800Y-25797000D01*
G75*
G02*
X49269000Y-25720800I76200J0D01*
G01*
X49819000Y-25720800D01*
G75*
G02*
X49895200Y-25797000I0J-76200D01*
G01*
X49895200Y-26047000D01*
G75*
G02*
X49819000Y-26123200I-76200J0D01*
G01*
X49269000Y-26123200D01*
G75*
G02*
X49192800Y-26047000I0J76200D01*
G01*
G37*
G36*
G01*
X49192800Y-26547000D02*
X49192800Y-26297000D01*
G75*
G02*
X49269000Y-26220800I76200J0D01*
G01*
X49819000Y-26220800D01*
G75*
G02*
X49895200Y-26297000I0J-76200D01*
G01*
X49895200Y-26547000D01*
G75*
G02*
X49819000Y-26623200I-76200J0D01*
G01*
X49269000Y-26623200D01*
G75*
G02*
X49192800Y-26547000I0J76200D01*
G01*
G37*
G36*
G01*
X49895200Y-26797000D02*
X49895200Y-27047000D01*
G75*
G02*
X49819000Y-27123200I-76200J0D01*
G01*
X49269000Y-27123200D01*
G75*
G02*
X49192800Y-27047000I0J76200D01*
G01*
X49192800Y-26797000D01*
G75*
G02*
X49269000Y-26720800I76200J0D01*
G01*
X49819000Y-26720800D01*
G75*
G02*
X49895200Y-26797000I0J-76200D01*
G01*
G37*
G36*
G01*
X51542800Y-27047000D02*
X51542800Y-26797000D01*
G75*
G02*
X51619000Y-26720800I76200J0D01*
G01*
X52169000Y-26720800D01*
G75*
G02*
X52245200Y-26797000I0J-76200D01*
G01*
X52245200Y-27047000D01*
G75*
G02*
X52169000Y-27123200I-76200J0D01*
G01*
X51619000Y-27123200D01*
G75*
G02*
X51542800Y-27047000I0J76200D01*
G01*
G37*
G36*
G01*
X51542800Y-26547000D02*
X51542800Y-26297000D01*
G75*
G02*
X51619000Y-26220800I76200J0D01*
G01*
X52169000Y-26220800D01*
G75*
G02*
X52245200Y-26297000I0J-76200D01*
G01*
X52245200Y-26547000D01*
G75*
G02*
X52169000Y-26623200I-76200J0D01*
G01*
X51619000Y-26623200D01*
G75*
G02*
X51542800Y-26547000I0J76200D01*
G01*
G37*
G36*
G01*
X51542800Y-26047000D02*
X51542800Y-25797000D01*
G75*
G02*
X51619000Y-25720800I76200J0D01*
G01*
X52169000Y-25720800D01*
G75*
G02*
X52245200Y-25797000I0J-76200D01*
G01*
X52245200Y-26047000D01*
G75*
G02*
X52169000Y-26123200I-76200J0D01*
G01*
X51619000Y-26123200D01*
G75*
G02*
X51542800Y-26047000I0J76200D01*
G01*
G37*
G36*
G01*
X51542800Y-25547000D02*
X51542800Y-25297000D01*
G75*
G02*
X51619000Y-25220800I76200J0D01*
G01*
X52169000Y-25220800D01*
G75*
G02*
X52245200Y-25297000I0J-76200D01*
G01*
X52245200Y-25547000D01*
G75*
G02*
X52169000Y-25623200I-76200J0D01*
G01*
X51619000Y-25623200D01*
G75*
G02*
X51542800Y-25547000I0J76200D01*
G01*
G37*
G36*
X51267980Y-25263627D02*
G01*
X51294042Y-25308768D01*
X51295200Y-25322000D01*
X51295200Y-27022000D01*
X51277373Y-27070980D01*
X51232232Y-27097042D01*
X51219000Y-27098200D01*
X50219000Y-27098200D01*
X50170020Y-27080373D01*
X50143958Y-27035232D01*
X50142800Y-27022000D01*
X50142800Y-25622000D01*
X50160627Y-25573020D01*
X50165118Y-25568118D01*
X50465118Y-25268118D01*
X50512359Y-25246090D01*
X50519000Y-25245800D01*
X51219000Y-25245800D01*
X51267980Y-25263627D01*
G37*
D10*
X60720000Y-17540000D03*
G36*
G01*
X45966000Y-24299800D02*
X47216000Y-24299800D01*
G75*
G02*
X47442200Y-24526000I0J-226200D01*
G01*
X47442200Y-24826000D01*
G75*
G02*
X47216000Y-25052200I-226200J0D01*
G01*
X45966000Y-25052200D01*
G75*
G02*
X45739800Y-24826000I0J226200D01*
G01*
X45739800Y-24526000D01*
G75*
G02*
X45966000Y-24299800I226200J0D01*
G01*
G37*
G36*
G01*
X45966000Y-25299800D02*
X47216000Y-25299800D01*
G75*
G02*
X47442200Y-25526000I0J-226200D01*
G01*
X47442200Y-25826000D01*
G75*
G02*
X47216000Y-26052200I-226200J0D01*
G01*
X45966000Y-26052200D01*
G75*
G02*
X45739800Y-25826000I0J226200D01*
G01*
X45739800Y-25526000D01*
G75*
G02*
X45966000Y-25299800I226200J0D01*
G01*
G37*
G36*
G01*
X45966000Y-26299800D02*
X47216000Y-26299800D01*
G75*
G02*
X47442200Y-26526000I0J-226200D01*
G01*
X47442200Y-26826000D01*
G75*
G02*
X47216000Y-27052200I-226200J0D01*
G01*
X45966000Y-27052200D01*
G75*
G02*
X45739800Y-26826000I0J226200D01*
G01*
X45739800Y-26526000D01*
G75*
G02*
X45966000Y-26299800I226200J0D01*
G01*
G37*
G36*
G01*
X45966000Y-27299800D02*
X47216000Y-27299800D01*
G75*
G02*
X47442200Y-27526000I0J-226200D01*
G01*
X47442200Y-27826000D01*
G75*
G02*
X47216000Y-28052200I-226200J0D01*
G01*
X45966000Y-28052200D01*
G75*
G02*
X45739800Y-27826000I0J226200D01*
G01*
X45739800Y-27526000D01*
G75*
G02*
X45966000Y-27299800I226200J0D01*
G01*
G37*
G36*
G01*
X42066000Y-28299800D02*
X43366000Y-28299800D01*
G75*
G02*
X43692200Y-28626000I0J-326200D01*
G01*
X43692200Y-29326000D01*
G75*
G02*
X43366000Y-29652200I-326200J0D01*
G01*
X42066000Y-29652200D01*
G75*
G02*
X41739800Y-29326000I0J326200D01*
G01*
X41739800Y-28626000D01*
G75*
G02*
X42066000Y-28299800I326200J0D01*
G01*
G37*
G36*
G01*
X42066000Y-22699800D02*
X43366000Y-22699800D01*
G75*
G02*
X43692200Y-23026000I0J-326200D01*
G01*
X43692200Y-23726000D01*
G75*
G02*
X43366000Y-24052200I-326200J0D01*
G01*
X42066000Y-24052200D01*
G75*
G02*
X41739800Y-23726000I0J326200D01*
G01*
X41739800Y-23026000D01*
G75*
G02*
X42066000Y-22699800I326200J0D01*
G01*
G37*
G36*
G01*
X57890250Y-46627200D02*
X57677750Y-46627200D01*
G75*
G02*
X57507800Y-46457250I0J169950D01*
G01*
X57507800Y-46269750D01*
G75*
G02*
X57677750Y-46099800I169950J0D01*
G01*
X57890250Y-46099800D01*
G75*
G02*
X58060200Y-46269750I0J-169950D01*
G01*
X58060200Y-46457250D01*
G75*
G02*
X57890250Y-46627200I-169950J0D01*
G01*
G37*
G36*
G01*
X58540250Y-46627200D02*
X58327750Y-46627200D01*
G75*
G02*
X58157800Y-46457250I0J169950D01*
G01*
X58157800Y-46269750D01*
G75*
G02*
X58327750Y-46099800I169950J0D01*
G01*
X58540250Y-46099800D01*
G75*
G02*
X58710200Y-46269750I0J-169950D01*
G01*
X58710200Y-46457250D01*
G75*
G02*
X58540250Y-46627200I-169950J0D01*
G01*
G37*
G36*
G01*
X59190250Y-46627200D02*
X58977750Y-46627200D01*
G75*
G02*
X58807800Y-46457250I0J169950D01*
G01*
X58807800Y-46269750D01*
G75*
G02*
X58977750Y-46099800I169950J0D01*
G01*
X59190250Y-46099800D01*
G75*
G02*
X59360200Y-46269750I0J-169950D01*
G01*
X59360200Y-46457250D01*
G75*
G02*
X59190250Y-46627200I-169950J0D01*
G01*
G37*
G36*
G01*
X59190250Y-44852200D02*
X58977750Y-44852200D01*
G75*
G02*
X58807800Y-44682250I0J169950D01*
G01*
X58807800Y-44494750D01*
G75*
G02*
X58977750Y-44324800I169950J0D01*
G01*
X59190250Y-44324800D01*
G75*
G02*
X59360200Y-44494750I0J-169950D01*
G01*
X59360200Y-44682250D01*
G75*
G02*
X59190250Y-44852200I-169950J0D01*
G01*
G37*
G36*
G01*
X58540250Y-44852200D02*
X58327750Y-44852200D01*
G75*
G02*
X58157800Y-44682250I0J169950D01*
G01*
X58157800Y-44494750D01*
G75*
G02*
X58327750Y-44324800I169950J0D01*
G01*
X58540250Y-44324800D01*
G75*
G02*
X58710200Y-44494750I0J-169950D01*
G01*
X58710200Y-44682250D01*
G75*
G02*
X58540250Y-44852200I-169950J0D01*
G01*
G37*
G36*
G01*
X57890250Y-44852200D02*
X57677750Y-44852200D01*
G75*
G02*
X57507800Y-44682250I0J169950D01*
G01*
X57507800Y-44494750D01*
G75*
G02*
X57677750Y-44324800I169950J0D01*
G01*
X57890250Y-44324800D01*
G75*
G02*
X58060200Y-44494750I0J-169950D01*
G01*
X58060200Y-44682250D01*
G75*
G02*
X57890250Y-44852200I-169950J0D01*
G01*
G37*
G36*
G01*
X59234000Y-46052200D02*
X57634000Y-46052200D01*
G75*
G02*
X57557800Y-45976000I0J76200D01*
G01*
X57557800Y-44976000D01*
G75*
G02*
X57634000Y-44899800I76200J0D01*
G01*
X59234000Y-44899800D01*
G75*
G02*
X59310200Y-44976000I0J-76200D01*
G01*
X59310200Y-45976000D01*
G75*
G02*
X59234000Y-46052200I-76200J0D01*
G01*
G37*
G36*
G01*
X49192800Y-44851000D02*
X49192800Y-44601000D01*
G75*
G02*
X49269000Y-44524800I76200J0D01*
G01*
X49819000Y-44524800D01*
G75*
G02*
X49895200Y-44601000I0J-76200D01*
G01*
X49895200Y-44851000D01*
G75*
G02*
X49819000Y-44927200I-76200J0D01*
G01*
X49269000Y-44927200D01*
G75*
G02*
X49192800Y-44851000I0J76200D01*
G01*
G37*
G36*
G01*
X49192800Y-45351000D02*
X49192800Y-45101000D01*
G75*
G02*
X49269000Y-45024800I76200J0D01*
G01*
X49819000Y-45024800D01*
G75*
G02*
X49895200Y-45101000I0J-76200D01*
G01*
X49895200Y-45351000D01*
G75*
G02*
X49819000Y-45427200I-76200J0D01*
G01*
X49269000Y-45427200D01*
G75*
G02*
X49192800Y-45351000I0J76200D01*
G01*
G37*
G36*
G01*
X49192800Y-45851000D02*
X49192800Y-45601000D01*
G75*
G02*
X49269000Y-45524800I76200J0D01*
G01*
X49819000Y-45524800D01*
G75*
G02*
X49895200Y-45601000I0J-76200D01*
G01*
X49895200Y-45851000D01*
G75*
G02*
X49819000Y-45927200I-76200J0D01*
G01*
X49269000Y-45927200D01*
G75*
G02*
X49192800Y-45851000I0J76200D01*
G01*
G37*
G36*
G01*
X49895200Y-46101000D02*
X49895200Y-46351000D01*
G75*
G02*
X49819000Y-46427200I-76200J0D01*
G01*
X49269000Y-46427200D01*
G75*
G02*
X49192800Y-46351000I0J76200D01*
G01*
X49192800Y-46101000D01*
G75*
G02*
X49269000Y-46024800I76200J0D01*
G01*
X49819000Y-46024800D01*
G75*
G02*
X49895200Y-46101000I0J-76200D01*
G01*
G37*
G36*
G01*
X51542800Y-46351000D02*
X51542800Y-46101000D01*
G75*
G02*
X51619000Y-46024800I76200J0D01*
G01*
X52169000Y-46024800D01*
G75*
G02*
X52245200Y-46101000I0J-76200D01*
G01*
X52245200Y-46351000D01*
G75*
G02*
X52169000Y-46427200I-76200J0D01*
G01*
X51619000Y-46427200D01*
G75*
G02*
X51542800Y-46351000I0J76200D01*
G01*
G37*
G36*
G01*
X51542800Y-45851000D02*
X51542800Y-45601000D01*
G75*
G02*
X51619000Y-45524800I76200J0D01*
G01*
X52169000Y-45524800D01*
G75*
G02*
X52245200Y-45601000I0J-76200D01*
G01*
X52245200Y-45851000D01*
G75*
G02*
X52169000Y-45927200I-76200J0D01*
G01*
X51619000Y-45927200D01*
G75*
G02*
X51542800Y-45851000I0J76200D01*
G01*
G37*
G36*
G01*
X51542800Y-45351000D02*
X51542800Y-45101000D01*
G75*
G02*
X51619000Y-45024800I76200J0D01*
G01*
X52169000Y-45024800D01*
G75*
G02*
X52245200Y-45101000I0J-76200D01*
G01*
X52245200Y-45351000D01*
G75*
G02*
X52169000Y-45427200I-76200J0D01*
G01*
X51619000Y-45427200D01*
G75*
G02*
X51542800Y-45351000I0J76200D01*
G01*
G37*
G36*
G01*
X51542800Y-44851000D02*
X51542800Y-44601000D01*
G75*
G02*
X51619000Y-44524800I76200J0D01*
G01*
X52169000Y-44524800D01*
G75*
G02*
X52245200Y-44601000I0J-76200D01*
G01*
X52245200Y-44851000D01*
G75*
G02*
X52169000Y-44927200I-76200J0D01*
G01*
X51619000Y-44927200D01*
G75*
G02*
X51542800Y-44851000I0J76200D01*
G01*
G37*
G36*
X51267980Y-44567627D02*
G01*
X51294042Y-44612768D01*
X51295200Y-44626000D01*
X51295200Y-46326000D01*
X51277373Y-46374980D01*
X51232232Y-46401042D01*
X51219000Y-46402200D01*
X50219000Y-46402200D01*
X50170020Y-46384373D01*
X50143958Y-46339232D01*
X50142800Y-46326000D01*
X50142800Y-44926000D01*
X50160627Y-44877020D01*
X50165118Y-44872118D01*
X50465118Y-44572118D01*
X50512359Y-44550090D01*
X50519000Y-44549800D01*
X51219000Y-44549800D01*
X51267980Y-44567627D01*
G37*
G36*
G01*
X57890250Y-27323200D02*
X57677750Y-27323200D01*
G75*
G02*
X57507800Y-27153250I0J169950D01*
G01*
X57507800Y-26965750D01*
G75*
G02*
X57677750Y-26795800I169950J0D01*
G01*
X57890250Y-26795800D01*
G75*
G02*
X58060200Y-26965750I0J-169950D01*
G01*
X58060200Y-27153250D01*
G75*
G02*
X57890250Y-27323200I-169950J0D01*
G01*
G37*
G36*
G01*
X58540250Y-27323200D02*
X58327750Y-27323200D01*
G75*
G02*
X58157800Y-27153250I0J169950D01*
G01*
X58157800Y-26965750D01*
G75*
G02*
X58327750Y-26795800I169950J0D01*
G01*
X58540250Y-26795800D01*
G75*
G02*
X58710200Y-26965750I0J-169950D01*
G01*
X58710200Y-27153250D01*
G75*
G02*
X58540250Y-27323200I-169950J0D01*
G01*
G37*
G36*
G01*
X59190250Y-27323200D02*
X58977750Y-27323200D01*
G75*
G02*
X58807800Y-27153250I0J169950D01*
G01*
X58807800Y-26965750D01*
G75*
G02*
X58977750Y-26795800I169950J0D01*
G01*
X59190250Y-26795800D01*
G75*
G02*
X59360200Y-26965750I0J-169950D01*
G01*
X59360200Y-27153250D01*
G75*
G02*
X59190250Y-27323200I-169950J0D01*
G01*
G37*
G36*
G01*
X59190250Y-25548200D02*
X58977750Y-25548200D01*
G75*
G02*
X58807800Y-25378250I0J169950D01*
G01*
X58807800Y-25190750D01*
G75*
G02*
X58977750Y-25020800I169950J0D01*
G01*
X59190250Y-25020800D01*
G75*
G02*
X59360200Y-25190750I0J-169950D01*
G01*
X59360200Y-25378250D01*
G75*
G02*
X59190250Y-25548200I-169950J0D01*
G01*
G37*
G36*
G01*
X58540250Y-25548200D02*
X58327750Y-25548200D01*
G75*
G02*
X58157800Y-25378250I0J169950D01*
G01*
X58157800Y-25190750D01*
G75*
G02*
X58327750Y-25020800I169950J0D01*
G01*
X58540250Y-25020800D01*
G75*
G02*
X58710200Y-25190750I0J-169950D01*
G01*
X58710200Y-25378250D01*
G75*
G02*
X58540250Y-25548200I-169950J0D01*
G01*
G37*
G36*
G01*
X57890250Y-25548200D02*
X57677750Y-25548200D01*
G75*
G02*
X57507800Y-25378250I0J169950D01*
G01*
X57507800Y-25190750D01*
G75*
G02*
X57677750Y-25020800I169950J0D01*
G01*
X57890250Y-25020800D01*
G75*
G02*
X58060200Y-25190750I0J-169950D01*
G01*
X58060200Y-25378250D01*
G75*
G02*
X57890250Y-25548200I-169950J0D01*
G01*
G37*
G36*
G01*
X59234000Y-26748200D02*
X57634000Y-26748200D01*
G75*
G02*
X57557800Y-26672000I0J76200D01*
G01*
X57557800Y-25672000D01*
G75*
G02*
X57634000Y-25595800I76200J0D01*
G01*
X59234000Y-25595800D01*
G75*
G02*
X59310200Y-25672000I0J-76200D01*
G01*
X59310200Y-26672000D01*
G75*
G02*
X59234000Y-26748200I-76200J0D01*
G01*
G37*
G36*
G01*
X54972000Y-27698200D02*
X54022000Y-27698200D01*
G75*
G02*
X53695800Y-27372000I0J326200D01*
G01*
X53695800Y-26872000D01*
G75*
G02*
X54022000Y-26545800I326200J0D01*
G01*
X54972000Y-26545800D01*
G75*
G02*
X55298200Y-26872000I0J-326200D01*
G01*
X55298200Y-27372000D01*
G75*
G02*
X54972000Y-27698200I-326200J0D01*
G01*
G37*
G36*
G01*
X54972000Y-25798200D02*
X54022000Y-25798200D01*
G75*
G02*
X53695800Y-25472000I0J326200D01*
G01*
X53695800Y-24972000D01*
G75*
G02*
X54022000Y-24645800I326200J0D01*
G01*
X54972000Y-24645800D01*
G75*
G02*
X55298200Y-24972000I0J-326200D01*
G01*
X55298200Y-25472000D01*
G75*
G02*
X54972000Y-25798200I-326200J0D01*
G01*
G37*
G36*
G01*
X57890250Y-36975200D02*
X57677750Y-36975200D01*
G75*
G02*
X57507800Y-36805250I0J169950D01*
G01*
X57507800Y-36617750D01*
G75*
G02*
X57677750Y-36447800I169950J0D01*
G01*
X57890250Y-36447800D01*
G75*
G02*
X58060200Y-36617750I0J-169950D01*
G01*
X58060200Y-36805250D01*
G75*
G02*
X57890250Y-36975200I-169950J0D01*
G01*
G37*
G36*
G01*
X58540250Y-36975200D02*
X58327750Y-36975200D01*
G75*
G02*
X58157800Y-36805250I0J169950D01*
G01*
X58157800Y-36617750D01*
G75*
G02*
X58327750Y-36447800I169950J0D01*
G01*
X58540250Y-36447800D01*
G75*
G02*
X58710200Y-36617750I0J-169950D01*
G01*
X58710200Y-36805250D01*
G75*
G02*
X58540250Y-36975200I-169950J0D01*
G01*
G37*
G36*
G01*
X59190250Y-36975200D02*
X58977750Y-36975200D01*
G75*
G02*
X58807800Y-36805250I0J169950D01*
G01*
X58807800Y-36617750D01*
G75*
G02*
X58977750Y-36447800I169950J0D01*
G01*
X59190250Y-36447800D01*
G75*
G02*
X59360200Y-36617750I0J-169950D01*
G01*
X59360200Y-36805250D01*
G75*
G02*
X59190250Y-36975200I-169950J0D01*
G01*
G37*
G36*
G01*
X59190250Y-35200200D02*
X58977750Y-35200200D01*
G75*
G02*
X58807800Y-35030250I0J169950D01*
G01*
X58807800Y-34842750D01*
G75*
G02*
X58977750Y-34672800I169950J0D01*
G01*
X59190250Y-34672800D01*
G75*
G02*
X59360200Y-34842750I0J-169950D01*
G01*
X59360200Y-35030250D01*
G75*
G02*
X59190250Y-35200200I-169950J0D01*
G01*
G37*
G36*
G01*
X58540250Y-35200200D02*
X58327750Y-35200200D01*
G75*
G02*
X58157800Y-35030250I0J169950D01*
G01*
X58157800Y-34842750D01*
G75*
G02*
X58327750Y-34672800I169950J0D01*
G01*
X58540250Y-34672800D01*
G75*
G02*
X58710200Y-34842750I0J-169950D01*
G01*
X58710200Y-35030250D01*
G75*
G02*
X58540250Y-35200200I-169950J0D01*
G01*
G37*
G36*
G01*
X57890250Y-35200200D02*
X57677750Y-35200200D01*
G75*
G02*
X57507800Y-35030250I0J169950D01*
G01*
X57507800Y-34842750D01*
G75*
G02*
X57677750Y-34672800I169950J0D01*
G01*
X57890250Y-34672800D01*
G75*
G02*
X58060200Y-34842750I0J-169950D01*
G01*
X58060200Y-35030250D01*
G75*
G02*
X57890250Y-35200200I-169950J0D01*
G01*
G37*
G36*
G01*
X59234000Y-36400200D02*
X57634000Y-36400200D01*
G75*
G02*
X57557800Y-36324000I0J76200D01*
G01*
X57557800Y-35324000D01*
G75*
G02*
X57634000Y-35247800I76200J0D01*
G01*
X59234000Y-35247800D01*
G75*
G02*
X59310200Y-35324000I0J-76200D01*
G01*
X59310200Y-36324000D01*
G75*
G02*
X59234000Y-36400200I-76200J0D01*
G01*
G37*
G36*
G01*
X54972000Y-37350200D02*
X54022000Y-37350200D01*
G75*
G02*
X53695800Y-37024000I0J326200D01*
G01*
X53695800Y-36524000D01*
G75*
G02*
X54022000Y-36197800I326200J0D01*
G01*
X54972000Y-36197800D01*
G75*
G02*
X55298200Y-36524000I0J-326200D01*
G01*
X55298200Y-37024000D01*
G75*
G02*
X54972000Y-37350200I-326200J0D01*
G01*
G37*
G36*
G01*
X54972000Y-35450200D02*
X54022000Y-35450200D01*
G75*
G02*
X53695800Y-35124000I0J326200D01*
G01*
X53695800Y-34624000D01*
G75*
G02*
X54022000Y-34297800I326200J0D01*
G01*
X54972000Y-34297800D01*
G75*
G02*
X55298200Y-34624000I0J-326200D01*
G01*
X55298200Y-35124000D01*
G75*
G02*
X54972000Y-35450200I-326200J0D01*
G01*
G37*
G36*
G01*
X45966000Y-43603800D02*
X47216000Y-43603800D01*
G75*
G02*
X47442200Y-43830000I0J-226200D01*
G01*
X47442200Y-44130000D01*
G75*
G02*
X47216000Y-44356200I-226200J0D01*
G01*
X45966000Y-44356200D01*
G75*
G02*
X45739800Y-44130000I0J226200D01*
G01*
X45739800Y-43830000D01*
G75*
G02*
X45966000Y-43603800I226200J0D01*
G01*
G37*
G36*
G01*
X45966000Y-44603800D02*
X47216000Y-44603800D01*
G75*
G02*
X47442200Y-44830000I0J-226200D01*
G01*
X47442200Y-45130000D01*
G75*
G02*
X47216000Y-45356200I-226200J0D01*
G01*
X45966000Y-45356200D01*
G75*
G02*
X45739800Y-45130000I0J226200D01*
G01*
X45739800Y-44830000D01*
G75*
G02*
X45966000Y-44603800I226200J0D01*
G01*
G37*
G36*
G01*
X45966000Y-45603800D02*
X47216000Y-45603800D01*
G75*
G02*
X47442200Y-45830000I0J-226200D01*
G01*
X47442200Y-46130000D01*
G75*
G02*
X47216000Y-46356200I-226200J0D01*
G01*
X45966000Y-46356200D01*
G75*
G02*
X45739800Y-46130000I0J226200D01*
G01*
X45739800Y-45830000D01*
G75*
G02*
X45966000Y-45603800I226200J0D01*
G01*
G37*
G36*
G01*
X45966000Y-46603800D02*
X47216000Y-46603800D01*
G75*
G02*
X47442200Y-46830000I0J-226200D01*
G01*
X47442200Y-47130000D01*
G75*
G02*
X47216000Y-47356200I-226200J0D01*
G01*
X45966000Y-47356200D01*
G75*
G02*
X45739800Y-47130000I0J226200D01*
G01*
X45739800Y-46830000D01*
G75*
G02*
X45966000Y-46603800I226200J0D01*
G01*
G37*
G36*
G01*
X42066000Y-42003800D02*
X43366000Y-42003800D01*
G75*
G02*
X43692200Y-42330000I0J-326200D01*
G01*
X43692200Y-43030000D01*
G75*
G02*
X43366000Y-43356200I-326200J0D01*
G01*
X42066000Y-43356200D01*
G75*
G02*
X41739800Y-43030000I0J326200D01*
G01*
X41739800Y-42330000D01*
G75*
G02*
X42066000Y-42003800I326200J0D01*
G01*
G37*
G36*
G01*
X42066000Y-47603800D02*
X43366000Y-47603800D01*
G75*
G02*
X43692200Y-47930000I0J-326200D01*
G01*
X43692200Y-48630000D01*
G75*
G02*
X43366000Y-48956200I-326200J0D01*
G01*
X42066000Y-48956200D01*
G75*
G02*
X41739800Y-48630000I0J326200D01*
G01*
X41739800Y-47930000D01*
G75*
G02*
X42066000Y-47603800I326200J0D01*
G01*
G37*
X22620000Y-54116000D03*
G36*
G01*
X45966000Y-33951800D02*
X47216000Y-33951800D01*
G75*
G02*
X47442200Y-34178000I0J-226200D01*
G01*
X47442200Y-34478000D01*
G75*
G02*
X47216000Y-34704200I-226200J0D01*
G01*
X45966000Y-34704200D01*
G75*
G02*
X45739800Y-34478000I0J226200D01*
G01*
X45739800Y-34178000D01*
G75*
G02*
X45966000Y-33951800I226200J0D01*
G01*
G37*
G36*
G01*
X45966000Y-34951800D02*
X47216000Y-34951800D01*
G75*
G02*
X47442200Y-35178000I0J-226200D01*
G01*
X47442200Y-35478000D01*
G75*
G02*
X47216000Y-35704200I-226200J0D01*
G01*
X45966000Y-35704200D01*
G75*
G02*
X45739800Y-35478000I0J226200D01*
G01*
X45739800Y-35178000D01*
G75*
G02*
X45966000Y-34951800I226200J0D01*
G01*
G37*
G36*
G01*
X45966000Y-35951800D02*
X47216000Y-35951800D01*
G75*
G02*
X47442200Y-36178000I0J-226200D01*
G01*
X47442200Y-36478000D01*
G75*
G02*
X47216000Y-36704200I-226200J0D01*
G01*
X45966000Y-36704200D01*
G75*
G02*
X45739800Y-36478000I0J226200D01*
G01*
X45739800Y-36178000D01*
G75*
G02*
X45966000Y-35951800I226200J0D01*
G01*
G37*
G36*
G01*
X45966000Y-36951800D02*
X47216000Y-36951800D01*
G75*
G02*
X47442200Y-37178000I0J-226200D01*
G01*
X47442200Y-37478000D01*
G75*
G02*
X47216000Y-37704200I-226200J0D01*
G01*
X45966000Y-37704200D01*
G75*
G02*
X45739800Y-37478000I0J226200D01*
G01*
X45739800Y-37178000D01*
G75*
G02*
X45966000Y-36951800I226200J0D01*
G01*
G37*
G36*
G01*
X42066000Y-37951800D02*
X43366000Y-37951800D01*
G75*
G02*
X43692200Y-38278000I0J-326200D01*
G01*
X43692200Y-38978000D01*
G75*
G02*
X43366000Y-39304200I-326200J0D01*
G01*
X42066000Y-39304200D01*
G75*
G02*
X41739800Y-38978000I0J326200D01*
G01*
X41739800Y-38278000D01*
G75*
G02*
X42066000Y-37951800I326200J0D01*
G01*
G37*
G36*
G01*
X42066000Y-32351800D02*
X43366000Y-32351800D01*
G75*
G02*
X43692200Y-32678000I0J-326200D01*
G01*
X43692200Y-33378000D01*
G75*
G02*
X43366000Y-33704200I-326200J0D01*
G01*
X42066000Y-33704200D01*
G75*
G02*
X41739800Y-33378000I0J326200D01*
G01*
X41739800Y-32678000D01*
G75*
G02*
X42066000Y-32351800I326200J0D01*
G01*
G37*
X22620000Y-17540000D03*
G36*
G01*
X54972000Y-47002200D02*
X54022000Y-47002200D01*
G75*
G02*
X53695800Y-46676000I0J326200D01*
G01*
X53695800Y-46176000D01*
G75*
G02*
X54022000Y-45849800I326200J0D01*
G01*
X54972000Y-45849800D01*
G75*
G02*
X55298200Y-46176000I0J-326200D01*
G01*
X55298200Y-46676000D01*
G75*
G02*
X54972000Y-47002200I-326200J0D01*
G01*
G37*
G36*
G01*
X54972000Y-45102200D02*
X54022000Y-45102200D01*
G75*
G02*
X53695800Y-44776000I0J326200D01*
G01*
X53695800Y-44276000D01*
G75*
G02*
X54022000Y-43949800I326200J0D01*
G01*
X54972000Y-43949800D01*
G75*
G02*
X55298200Y-44276000I0J-326200D01*
G01*
X55298200Y-44776000D01*
G75*
G02*
X54972000Y-45102200I-326200J0D01*
G01*
G37*
G36*
G01*
X49192800Y-35199000D02*
X49192800Y-34949000D01*
G75*
G02*
X49269000Y-34872800I76200J0D01*
G01*
X49819000Y-34872800D01*
G75*
G02*
X49895200Y-34949000I0J-76200D01*
G01*
X49895200Y-35199000D01*
G75*
G02*
X49819000Y-35275200I-76200J0D01*
G01*
X49269000Y-35275200D01*
G75*
G02*
X49192800Y-35199000I0J76200D01*
G01*
G37*
G36*
G01*
X49192800Y-35699000D02*
X49192800Y-35449000D01*
G75*
G02*
X49269000Y-35372800I76200J0D01*
G01*
X49819000Y-35372800D01*
G75*
G02*
X49895200Y-35449000I0J-76200D01*
G01*
X49895200Y-35699000D01*
G75*
G02*
X49819000Y-35775200I-76200J0D01*
G01*
X49269000Y-35775200D01*
G75*
G02*
X49192800Y-35699000I0J76200D01*
G01*
G37*
G36*
G01*
X49192800Y-36199000D02*
X49192800Y-35949000D01*
G75*
G02*
X49269000Y-35872800I76200J0D01*
G01*
X49819000Y-35872800D01*
G75*
G02*
X49895200Y-35949000I0J-76200D01*
G01*
X49895200Y-36199000D01*
G75*
G02*
X49819000Y-36275200I-76200J0D01*
G01*
X49269000Y-36275200D01*
G75*
G02*
X49192800Y-36199000I0J76200D01*
G01*
G37*
G36*
G01*
X49895200Y-36449000D02*
X49895200Y-36699000D01*
G75*
G02*
X49819000Y-36775200I-76200J0D01*
G01*
X49269000Y-36775200D01*
G75*
G02*
X49192800Y-36699000I0J76200D01*
G01*
X49192800Y-36449000D01*
G75*
G02*
X49269000Y-36372800I76200J0D01*
G01*
X49819000Y-36372800D01*
G75*
G02*
X49895200Y-36449000I0J-76200D01*
G01*
G37*
G36*
G01*
X51542800Y-36699000D02*
X51542800Y-36449000D01*
G75*
G02*
X51619000Y-36372800I76200J0D01*
G01*
X52169000Y-36372800D01*
G75*
G02*
X52245200Y-36449000I0J-76200D01*
G01*
X52245200Y-36699000D01*
G75*
G02*
X52169000Y-36775200I-76200J0D01*
G01*
X51619000Y-36775200D01*
G75*
G02*
X51542800Y-36699000I0J76200D01*
G01*
G37*
G36*
G01*
X51542800Y-36199000D02*
X51542800Y-35949000D01*
G75*
G02*
X51619000Y-35872800I76200J0D01*
G01*
X52169000Y-35872800D01*
G75*
G02*
X52245200Y-35949000I0J-76200D01*
G01*
X52245200Y-36199000D01*
G75*
G02*
X52169000Y-36275200I-76200J0D01*
G01*
X51619000Y-36275200D01*
G75*
G02*
X51542800Y-36199000I0J76200D01*
G01*
G37*
G36*
G01*
X51542800Y-35699000D02*
X51542800Y-35449000D01*
G75*
G02*
X51619000Y-35372800I76200J0D01*
G01*
X52169000Y-35372800D01*
G75*
G02*
X52245200Y-35449000I0J-76200D01*
G01*
X52245200Y-35699000D01*
G75*
G02*
X52169000Y-35775200I-76200J0D01*
G01*
X51619000Y-35775200D01*
G75*
G02*
X51542800Y-35699000I0J76200D01*
G01*
G37*
G36*
G01*
X51542800Y-35199000D02*
X51542800Y-34949000D01*
G75*
G02*
X51619000Y-34872800I76200J0D01*
G01*
X52169000Y-34872800D01*
G75*
G02*
X52245200Y-34949000I0J-76200D01*
G01*
X52245200Y-35199000D01*
G75*
G02*
X52169000Y-35275200I-76200J0D01*
G01*
X51619000Y-35275200D01*
G75*
G02*
X51542800Y-35199000I0J76200D01*
G01*
G37*
G36*
X51267980Y-34915627D02*
G01*
X51294042Y-34960768D01*
X51295200Y-34974000D01*
X51295200Y-36674000D01*
X51277373Y-36722980D01*
X51232232Y-36749042D01*
X51219000Y-36750200D01*
X50219000Y-36750200D01*
X50170020Y-36732373D01*
X50143958Y-36687232D01*
X50142800Y-36674000D01*
X50142800Y-35274000D01*
X50160627Y-35225020D01*
X50165118Y-35220118D01*
X50465118Y-34920118D01*
X50512359Y-34898090D01*
X50519000Y-34897800D01*
X51219000Y-34897800D01*
X51267980Y-34915627D01*
G37*
M02*
