G04 #@! TF.GenerationSoftware,KiCad,Pcbnew,6.0.2+dfsg-1*
G04 #@! TF.CreationDate,2023-06-21T21:46:00-06:00*
G04 #@! TF.ProjectId,i2c-wxsns-array,6932632d-7778-4736-9e73-2d6172726179,rev?*
G04 #@! TF.SameCoordinates,Original*
G04 #@! TF.FileFunction,Copper,L2,Bot*
G04 #@! TF.FilePolarity,Positive*
%FSLAX46Y46*%
G04 Gerber Fmt 4.6, Leading zero omitted, Abs format (unit mm)*
G04 Created by KiCad (PCBNEW 6.0.2+dfsg-1) date 2023-06-21 21:46:00*
%MOMM*%
%LPD*%
G01*
G04 APERTURE LIST*
G04 #@! TA.AperFunction,SMDPad,CuDef*
%ADD10C,1.000000*%
G04 #@! TD*
G04 #@! TA.AperFunction,ViaPad*
%ADD11C,0.609600*%
G04 #@! TD*
G04 #@! TA.AperFunction,Conductor*
%ADD12C,0.254000*%
G04 #@! TD*
G04 APERTURE END LIST*
D10*
X22620000Y-54116000D03*
X60720000Y-17540000D03*
X22620000Y-17540000D03*
D11*
X58434000Y-24398000D03*
X48274000Y-26684000D03*
X51227000Y-28204000D03*
X51989000Y-28204000D03*
X48274000Y-27446000D03*
X52751000Y-28204000D03*
X51989000Y-24140000D03*
X48274000Y-24652000D03*
X52751000Y-24140000D03*
X59704000Y-24398000D03*
X51227000Y-24140000D03*
X48274000Y-23890000D03*
X58434000Y-34050000D03*
X48274000Y-36336000D03*
X51227000Y-37856000D03*
X51989000Y-37856000D03*
X48274000Y-37098000D03*
X52751000Y-37856000D03*
X51989000Y-33792000D03*
X48274000Y-34304000D03*
X52751000Y-33792000D03*
X59704000Y-34050000D03*
X51227000Y-33792000D03*
X48274000Y-33542000D03*
X58434000Y-43702000D03*
X48274000Y-45988000D03*
X51227000Y-47508000D03*
X51989000Y-47508000D03*
X48274000Y-46750000D03*
X52751000Y-47508000D03*
X51989000Y-43444000D03*
X48274000Y-43956000D03*
X52751000Y-43444000D03*
X59704000Y-43702000D03*
X51227000Y-43444000D03*
X48274000Y-43194000D03*
D12*
X58434000Y-24398000D02*
X58434000Y-27192000D01*
X58434000Y-34050000D02*
X58434000Y-36844000D01*
X58434000Y-43702000D02*
X58434000Y-46496000D01*
G04 #@! TA.AperFunction,Conductor*
G36*
X60407621Y-42198502D02*
G01*
X60454114Y-42252158D01*
X60465500Y-42304500D01*
X60465500Y-45227000D01*
X60445498Y-45295121D01*
X60391842Y-45341614D01*
X60339500Y-45353000D01*
X58941500Y-45353000D01*
X58873379Y-45332998D01*
X58826886Y-45279342D01*
X58815500Y-45227000D01*
X58815500Y-44166340D01*
X58835502Y-44098219D01*
X58841527Y-44089650D01*
X58922547Y-43984063D01*
X58978904Y-43848007D01*
X58998126Y-43702000D01*
X58978904Y-43555993D01*
X58922547Y-43419937D01*
X58832897Y-43303103D01*
X58716063Y-43213453D01*
X58580007Y-43157096D01*
X58571823Y-43156019D01*
X58571821Y-43156018D01*
X58442188Y-43138952D01*
X58434000Y-43137874D01*
X58425812Y-43138952D01*
X58296179Y-43156018D01*
X58296177Y-43156019D01*
X58287993Y-43157096D01*
X58151937Y-43213453D01*
X58035103Y-43303103D01*
X57945453Y-43419937D01*
X57889096Y-43555993D01*
X57869874Y-43702000D01*
X57889096Y-43848007D01*
X57945453Y-43984063D01*
X58026464Y-44089638D01*
X58052063Y-44155856D01*
X58052500Y-44166340D01*
X58052500Y-45227000D01*
X58032498Y-45295121D01*
X57978842Y-45341614D01*
X57926500Y-45353000D01*
X47892000Y-45353000D01*
X47823879Y-45332998D01*
X47777386Y-45279342D01*
X47766000Y-45227000D01*
X47766000Y-42304500D01*
X47786002Y-42236379D01*
X47839658Y-42189886D01*
X47892000Y-42178500D01*
X60339500Y-42178500D01*
X60407621Y-42198502D01*
G37*
G04 #@! TD.AperFunction*
G04 #@! TA.AperFunction,Conductor*
G36*
X60407621Y-22894502D02*
G01*
X60454114Y-22948158D01*
X60465500Y-23000500D01*
X60465500Y-25923000D01*
X60445498Y-25991121D01*
X60391842Y-26037614D01*
X60339500Y-26049000D01*
X58941500Y-26049000D01*
X58873379Y-26028998D01*
X58826886Y-25975342D01*
X58815500Y-25923000D01*
X58815500Y-24862340D01*
X58835502Y-24794219D01*
X58841527Y-24785650D01*
X58922547Y-24680063D01*
X58978904Y-24544007D01*
X58998126Y-24398000D01*
X58978904Y-24251993D01*
X58922547Y-24115937D01*
X58832897Y-23999103D01*
X58716063Y-23909453D01*
X58580007Y-23853096D01*
X58571823Y-23852019D01*
X58571821Y-23852018D01*
X58442188Y-23834952D01*
X58434000Y-23833874D01*
X58425812Y-23834952D01*
X58296179Y-23852018D01*
X58296177Y-23852019D01*
X58287993Y-23853096D01*
X58151937Y-23909453D01*
X58035103Y-23999103D01*
X57945453Y-24115937D01*
X57889096Y-24251993D01*
X57869874Y-24398000D01*
X57889096Y-24544007D01*
X57945453Y-24680063D01*
X58026464Y-24785638D01*
X58052063Y-24851856D01*
X58052500Y-24862340D01*
X58052500Y-25923000D01*
X58032498Y-25991121D01*
X57978842Y-26037614D01*
X57926500Y-26049000D01*
X47892000Y-26049000D01*
X47823879Y-26028998D01*
X47777386Y-25975342D01*
X47766000Y-25923000D01*
X47766000Y-23000500D01*
X47786002Y-22932379D01*
X47839658Y-22885886D01*
X47892000Y-22874500D01*
X60339500Y-22874500D01*
X60407621Y-22894502D01*
G37*
G04 #@! TD.AperFunction*
G04 #@! TA.AperFunction,Conductor*
G36*
X60407621Y-32546502D02*
G01*
X60454114Y-32600158D01*
X60465500Y-32652500D01*
X60465500Y-35575000D01*
X60445498Y-35643121D01*
X60391842Y-35689614D01*
X60339500Y-35701000D01*
X58941500Y-35701000D01*
X58873379Y-35680998D01*
X58826886Y-35627342D01*
X58815500Y-35575000D01*
X58815500Y-34514340D01*
X58835502Y-34446219D01*
X58841527Y-34437650D01*
X58922547Y-34332063D01*
X58978904Y-34196007D01*
X58998126Y-34050000D01*
X58978904Y-33903993D01*
X58922547Y-33767937D01*
X58832897Y-33651103D01*
X58716063Y-33561453D01*
X58580007Y-33505096D01*
X58571823Y-33504019D01*
X58571821Y-33504018D01*
X58442188Y-33486952D01*
X58434000Y-33485874D01*
X58425812Y-33486952D01*
X58296179Y-33504018D01*
X58296177Y-33504019D01*
X58287993Y-33505096D01*
X58151937Y-33561453D01*
X58035103Y-33651103D01*
X57945453Y-33767937D01*
X57889096Y-33903993D01*
X57869874Y-34050000D01*
X57889096Y-34196007D01*
X57945453Y-34332063D01*
X58026464Y-34437638D01*
X58052063Y-34503856D01*
X58052500Y-34514340D01*
X58052500Y-35575000D01*
X58032498Y-35643121D01*
X57978842Y-35689614D01*
X57926500Y-35701000D01*
X47892000Y-35701000D01*
X47823879Y-35680998D01*
X47777386Y-35627342D01*
X47766000Y-35575000D01*
X47766000Y-32652500D01*
X47786002Y-32584379D01*
X47839658Y-32537886D01*
X47892000Y-32526500D01*
X60339500Y-32526500D01*
X60407621Y-32546502D01*
G37*
G04 #@! TD.AperFunction*
G04 #@! TA.AperFunction,Conductor*
G36*
X60407621Y-45627002D02*
G01*
X60454114Y-45680658D01*
X60465500Y-45733000D01*
X60465500Y-48655500D01*
X60445498Y-48723621D01*
X60391842Y-48770114D01*
X60339500Y-48781500D01*
X47892000Y-48781500D01*
X47823879Y-48761498D01*
X47777386Y-48707842D01*
X47766000Y-48655500D01*
X47766000Y-45733000D01*
X47786002Y-45664879D01*
X47839658Y-45618386D01*
X47892000Y-45607000D01*
X60339500Y-45607000D01*
X60407621Y-45627002D01*
G37*
G04 #@! TD.AperFunction*
G04 #@! TA.AperFunction,Conductor*
G36*
X60407621Y-26323002D02*
G01*
X60454114Y-26376658D01*
X60465500Y-26429000D01*
X60465500Y-29351500D01*
X60445498Y-29419621D01*
X60391842Y-29466114D01*
X60339500Y-29477500D01*
X47892000Y-29477500D01*
X47823879Y-29457498D01*
X47777386Y-29403842D01*
X47766000Y-29351500D01*
X47766000Y-26429000D01*
X47786002Y-26360879D01*
X47839658Y-26314386D01*
X47892000Y-26303000D01*
X60339500Y-26303000D01*
X60407621Y-26323002D01*
G37*
G04 #@! TD.AperFunction*
G04 #@! TA.AperFunction,Conductor*
G36*
X60407621Y-35975002D02*
G01*
X60454114Y-36028658D01*
X60465500Y-36081000D01*
X60465500Y-39003500D01*
X60445498Y-39071621D01*
X60391842Y-39118114D01*
X60339500Y-39129500D01*
X47892000Y-39129500D01*
X47823879Y-39109498D01*
X47777386Y-39055842D01*
X47766000Y-39003500D01*
X47766000Y-36081000D01*
X47786002Y-36012879D01*
X47839658Y-35966386D01*
X47892000Y-35955000D01*
X60339500Y-35955000D01*
X60407621Y-35975002D01*
G37*
G04 #@! TD.AperFunction*
M02*
