M48
INCH,TZ
T1C0.0120
%
G90
G05
T1
X19006Y-9406
X19006Y-9706
X19006Y-10506
X19006Y-10806
X19006Y-13206
X19006Y-13506
X19006Y-14306
X19006Y-14606
X19006Y-17006
X19006Y-17306
X19006Y-18106
X19006Y-18406
X20168Y-9504
X20168Y-11104
X20168Y-13304
X20168Y-14904
X20168Y-17104
X20168Y-18704
X20468Y-9504
X20468Y-11104
X20468Y-13304
X20468Y-14904
X20468Y-17104
X20468Y-18704
X20768Y-9504
X20768Y-11104
X20768Y-13304
X20768Y-14904
X20768Y-17104
X20768Y-18704
X23006Y-9606
X23006Y-13406
X23006Y-17206
X23506Y-9606
X23506Y-13406
X23506Y-17206
T0
M30
