G04 start of page 13 for group -3984 idx -3984 *
G04 Title: (unknown), fab *
G04 Creator: pcb 20140316 *
G04 CreationDate: Thu 29 Nov 2018 09:56:59 PM GMT UTC *
G04 For: railfan *
G04 Format: Gerber/RS-274X *
G04 PCB-Dimensions (mil): 900.00 970.00 *
G04 PCB-Coordinate-Origin: lower left *
%MOIN*%
%FSLAX25Y25*%
%LNFAB*%
%ADD51C,0.0100*%
%ADD50C,0.0075*%
%ADD49C,0.0060*%
%ADD48R,0.0080X0.0080*%
G54D48*X45000Y71600D02*Y68400D01*
X43400Y70000D02*X46600D01*
X50000Y71600D02*Y68400D01*
X48400Y70000D02*X51600D01*
X45000Y63600D02*Y60400D01*
X43400Y62000D02*X46600D01*
X40000Y63600D02*Y60400D01*
X38400Y62000D02*X41600D01*
X50000Y63600D02*Y60400D01*
X48400Y62000D02*X51600D01*
X40000Y36600D02*Y33400D01*
X38400Y35000D02*X41600D01*
X45000Y36600D02*Y33400D01*
X43400Y35000D02*X46600D01*
X50000Y36600D02*Y33400D01*
X48400Y35000D02*X51600D01*
X45000Y28600D02*Y25400D01*
X43400Y27000D02*X46600D01*
X40000Y28600D02*Y25400D01*
X38400Y27000D02*X41600D01*
X50000Y28600D02*Y25400D01*
X48400Y27000D02*X51600D01*
X40000Y71600D02*Y68400D01*
X38400Y70000D02*X41600D01*
X15000Y139850D02*Y136650D01*
X13400Y138250D02*X16600D01*
G54D49*X140000Y140500D02*Y134500D01*
Y140500D02*X143750Y134500D01*
Y140500D02*Y134500D01*
X145550Y139750D02*Y135250D01*
Y139750D02*X146300Y140500D01*
X147800D01*
X148550Y139750D01*
Y135250D01*
X147800Y134500D02*X148550Y135250D01*
X146300Y134500D02*X147800D01*
X145550Y135250D02*X146300Y134500D01*
X98000Y139300D02*X99200Y140500D01*
Y134500D01*
X98000D02*X100250D01*
X102050Y139750D02*X102800Y140500D01*
X105050D01*
X105800Y139750D01*
Y138250D01*
X102050Y134500D02*X105800Y138250D01*
X102050Y134500D02*X105800D01*
X45000Y135250D02*X45750Y134500D01*
X45000Y139750D02*Y135250D01*
Y139750D02*X45750Y140500D01*
X47250D01*
X48000Y139750D01*
Y135250D01*
X47250Y134500D02*X48000Y135250D01*
X45750Y134500D02*X47250D01*
X45000Y136000D02*X48000Y139000D01*
X49800Y134500D02*X50550D01*
X52350Y135250D02*X53100Y134500D01*
X52350Y139750D02*Y135250D01*
Y139750D02*X53100Y140500D01*
X54600D01*
X55350Y139750D01*
Y135250D01*
X54600Y134500D02*X55350Y135250D01*
X53100Y134500D02*X54600D01*
X52350Y136000D02*X55350Y139000D01*
X57150Y139750D02*X57900Y140500D01*
X59400D01*
X60150Y139750D01*
X59400Y134500D02*X60150Y135250D01*
X57900Y134500D02*X59400D01*
X57150Y135250D02*X57900Y134500D01*
Y137800D02*X59400D01*
X60150Y139750D02*Y138550D01*
Y137050D02*Y135250D01*
Y137050D02*X59400Y137800D01*
X60150Y138550D02*X59400Y137800D01*
X61950Y139300D02*X63150Y140500D01*
Y134500D01*
X61950D02*X64200D01*
X33000Y89500D02*Y87900D01*
Y89500D02*X34387Y90300D01*
X33000Y89500D02*X31613Y90300D01*
X33000Y81000D02*Y79400D01*
Y81000D02*X34387Y81800D01*
X33000Y81000D02*X31613Y81800D01*
X36000Y81000D02*Y79400D01*
Y81000D02*X37387Y81800D01*
X36000Y81000D02*X34613Y81800D01*
X36000Y89500D02*Y87900D01*
Y89500D02*X37387Y90300D01*
X36000Y89500D02*X34613Y90300D01*
X47000Y90000D02*Y88400D01*
Y90000D02*X48387Y90800D01*
X47000Y90000D02*X45613Y90800D01*
X50500Y90000D02*Y88400D01*
Y90000D02*X51887Y90800D01*
X50500Y90000D02*X49113Y90800D01*
X54000Y90000D02*Y88400D01*
Y90000D02*X55387Y90800D01*
X54000Y90000D02*X52613Y90800D01*
X47000Y77000D02*Y75400D01*
Y77000D02*X48387Y77800D01*
X47000Y77000D02*X45613Y77800D01*
X50500Y77000D02*Y75400D01*
Y77000D02*X51887Y77800D01*
X50500Y77000D02*X49113Y77800D01*
X54000Y77000D02*Y75400D01*
Y77000D02*X55387Y77800D01*
X54000Y77000D02*X52613Y77800D01*
X77000Y87000D02*Y85400D01*
Y87000D02*X78387Y87800D01*
X77000Y87000D02*X75613Y87800D01*
X77000Y83500D02*Y81900D01*
Y83500D02*X78387Y84300D01*
X77000Y83500D02*X75613Y84300D01*
X77000Y80000D02*Y78400D01*
Y80000D02*X78387Y80800D01*
X77000Y80000D02*X75613Y80800D01*
X73059Y76000D02*Y74400D01*
Y76000D02*X74446Y76800D01*
X73059Y76000D02*X71672Y76800D01*
X72500Y92000D02*Y90400D01*
Y92000D02*X73887Y92800D01*
X72500Y92000D02*X71113Y92800D01*
X64500Y86500D02*Y84900D01*
Y86500D02*X65887Y87300D01*
X64500Y86500D02*X63113Y87300D01*
X33000Y54500D02*Y52900D01*
Y54500D02*X34387Y55300D01*
X33000Y54500D02*X31613Y55300D01*
X33000Y46000D02*Y44400D01*
Y46000D02*X34387Y46800D01*
X33000Y46000D02*X31613Y46800D01*
X36000Y46000D02*Y44400D01*
Y46000D02*X37387Y46800D01*
X36000Y46000D02*X34613Y46800D01*
X36000Y54500D02*Y52900D01*
Y54500D02*X37387Y55300D01*
X36000Y54500D02*X34613Y55300D01*
X47000Y55000D02*Y53400D01*
Y55000D02*X48387Y55800D01*
X47000Y55000D02*X45613Y55800D01*
X50500Y55000D02*Y53400D01*
Y55000D02*X51887Y55800D01*
X50500Y55000D02*X49113Y55800D01*
X54000Y55000D02*Y53400D01*
Y55000D02*X55387Y55800D01*
X54000Y55000D02*X52613Y55800D01*
X47000Y42000D02*Y40400D01*
Y42000D02*X48387Y42800D01*
X47000Y42000D02*X45613Y42800D01*
X50500Y42000D02*Y40400D01*
Y42000D02*X51887Y42800D01*
X50500Y42000D02*X49113Y42800D01*
X54000Y42000D02*Y40400D01*
Y42000D02*X55387Y42800D01*
X54000Y42000D02*X52613Y42800D01*
X77000Y52000D02*Y50400D01*
Y52000D02*X78387Y52800D01*
X77000Y52000D02*X75613Y52800D01*
X77000Y48500D02*Y46900D01*
Y48500D02*X78387Y49300D01*
X77000Y48500D02*X75613Y49300D01*
X77000Y45000D02*Y43400D01*
Y45000D02*X78387Y45800D01*
X77000Y45000D02*X75613Y45800D01*
X73059Y41000D02*Y39400D01*
Y41000D02*X74446Y41800D01*
X73059Y41000D02*X71672Y41800D01*
X72500Y57000D02*Y55400D01*
Y57000D02*X73887Y57800D01*
X72500Y57000D02*X71113Y57800D01*
X64500Y51500D02*Y49900D01*
Y51500D02*X65887Y52300D01*
X64500Y51500D02*X63113Y52300D01*
X33000Y19500D02*Y17900D01*
Y19500D02*X34387Y20300D01*
X33000Y19500D02*X31613Y20300D01*
X33000Y11000D02*Y9400D01*
Y11000D02*X34387Y11800D01*
X33000Y11000D02*X31613Y11800D01*
X36000Y11000D02*Y9400D01*
Y11000D02*X37387Y11800D01*
X36000Y11000D02*X34613Y11800D01*
X36000Y19500D02*Y17900D01*
Y19500D02*X37387Y20300D01*
X36000Y19500D02*X34613Y20300D01*
X47000Y20000D02*Y18400D01*
Y20000D02*X48387Y20800D01*
X47000Y20000D02*X45613Y20800D01*
X50500Y20000D02*Y18400D01*
Y20000D02*X51887Y20800D01*
X50500Y20000D02*X49113Y20800D01*
X54000Y20000D02*Y18400D01*
Y20000D02*X55387Y20800D01*
X54000Y20000D02*X52613Y20800D01*
X47000Y7000D02*Y5400D01*
Y7000D02*X48387Y7800D01*
X47000Y7000D02*X45613Y7800D01*
X50500Y7000D02*Y5400D01*
Y7000D02*X51887Y7800D01*
X50500Y7000D02*X49113Y7800D01*
X54000Y7000D02*Y5400D01*
Y7000D02*X55387Y7800D01*
X54000Y7000D02*X52613Y7800D01*
X77000Y17000D02*Y15400D01*
Y17000D02*X78387Y17800D01*
X77000Y17000D02*X75613Y17800D01*
X77000Y13500D02*Y11900D01*
Y13500D02*X78387Y14300D01*
X77000Y13500D02*X75613Y14300D01*
X77000Y10000D02*Y8400D01*
Y10000D02*X78387Y10800D01*
X77000Y10000D02*X75613Y10800D01*
X73059Y6000D02*Y4400D01*
Y6000D02*X74446Y6800D01*
X73059Y6000D02*X71672Y6800D01*
X72500Y22000D02*Y20400D01*
Y22000D02*X73887Y22800D01*
X72500Y22000D02*X71113Y22800D01*
X64500Y16500D02*Y14900D01*
Y16500D02*X65887Y17300D01*
X64500Y16500D02*X63113Y17300D01*
X15000Y153250D02*Y151650D01*
Y153250D02*X16387Y154050D01*
X15000Y153250D02*X13613Y154050D01*
X135000Y155500D02*X136500Y152500D01*
X138000Y155500D01*
X136500Y152500D02*Y149500D01*
X139800Y152800D02*X142050D01*
X139800Y149500D02*X142800D01*
X139800Y155500D02*Y149500D01*
Y155500D02*X142800D01*
X147600D02*X148350Y154750D01*
X145350Y155500D02*X147600D01*
X144600Y154750D02*X145350Y155500D01*
X144600Y154750D02*Y153250D01*
X145350Y152500D01*
X147600D01*
X148350Y151750D01*
Y150250D01*
X147600Y149500D02*X148350Y150250D01*
X145350Y149500D02*X147600D01*
X144600Y150250D02*X145350Y149500D01*
X98000Y151750D02*X101000Y155500D01*
X98000Y151750D02*X101750D01*
X101000Y155500D02*Y149500D01*
X103550Y150250D02*X104300Y149500D01*
X103550Y151450D02*Y150250D01*
Y151450D02*X104600Y152500D01*
X105500D01*
X106550Y151450D01*
Y150250D01*
X105800Y149500D02*X106550Y150250D01*
X104300Y149500D02*X105800D01*
X103550Y153550D02*X104600Y152500D01*
X103550Y154750D02*Y153550D01*
Y154750D02*X104300Y155500D01*
X105800D01*
X106550Y154750D01*
Y153550D01*
X105500Y152500D02*X106550Y153550D01*
X45000Y150250D02*X45750Y149500D01*
X45000Y154750D02*Y150250D01*
Y154750D02*X45750Y155500D01*
X47250D01*
X48000Y154750D01*
Y150250D01*
X47250Y149500D02*X48000Y150250D01*
X45750Y149500D02*X47250D01*
X45000Y151000D02*X48000Y154000D01*
X49800Y149500D02*X50550D01*
X52350Y150250D02*X53100Y149500D01*
X52350Y154750D02*Y150250D01*
Y154750D02*X53100Y155500D01*
X54600D01*
X55350Y154750D01*
Y150250D01*
X54600Y149500D02*X55350Y150250D01*
X53100Y149500D02*X54600D01*
X52350Y151000D02*X55350Y154000D01*
X57150Y154300D02*X58350Y155500D01*
Y149500D01*
X57150D02*X59400D01*
X61200Y154750D02*X61950Y155500D01*
X64200D01*
X64950Y154750D01*
Y153250D01*
X61200Y149500D02*X64950Y153250D01*
X61200Y149500D02*X64950D01*
X3000Y170500D02*X3750Y169750D01*
X750Y170500D02*X3000D01*
X0Y169750D02*X750Y170500D01*
X0Y169750D02*Y168250D01*
X750Y167500D01*
X3000D01*
X3750Y166750D01*
Y165250D01*
X3000Y164500D02*X3750Y165250D01*
X750Y164500D02*X3000D01*
X0Y165250D02*X750Y164500D01*
X5550Y167500D02*Y165250D01*
X6300Y164500D01*
X8550Y167500D02*Y163000D01*
X7800Y162250D02*X8550Y163000D01*
X6300Y162250D02*X7800D01*
X5550Y163000D02*X6300Y162250D01*
Y164500D02*X7800D01*
X8550Y165250D01*
X11100Y166750D02*Y164500D01*
Y166750D02*X11850Y167500D01*
X12600D01*
X13350Y166750D01*
Y164500D01*
Y166750D02*X14100Y167500D01*
X14850D01*
X15600Y166750D01*
Y164500D01*
X10350Y167500D02*X11100Y166750D01*
X17400Y170500D02*Y164500D01*
Y165250D02*X18150Y164500D01*
X19650D01*
X20400Y165250D01*
Y166750D02*Y165250D01*
X19650Y167500D02*X20400Y166750D01*
X18150Y167500D02*X19650D01*
X17400Y166750D02*X18150Y167500D01*
X22200Y166750D02*Y165250D01*
Y166750D02*X22950Y167500D01*
X24450D01*
X25200Y166750D01*
Y165250D01*
X24450Y164500D02*X25200Y165250D01*
X22950Y164500D02*X24450D01*
X22200Y165250D02*X22950Y164500D01*
X27000Y170500D02*Y165250D01*
X27750Y164500D01*
X0Y161250D02*X29250D01*
X41750Y170500D02*Y164500D01*
X43700Y170500D02*X44750Y169450D01*
Y165550D01*
X43700Y164500D02*X44750Y165550D01*
X41000Y164500D02*X43700D01*
X41000Y170500D02*X43700D01*
G54D50*X46550Y169000D02*Y168850D01*
G54D49*Y166750D02*Y164500D01*
X50300Y167500D02*X51050Y166750D01*
X48800Y167500D02*X50300D01*
X48050Y166750D02*X48800Y167500D01*
X48050Y166750D02*Y165250D01*
X48800Y164500D01*
X51050Y167500D02*Y165250D01*
X51800Y164500D01*
X48800D02*X50300D01*
X51050Y165250D01*
X54350Y166750D02*Y164500D01*
Y166750D02*X55100Y167500D01*
X55850D01*
X56600Y166750D01*
Y164500D01*
Y166750D02*X57350Y167500D01*
X58100D01*
X58850Y166750D01*
Y164500D01*
X53600Y167500D02*X54350Y166750D01*
X60650Y164500D02*X61400D01*
X65900Y165250D02*X66650Y164500D01*
X65900Y169750D02*X66650Y170500D01*
X65900Y169750D02*Y165250D01*
X68450Y170500D02*X69950D01*
X69200D02*Y164500D01*
X68450D02*X69950D01*
X72500Y166750D02*Y164500D01*
Y166750D02*X73250Y167500D01*
X74000D01*
X74750Y166750D01*
Y164500D01*
X71750Y167500D02*X72500Y166750D01*
X77300Y167500D02*X79550D01*
X76550Y166750D02*X77300Y167500D01*
X76550Y166750D02*Y165250D01*
X77300Y164500D01*
X79550D01*
X81350Y170500D02*Y164500D01*
Y166750D02*X82100Y167500D01*
X83600D01*
X84350Y166750D01*
Y164500D01*
X86150Y170500D02*X86900Y169750D01*
Y165250D01*
X86150Y164500D02*X86900Y165250D01*
X41000Y161250D02*X88700D01*
X96050Y164500D02*X98000D01*
X95000Y165550D02*X96050Y164500D01*
X95000Y169450D02*Y165550D01*
Y169450D02*X96050Y170500D01*
X98000D01*
X99800Y166750D02*Y165250D01*
Y166750D02*X100550Y167500D01*
X102050D01*
X102800Y166750D01*
Y165250D01*
X102050Y164500D02*X102800Y165250D01*
X100550Y164500D02*X102050D01*
X99800Y165250D02*X100550Y164500D01*
X104600Y167500D02*Y165250D01*
X105350Y164500D01*
X106850D01*
X107600Y165250D01*
Y167500D02*Y165250D01*
X110150Y166750D02*Y164500D01*
Y166750D02*X110900Y167500D01*
X111650D01*
X112400Y166750D01*
Y164500D01*
X109400Y167500D02*X110150Y166750D01*
X114950Y170500D02*Y165250D01*
X115700Y164500D01*
X114200Y168250D02*X115700D01*
X95000Y161250D02*X117200D01*
X130750Y170500D02*Y164500D01*
X130000Y170500D02*X133000D01*
X133750Y169750D01*
Y168250D01*
X133000Y167500D02*X133750Y168250D01*
X130750Y167500D02*X133000D01*
X135550Y170500D02*Y165250D01*
X136300Y164500D01*
X140050Y167500D02*X140800Y166750D01*
X138550Y167500D02*X140050D01*
X137800Y166750D02*X138550Y167500D01*
X137800Y166750D02*Y165250D01*
X138550Y164500D01*
X140800Y167500D02*Y165250D01*
X141550Y164500D01*
X138550D02*X140050D01*
X140800Y165250D01*
X144100Y170500D02*Y165250D01*
X144850Y164500D01*
X143350Y168250D02*X144850D01*
X147100Y164500D02*X149350D01*
X146350Y165250D02*X147100Y164500D01*
X146350Y166750D02*Y165250D01*
Y166750D02*X147100Y167500D01*
X148600D01*
X149350Y166750D01*
X146350Y166000D02*X149350D01*
Y166750D02*Y166000D01*
X154150Y170500D02*Y164500D01*
X153400D02*X154150Y165250D01*
X151900Y164500D02*X153400D01*
X151150Y165250D02*X151900Y164500D01*
X151150Y166750D02*Y165250D01*
Y166750D02*X151900Y167500D01*
X153400D01*
X154150Y166750D01*
X157450Y167500D02*Y166750D01*
Y165250D02*Y164500D01*
X155950Y169750D02*Y169000D01*
Y169750D02*X156700Y170500D01*
X158200D01*
X158950Y169750D01*
Y169000D01*
X157450Y167500D02*X158950Y169000D01*
X130000Y161250D02*X160750D01*
X0Y185500D02*X3000D01*
X1500D02*Y179500D01*
X4800Y185500D02*Y179500D01*
Y181750D02*X5550Y182500D01*
X7050D01*
X7800Y181750D01*
Y179500D01*
X10350D02*X12600D01*
X9600Y180250D02*X10350Y179500D01*
X9600Y181750D02*Y180250D01*
Y181750D02*X10350Y182500D01*
X11850D01*
X12600Y181750D01*
X9600Y181000D02*X12600D01*
Y181750D02*Y181000D01*
X15150Y181750D02*Y179500D01*
Y181750D02*X15900Y182500D01*
X17400D01*
X14400D02*X15150Y181750D01*
X19950Y179500D02*X22200D01*
X19200Y180250D02*X19950Y179500D01*
X19200Y181750D02*Y180250D01*
Y181750D02*X19950Y182500D01*
X21450D01*
X22200Y181750D01*
X19200Y181000D02*X22200D01*
Y181750D02*Y181000D01*
X28950Y182500D02*X29700Y181750D01*
X27450Y182500D02*X28950D01*
X26700Y181750D02*X27450Y182500D01*
X26700Y181750D02*Y180250D01*
X27450Y179500D01*
X29700Y182500D02*Y180250D01*
X30450Y179500D01*
X27450D02*X28950D01*
X29700Y180250D01*
X33000Y181750D02*Y179500D01*
Y181750D02*X33750Y182500D01*
X35250D01*
X32250D02*X33000Y181750D01*
X37800Y179500D02*X40050D01*
X37050Y180250D02*X37800Y179500D01*
X37050Y181750D02*Y180250D01*
Y181750D02*X37800Y182500D01*
X39300D01*
X40050Y181750D01*
X37050Y181000D02*X40050D01*
Y181750D02*Y181000D01*
X44550Y184750D02*X45300Y185500D01*
X47550D01*
X48300Y184750D01*
Y183250D01*
X44550Y179500D02*X48300Y183250D01*
X44550Y179500D02*X48300D01*
X55800Y185500D02*Y179500D01*
X55050D02*X55800Y180250D01*
X53550Y179500D02*X55050D01*
X52800Y180250D02*X53550Y179500D01*
X52800Y181750D02*Y180250D01*
Y181750D02*X53550Y182500D01*
X55050D01*
X55800Y181750D01*
G54D50*X57600Y184000D02*Y183850D01*
G54D49*Y181750D02*Y179500D01*
X59850Y184750D02*Y179500D01*
Y184750D02*X60600Y185500D01*
X61350D01*
X59100Y182500D02*X60600D01*
X63600Y184750D02*Y179500D01*
Y184750D02*X64350Y185500D01*
X65100D01*
X62850Y182500D02*X64350D01*
X67350Y179500D02*X69600D01*
X66600Y180250D02*X67350Y179500D01*
X66600Y181750D02*Y180250D01*
Y181750D02*X67350Y182500D01*
X68850D01*
X69600Y181750D01*
X66600Y181000D02*X69600D01*
Y181750D02*Y181000D01*
X72150Y181750D02*Y179500D01*
Y181750D02*X72900Y182500D01*
X74400D01*
X71400D02*X72150Y181750D01*
X76950Y179500D02*X79200D01*
X76200Y180250D02*X76950Y179500D01*
X76200Y181750D02*Y180250D01*
Y181750D02*X76950Y182500D01*
X78450D01*
X79200Y181750D01*
X76200Y181000D02*X79200D01*
Y181750D02*Y181000D01*
X81750Y181750D02*Y179500D01*
Y181750D02*X82500Y182500D01*
X83250D01*
X84000Y181750D01*
Y179500D01*
X81000Y182500D02*X81750Y181750D01*
X86550Y185500D02*Y180250D01*
X87300Y179500D01*
X85800Y183250D02*X87300D01*
X94500Y185500D02*Y179500D01*
X93750D02*X94500Y180250D01*
X92250Y179500D02*X93750D01*
X91500Y180250D02*X92250Y179500D01*
X91500Y181750D02*Y180250D01*
Y181750D02*X92250Y182500D01*
X93750D01*
X94500Y181750D01*
X97050D02*Y179500D01*
Y181750D02*X97800Y182500D01*
X99300D01*
X96300D02*X97050Y181750D01*
G54D50*X101100Y184000D02*Y183850D01*
G54D49*Y181750D02*Y179500D01*
X102600Y185500D02*Y180250D01*
X103350Y179500D01*
X104850Y185500D02*Y180250D01*
X105600Y179500D01*
X110550D02*X112800D01*
X113550Y180250D01*
X112800Y181000D02*X113550Y180250D01*
X110550Y181000D02*X112800D01*
X109800Y181750D02*X110550Y181000D01*
X109800Y181750D02*X110550Y182500D01*
X112800D01*
X113550Y181750D01*
X109800Y180250D02*X110550Y179500D01*
G54D50*X115350Y184000D02*Y183850D01*
G54D49*Y181750D02*Y179500D01*
X116850Y182500D02*X119850D01*
X116850Y179500D02*X119850Y182500D01*
X116850Y179500D02*X119850D01*
X122400D02*X124650D01*
X121650Y180250D02*X122400Y179500D01*
X121650Y181750D02*Y180250D01*
Y181750D02*X122400Y182500D01*
X123900D01*
X124650Y181750D01*
X121650Y181000D02*X124650D01*
Y181750D02*Y181000D01*
X127200Y179500D02*X129450D01*
X130200Y180250D01*
X129450Y181000D02*X130200Y180250D01*
X127200Y181000D02*X129450D01*
X126450Y181750D02*X127200Y181000D01*
X126450Y181750D02*X127200Y182500D01*
X129450D01*
X130200Y181750D01*
X126450Y180250D02*X127200Y179500D01*
X134700Y182500D02*Y180250D01*
X135450Y179500D01*
X136950D01*
X137700Y180250D01*
Y182500D02*Y180250D01*
X140250Y179500D02*X142500D01*
X143250Y180250D01*
X142500Y181000D02*X143250Y180250D01*
X140250Y181000D02*X142500D01*
X139500Y181750D02*X140250Y181000D01*
X139500Y181750D02*X140250Y182500D01*
X142500D01*
X143250Y181750D01*
X139500Y180250D02*X140250Y179500D01*
X145800D02*X148050D01*
X145050Y180250D02*X145800Y179500D01*
X145050Y181750D02*Y180250D01*
Y181750D02*X145800Y182500D01*
X147300D01*
X148050Y181750D01*
X145050Y181000D02*X148050D01*
Y181750D02*Y181000D01*
X152850Y185500D02*Y179500D01*
X152100D02*X152850Y180250D01*
X150600Y179500D02*X152100D01*
X149850Y180250D02*X150600Y179500D01*
X149850Y181750D02*Y180250D01*
Y181750D02*X150600Y182500D01*
X152100D01*
X152850Y181750D01*
G54D50*X157350Y184000D02*Y183850D01*
G54D49*Y181750D02*Y179500D01*
X159600Y181750D02*Y179500D01*
Y181750D02*X160350Y182500D01*
X161100D01*
X161850Y181750D01*
Y179500D01*
X158850Y182500D02*X159600Y181750D01*
X167100Y185500D02*Y180250D01*
X167850Y179500D01*
X166350Y183250D02*X167850D01*
X169350Y185500D02*Y179500D01*
Y181750D02*X170100Y182500D01*
X171600D01*
X172350Y181750D01*
Y179500D01*
G54D50*X174150Y184000D02*Y183850D01*
G54D49*Y181750D02*Y179500D01*
X176400D02*X178650D01*
X179400Y180250D01*
X178650Y181000D02*X179400Y180250D01*
X176400Y181000D02*X178650D01*
X175650Y181750D02*X176400Y181000D01*
X175650Y181750D02*X176400Y182500D01*
X178650D01*
X179400Y181750D01*
X175650Y180250D02*X176400Y179500D01*
X183900Y185500D02*Y180250D01*
X184650Y179500D01*
X188400Y182500D02*X189150Y181750D01*
X186900Y182500D02*X188400D01*
X186150Y181750D02*X186900Y182500D01*
X186150Y181750D02*Y180250D01*
X186900Y179500D01*
X189150Y182500D02*Y180250D01*
X189900Y179500D01*
X186900D02*X188400D01*
X189150Y180250D01*
X191700Y182500D02*Y180250D01*
X192450Y179500D01*
X194700Y182500D02*Y178000D01*
X193950Y177250D02*X194700Y178000D01*
X192450Y177250D02*X193950D01*
X191700Y178000D02*X192450Y177250D01*
Y179500D02*X193950D01*
X194700Y180250D01*
X196500Y181750D02*Y180250D01*
Y181750D02*X197250Y182500D01*
X198750D01*
X199500Y181750D01*
Y180250D01*
X198750Y179500D02*X199500Y180250D01*
X197250Y179500D02*X198750D01*
X196500Y180250D02*X197250Y179500D01*
X201300Y182500D02*Y180250D01*
X202050Y179500D01*
X203550D01*
X204300Y180250D01*
Y182500D02*Y180250D01*
X206850Y185500D02*Y180250D01*
X207600Y179500D01*
X206100Y183250D02*X207600D01*
X209100Y178000D02*X210600Y179500D01*
X217350Y185500D02*X218100Y184750D01*
X215850Y185500D02*X217350D01*
X215100Y184750D02*X215850Y185500D01*
X215100Y184750D02*Y180250D01*
X215850Y179500D01*
X217350Y182800D02*X218100Y182050D01*
X215100Y182800D02*X217350D01*
X215850Y179500D02*X217350D01*
X218100Y180250D01*
Y182050D02*Y180250D01*
X219900D02*X220650Y179500D01*
X219900Y184750D02*Y180250D01*
Y184750D02*X220650Y185500D01*
X222150D01*
X222900Y184750D01*
Y180250D01*
X222150Y179500D02*X222900Y180250D01*
X220650Y179500D02*X222150D01*
X219900Y181000D02*X222900Y184000D01*
X227400Y185500D02*Y179500D01*
Y181750D02*X228150Y182500D01*
X229650D01*
X230400Y181750D01*
Y179500D01*
X232200Y181750D02*Y180250D01*
Y181750D02*X232950Y182500D01*
X234450D01*
X235200Y181750D01*
Y180250D01*
X234450Y179500D02*X235200Y180250D01*
X232950Y179500D02*X234450D01*
X232200Y180250D02*X232950Y179500D01*
X237000Y185500D02*Y180250D01*
X237750Y179500D01*
X240000D02*X242250D01*
X239250Y180250D02*X240000Y179500D01*
X239250Y181750D02*Y180250D01*
Y181750D02*X240000Y182500D01*
X241500D01*
X242250Y181750D01*
X239250Y181000D02*X242250D01*
Y181750D02*Y181000D01*
X244800Y179500D02*X247050D01*
X247800Y180250D01*
X247050Y181000D02*X247800Y180250D01*
X244800Y181000D02*X247050D01*
X244050Y181750D02*X244800Y181000D01*
X244050Y181750D02*X244800Y182500D01*
X247050D01*
X247800Y181750D01*
X244050Y180250D02*X244800Y179500D01*
X253050Y185500D02*Y180250D01*
X253800Y179500D01*
X252300Y183250D02*X253800D01*
X255300Y181750D02*Y180250D01*
Y181750D02*X256050Y182500D01*
X257550D01*
X258300Y181750D01*
Y180250D01*
X257550Y179500D02*X258300Y180250D01*
X256050Y179500D02*X257550D01*
X255300Y180250D02*X256050Y179500D01*
X260850Y185500D02*Y180250D01*
X261600Y179500D01*
X260100Y183250D02*X261600D01*
X265350Y182500D02*X266100Y181750D01*
X263850Y182500D02*X265350D01*
X263100Y181750D02*X263850Y182500D01*
X263100Y181750D02*Y180250D01*
X263850Y179500D01*
X266100Y182500D02*Y180250D01*
X266850Y179500D01*
X263850D02*X265350D01*
X266100Y180250D01*
X268650Y185500D02*Y180250D01*
X269400Y179500D01*
G54D51*X7500Y96000D02*Y71000D01*
X82500Y96000D02*X7500D01*
X82500D02*Y71000D01*
X7500Y61000D02*Y36000D01*
X82500Y61000D02*Y36000D01*
X7500Y26000D02*Y1000D01*
X82500Y26000D02*Y1000D01*
X7500D01*
Y71000D02*X35000D01*
X7500Y61000D02*X35000D01*
X7500Y36000D02*X35000D01*
X7500Y26000D02*X35000D01*
X55000Y61000D02*X82500D01*
X55000Y71000D02*X82500D01*
X55000Y26000D02*X82500D01*
X55000Y36000D02*X82500D01*
X50000Y66000D02*G75*G03X55000Y61000I5000J0D01*G01*
X50000Y66000D02*G75*G02X55000Y71000I5000J0D01*G01*
X40000Y66000D02*G75*G02X35000Y61000I-5000J0D01*G01*
X40000Y66000D02*G75*G03X35000Y71000I-5000J0D01*G01*
X50000Y31000D02*G75*G03X55000Y26000I5000J0D01*G01*
X50000Y31000D02*G75*G02X55000Y36000I5000J0D01*G01*
X40000Y31000D02*G75*G02X35000Y26000I-5000J0D01*G01*
X40000Y31000D02*G75*G03X35000Y36000I-5000J0D01*G01*
G54D49*X0Y-9500D02*X3000D01*
X3750Y-8750D01*
Y-6950D02*Y-8750D01*
X3000Y-6200D02*X3750Y-6950D01*
X750Y-6200D02*X3000D01*
X750Y-3500D02*Y-9500D01*
X0Y-3500D02*X3000D01*
X3750Y-4250D01*
Y-5450D01*
X3000Y-6200D02*X3750Y-5450D01*
X5550Y-7250D02*Y-8750D01*
Y-7250D02*X6300Y-6500D01*
X7800D01*
X8550Y-7250D01*
Y-8750D01*
X7800Y-9500D02*X8550Y-8750D01*
X6300Y-9500D02*X7800D01*
X5550Y-8750D02*X6300Y-9500D01*
X12600Y-6500D02*X13350Y-7250D01*
X11100Y-6500D02*X12600D01*
X10350Y-7250D02*X11100Y-6500D01*
X10350Y-7250D02*Y-8750D01*
X11100Y-9500D01*
X13350Y-6500D02*Y-8750D01*
X14100Y-9500D01*
X11100D02*X12600D01*
X13350Y-8750D01*
X16650Y-7250D02*Y-9500D01*
Y-7250D02*X17400Y-6500D01*
X18900D01*
X15900D02*X16650Y-7250D01*
X23700Y-3500D02*Y-9500D01*
X22950D02*X23700Y-8750D01*
X21450Y-9500D02*X22950D01*
X20700Y-8750D02*X21450Y-9500D01*
X20700Y-7250D02*Y-8750D01*
Y-7250D02*X21450Y-6500D01*
X22950D01*
X23700Y-7250D01*
X28200D02*Y-8750D01*
Y-7250D02*X28950Y-6500D01*
X30450D01*
X31200Y-7250D01*
Y-8750D01*
X30450Y-9500D02*X31200Y-8750D01*
X28950Y-9500D02*X30450D01*
X28200Y-8750D02*X28950Y-9500D01*
X33000Y-6500D02*Y-8750D01*
X33750Y-9500D01*
X35250D01*
X36000Y-8750D01*
Y-6500D02*Y-8750D01*
X38550Y-3500D02*Y-8750D01*
X39300Y-9500D01*
X37800Y-5750D02*X39300D01*
X40800Y-3500D02*Y-8750D01*
X41550Y-9500D01*
G54D50*X43050Y-5000D02*Y-5150D01*
G54D49*Y-7250D02*Y-9500D01*
X45300Y-7250D02*Y-9500D01*
Y-7250D02*X46050Y-6500D01*
X46800D01*
X47550Y-7250D01*
Y-9500D01*
X44550Y-6500D02*X45300Y-7250D01*
X50100Y-9500D02*X52350D01*
X49350Y-8750D02*X50100Y-9500D01*
X49350Y-7250D02*Y-8750D01*
Y-7250D02*X50100Y-6500D01*
X51600D01*
X52350Y-7250D01*
X49350Y-8000D02*X52350D01*
Y-7250D02*Y-8000D01*
G54D50*X56850Y-5000D02*Y-5150D01*
G54D49*Y-7250D02*Y-9500D01*
X59100D02*X61350D01*
X62100Y-8750D01*
X61350Y-8000D02*X62100Y-8750D01*
X59100Y-8000D02*X61350D01*
X58350Y-7250D02*X59100Y-8000D01*
X58350Y-7250D02*X59100Y-6500D01*
X61350D01*
X62100Y-7250D01*
X58350Y-8750D02*X59100Y-9500D01*
X67350Y-3500D02*Y-8750D01*
X68100Y-9500D01*
X66600Y-5750D02*X68100D01*
X69600Y-3500D02*Y-9500D01*
Y-7250D02*X70350Y-6500D01*
X71850D01*
X72600Y-7250D01*
Y-9500D01*
X75150D02*X77400D01*
X74400Y-8750D02*X75150Y-9500D01*
X74400Y-7250D02*Y-8750D01*
Y-7250D02*X75150Y-6500D01*
X76650D01*
X77400Y-7250D01*
X74400Y-8000D02*X77400D01*
Y-7250D02*Y-8000D01*
X82650Y-6500D02*X84900D01*
X81900Y-7250D02*X82650Y-6500D01*
X81900Y-7250D02*Y-8750D01*
X82650Y-9500D01*
X84900D01*
X87450D02*X89700D01*
X86700Y-8750D02*X87450Y-9500D01*
X86700Y-7250D02*Y-8750D01*
Y-7250D02*X87450Y-6500D01*
X88950D01*
X89700Y-7250D01*
X86700Y-8000D02*X89700D01*
Y-7250D02*Y-8000D01*
X92250Y-7250D02*Y-9500D01*
Y-7250D02*X93000Y-6500D01*
X93750D01*
X94500Y-7250D01*
Y-9500D01*
X91500Y-6500D02*X92250Y-7250D01*
X97050Y-3500D02*Y-8750D01*
X97800Y-9500D01*
X96300Y-5750D02*X97800D01*
X100050Y-9500D02*X102300D01*
X99300Y-8750D02*X100050Y-9500D01*
X99300Y-7250D02*Y-8750D01*
Y-7250D02*X100050Y-6500D01*
X101550D01*
X102300Y-7250D01*
X99300Y-8000D02*X102300D01*
Y-7250D02*Y-8000D01*
X104850Y-7250D02*Y-9500D01*
Y-7250D02*X105600Y-6500D01*
X107100D01*
X104100D02*X104850Y-7250D01*
X108900Y-3500D02*Y-8750D01*
X109650Y-9500D01*
G54D50*X111150Y-5000D02*Y-5150D01*
G54D49*Y-7250D02*Y-9500D01*
X113400Y-7250D02*Y-9500D01*
Y-7250D02*X114150Y-6500D01*
X114900D01*
X115650Y-7250D01*
Y-9500D01*
X112650Y-6500D02*X113400Y-7250D01*
X118200Y-9500D02*X120450D01*
X117450Y-8750D02*X118200Y-9500D01*
X117450Y-7250D02*Y-8750D01*
Y-7250D02*X118200Y-6500D01*
X119700D01*
X120450Y-7250D01*
X117450Y-8000D02*X120450D01*
Y-7250D02*Y-8000D01*
X124950Y-7250D02*Y-8750D01*
Y-7250D02*X125700Y-6500D01*
X127200D01*
X127950Y-7250D01*
Y-8750D01*
X127200Y-9500D02*X127950Y-8750D01*
X125700Y-9500D02*X127200D01*
X124950Y-8750D02*X125700Y-9500D01*
X130500Y-4250D02*Y-9500D01*
Y-4250D02*X131250Y-3500D01*
X132000D01*
X129750Y-6500D02*X131250D01*
X136950Y-3500D02*Y-8750D01*
X137700Y-9500D01*
X136200Y-5750D02*X137700D01*
X139200Y-3500D02*Y-9500D01*
Y-7250D02*X139950Y-6500D01*
X141450D01*
X142200Y-7250D01*
Y-9500D01*
G54D50*X144000Y-5000D02*Y-5150D01*
G54D49*Y-7250D02*Y-9500D01*
X146250D02*X148500D01*
X149250Y-8750D01*
X148500Y-8000D02*X149250Y-8750D01*
X146250Y-8000D02*X148500D01*
X145500Y-7250D02*X146250Y-8000D01*
X145500Y-7250D02*X146250Y-6500D01*
X148500D01*
X149250Y-7250D01*
X145500Y-8750D02*X146250Y-9500D01*
X154500Y-7250D02*Y-11750D01*
X153750Y-6500D02*X154500Y-7250D01*
X155250Y-6500D01*
X156750D01*
X157500Y-7250D01*
Y-8750D01*
X156750Y-9500D02*X157500Y-8750D01*
X155250Y-9500D02*X156750D01*
X154500Y-8750D02*X155250Y-9500D01*
X161550Y-6500D02*X162300Y-7250D01*
X160050Y-6500D02*X161550D01*
X159300Y-7250D02*X160050Y-6500D01*
X159300Y-7250D02*Y-8750D01*
X160050Y-9500D01*
X162300Y-6500D02*Y-8750D01*
X163050Y-9500D01*
X160050D02*X161550D01*
X162300Y-8750D01*
X165600Y-3500D02*Y-8750D01*
X166350Y-9500D01*
X164850Y-5750D02*X166350D01*
X167850Y-3500D02*Y-9500D01*
Y-7250D02*X168600Y-6500D01*
X170100D01*
X170850Y-7250D01*
Y-9500D01*
X200750Y125500D02*Y119500D01*
X202700Y125500D02*X203750Y124450D01*
Y120550D01*
X202700Y119500D02*X203750Y120550D01*
X200000Y119500D02*X202700D01*
X200000Y125500D02*X202700D01*
X207800Y122500D02*X208550Y121750D01*
X206300Y122500D02*X207800D01*
X205550Y121750D02*X206300Y122500D01*
X205550Y121750D02*Y120250D01*
X206300Y119500D01*
X208550Y122500D02*Y120250D01*
X209300Y119500D01*
X206300D02*X207800D01*
X208550Y120250D01*
X211850Y125500D02*Y120250D01*
X212600Y119500D01*
X211100Y123250D02*X212600D01*
X214850Y119500D02*X217100D01*
X214100Y120250D02*X214850Y119500D01*
X214100Y121750D02*Y120250D01*
Y121750D02*X214850Y122500D01*
X216350D01*
X217100Y121750D01*
X214100Y121000D02*X217100D01*
Y121750D02*Y121000D01*
X218900Y123250D02*X219650D01*
X218900Y121750D02*X219650D01*
X224150Y125500D02*X227150D01*
X225650D02*Y119500D01*
X228950Y125500D02*Y119500D01*
Y121750D02*X229700Y122500D01*
X231200D01*
X231950Y121750D01*
Y119500D01*
X233750Y122500D02*Y120250D01*
X234500Y119500D01*
X236000D01*
X236750Y120250D01*
Y122500D02*Y120250D01*
X241250Y124750D02*X242000Y125500D01*
X244250D01*
X245000Y124750D01*
Y123250D01*
X241250Y119500D02*X245000Y123250D01*
X241250Y119500D02*X245000D01*
X247550D02*X249800Y122500D01*
Y124750D02*Y122500D01*
X249050Y125500D02*X249800Y124750D01*
X247550Y125500D02*X249050D01*
X246800Y124750D02*X247550Y125500D01*
X246800Y124750D02*Y123250D01*
X247550Y122500D01*
X249800D01*
X254300Y125500D02*Y119500D01*
Y125500D02*X258050Y119500D01*
Y125500D02*Y119500D01*
X259850Y121750D02*Y120250D01*
Y121750D02*X260600Y122500D01*
X262100D01*
X262850Y121750D01*
Y120250D01*
X262100Y119500D02*X262850Y120250D01*
X260600Y119500D02*X262100D01*
X259850Y120250D02*X260600Y119500D01*
X264650Y122500D02*X266150Y119500D01*
X267650Y122500D02*X266150Y119500D01*
X272150Y124750D02*X272900Y125500D01*
X275150D01*
X275900Y124750D01*
Y123250D01*
X272150Y119500D02*X275900Y123250D01*
X272150Y119500D02*X275900D01*
X277700Y120250D02*X278450Y119500D01*
X277700Y124750D02*Y120250D01*
Y124750D02*X278450Y125500D01*
X279950D01*
X280700Y124750D01*
Y120250D01*
X279950Y119500D02*X280700Y120250D01*
X278450Y119500D02*X279950D01*
X277700Y121000D02*X280700Y124000D01*
X282500Y124300D02*X283700Y125500D01*
Y119500D01*
X282500D02*X284750D01*
X286550Y120250D02*X287300Y119500D01*
X286550Y121450D02*Y120250D01*
Y121450D02*X287600Y122500D01*
X288500D01*
X289550Y121450D01*
Y120250D01*
X288800Y119500D02*X289550Y120250D01*
X287300Y119500D02*X288800D01*
X286550Y123550D02*X287600Y122500D01*
X286550Y124750D02*Y123550D01*
Y124750D02*X287300Y125500D01*
X288800D01*
X289550Y124750D01*
Y123550D01*
X288500Y122500D02*X289550Y123550D01*
X294050Y120250D02*X294800Y119500D01*
X294050Y124750D02*Y120250D01*
Y124750D02*X294800Y125500D01*
X296300D01*
X297050Y124750D01*
Y120250D01*
X296300Y119500D02*X297050Y120250D01*
X294800Y119500D02*X296300D01*
X294050Y121000D02*X297050Y124000D01*
X299600Y119500D02*X301850Y122500D01*
Y124750D02*Y122500D01*
X301100Y125500D02*X301850Y124750D01*
X299600Y125500D02*X301100D01*
X298850Y124750D02*X299600Y125500D01*
X298850Y124750D02*Y123250D01*
X299600Y122500D01*
X301850D01*
X303650Y123250D02*X304400D01*
X303650Y121750D02*X304400D01*
X306200Y125500D02*X309200D01*
X306200D02*Y122500D01*
X306950Y123250D01*
X308450D01*
X309200Y122500D01*
Y120250D01*
X308450Y119500D02*X309200Y120250D01*
X306950Y119500D02*X308450D01*
X306200Y120250D02*X306950Y119500D01*
X313250Y125500D02*X314000Y124750D01*
X311750Y125500D02*X313250D01*
X311000Y124750D02*X311750Y125500D01*
X311000Y124750D02*Y120250D01*
X311750Y119500D01*
X313250Y122800D02*X314000Y122050D01*
X311000Y122800D02*X313250D01*
X311750Y119500D02*X313250D01*
X314000Y120250D01*
Y122050D02*Y120250D01*
X315800Y123250D02*X316550D01*
X315800Y121750D02*X316550D01*
X318350Y125500D02*X321350D01*
X318350D02*Y122500D01*
X319100Y123250D01*
X320600D01*
X321350Y122500D01*
Y120250D01*
X320600Y119500D02*X321350Y120250D01*
X319100Y119500D02*X320600D01*
X318350Y120250D02*X319100Y119500D01*
X323900D02*X326150Y122500D01*
Y124750D02*Y122500D01*
X325400Y125500D02*X326150Y124750D01*
X323900Y125500D02*X325400D01*
X323150Y124750D02*X323900Y125500D01*
X323150Y124750D02*Y123250D01*
X323900Y122500D01*
X326150D01*
X331400Y125500D02*Y119500D01*
X330650Y125500D02*X333650D01*
X334400Y124750D01*
Y123250D01*
X333650Y122500D02*X334400Y123250D01*
X331400Y122500D02*X333650D01*
X336200Y125500D02*Y119500D01*
Y125500D02*X338450Y122500D01*
X340700Y125500D01*
Y119500D01*
X348200Y125500D02*X348950Y124750D01*
X345950Y125500D02*X348200D01*
X345200Y124750D02*X345950Y125500D01*
X345200Y124750D02*Y120250D01*
X345950Y119500D01*
X348200D01*
X348950Y120250D01*
Y121750D02*Y120250D01*
X348200Y122500D02*X348950Y121750D01*
X346700Y122500D02*X348200D01*
X350750Y125500D02*Y119500D01*
Y125500D02*X353000Y122500D01*
X355250Y125500D01*
Y119500D01*
X357050Y125500D02*X360050D01*
X358550D02*Y119500D01*
X364550Y125500D02*Y120250D01*
X365300Y119500D01*
X366800D01*
X367550Y120250D01*
Y125500D02*Y120250D01*
X369350Y125500D02*X372350D01*
X370850D02*Y119500D01*
X375200D02*X377150D01*
X374150Y120550D02*X375200Y119500D01*
X374150Y124450D02*Y120550D01*
Y124450D02*X375200Y125500D01*
X377150D01*
X200000Y139000D02*Y134500D01*
Y139000D02*X201050Y140500D01*
X202700D01*
X203750Y139000D01*
Y134500D01*
X200000Y137500D02*X203750D01*
X205550D02*Y135250D01*
X206300Y134500D01*
X207800D01*
X208550Y135250D01*
Y137500D02*Y135250D01*
X211100Y140500D02*Y135250D01*
X211850Y134500D01*
X210350Y138250D02*X211850D01*
X213350Y140500D02*Y134500D01*
Y136750D02*X214100Y137500D01*
X215600D01*
X216350Y136750D01*
Y134500D01*
X218150Y136750D02*Y135250D01*
Y136750D02*X218900Y137500D01*
X220400D01*
X221150Y136750D01*
Y135250D01*
X220400Y134500D02*X221150Y135250D01*
X218900Y134500D02*X220400D01*
X218150Y135250D02*X218900Y134500D01*
X223700Y136750D02*Y134500D01*
Y136750D02*X224450Y137500D01*
X225950D01*
X222950D02*X223700Y136750D01*
X227750Y138250D02*X228500D01*
X227750Y136750D02*X228500D01*
X233000Y140500D02*Y134500D01*
Y140500D02*X235250Y137500D01*
X237500Y140500D01*
Y134500D01*
G54D50*X239300Y139000D02*Y138850D01*
G54D49*Y136750D02*Y134500D01*
X241550Y137500D02*X243800D01*
X240800Y136750D02*X241550Y137500D01*
X240800Y136750D02*Y135250D01*
X241550Y134500D01*
X243800D01*
X245600Y140500D02*Y134500D01*
Y136750D02*X246350Y137500D01*
X247850D01*
X248600Y136750D01*
Y134500D01*
X252650Y137500D02*X253400Y136750D01*
X251150Y137500D02*X252650D01*
X250400Y136750D02*X251150Y137500D01*
X250400Y136750D02*Y135250D01*
X251150Y134500D01*
X253400Y137500D02*Y135250D01*
X254150Y134500D01*
X251150D02*X252650D01*
X253400Y135250D01*
X256700Y134500D02*X258950D01*
X255950Y135250D02*X256700Y134500D01*
X255950Y136750D02*Y135250D01*
Y136750D02*X256700Y137500D01*
X258200D01*
X258950Y136750D01*
X255950Y136000D02*X258950D01*
Y136750D02*Y136000D01*
X260750Y140500D02*Y135250D01*
X261500Y134500D01*
X266450Y140500D02*Y134500D01*
X265700Y140500D02*X268700D01*
X269450Y139750D01*
Y138250D01*
X268700Y137500D02*X269450Y138250D01*
X266450Y137500D02*X268700D01*
X272000Y134500D02*X274250D01*
X271250Y135250D02*X272000Y134500D01*
X271250Y136750D02*Y135250D01*
Y136750D02*X272000Y137500D01*
X273500D01*
X274250Y136750D01*
X271250Y136000D02*X274250D01*
Y136750D02*Y136000D01*
X276800Y140500D02*Y135250D01*
X277550Y134500D01*
X276050Y138250D02*X277550D01*
X279800Y134500D02*X282050D01*
X279050Y135250D02*X279800Y134500D01*
X279050Y136750D02*Y135250D01*
Y136750D02*X279800Y137500D01*
X281300D01*
X282050Y136750D01*
X279050Y136000D02*X282050D01*
Y136750D02*Y136000D01*
X284600Y136750D02*Y134500D01*
Y136750D02*X285350Y137500D01*
X286850D01*
X283850D02*X284600Y136750D01*
X289400Y134500D02*X291650D01*
X292400Y135250D01*
X291650Y136000D02*X292400Y135250D01*
X289400Y136000D02*X291650D01*
X288650Y136750D02*X289400Y136000D01*
X288650Y136750D02*X289400Y137500D01*
X291650D01*
X292400Y136750D01*
X288650Y135250D02*X289400Y134500D01*
X294950D02*X297200D01*
X294200Y135250D02*X294950Y134500D01*
X294200Y136750D02*Y135250D01*
Y136750D02*X294950Y137500D01*
X296450D01*
X297200Y136750D01*
X294200Y136000D02*X297200D01*
Y136750D02*Y136000D01*
X299750Y136750D02*Y134500D01*
Y136750D02*X300500Y137500D01*
X301250D01*
X302000Y136750D01*
Y134500D01*
X299000Y137500D02*X299750Y136750D01*
X200000Y155500D02*X203000D01*
X201500D02*Y149500D01*
G54D50*X204800Y154000D02*Y153850D01*
G54D49*Y151750D02*Y149500D01*
X207050Y155500D02*Y150250D01*
X207800Y149500D01*
X206300Y153250D02*X207800D01*
X209300Y155500D02*Y150250D01*
X210050Y149500D01*
X212300D02*X214550D01*
X211550Y150250D02*X212300Y149500D01*
X211550Y151750D02*Y150250D01*
Y151750D02*X212300Y152500D01*
X213800D01*
X214550Y151750D01*
X211550Y151000D02*X214550D01*
Y151750D02*Y151000D01*
X216350Y153250D02*X217100D01*
X216350Y151750D02*X217100D01*
X221600Y150250D02*X222350Y149500D01*
X221600Y154750D02*X222350Y155500D01*
X221600Y154750D02*Y150250D01*
X224150Y152500D02*Y150250D01*
X224900Y149500D01*
X226400D01*
X227150Y150250D01*
Y152500D02*Y150250D01*
X229700Y151750D02*Y149500D01*
Y151750D02*X230450Y152500D01*
X231200D01*
X231950Y151750D01*
Y149500D01*
X228950Y152500D02*X229700Y151750D01*
X233750Y155500D02*Y149500D01*
Y151750D02*X236000Y149500D01*
X233750Y151750D02*X235250Y153250D01*
X238550Y151750D02*Y149500D01*
Y151750D02*X239300Y152500D01*
X240050D01*
X240800Y151750D01*
Y149500D01*
X237800Y152500D02*X238550Y151750D01*
X242600D02*Y150250D01*
Y151750D02*X243350Y152500D01*
X244850D01*
X245600Y151750D01*
Y150250D01*
X244850Y149500D02*X245600Y150250D01*
X243350Y149500D02*X244850D01*
X242600Y150250D02*X243350Y149500D01*
X247400Y152500D02*Y150250D01*
X248150Y149500D01*
X248900D01*
X249650Y150250D01*
Y152500D02*Y150250D01*
X250400Y149500D01*
X251150D01*
X251900Y150250D01*
Y152500D02*Y150250D01*
X254450Y151750D02*Y149500D01*
Y151750D02*X255200Y152500D01*
X255950D01*
X256700Y151750D01*
Y149500D01*
X253700Y152500D02*X254450Y151750D01*
X258500Y155500D02*X259250Y154750D01*
Y150250D01*
X258500Y149500D02*X259250Y150250D01*
X263750Y152500D02*X266750D01*
X271250Y155500D02*Y149500D01*
Y155500D02*X274250D01*
X271250Y152800D02*X273500D01*
X278300Y152500D02*X279050Y151750D01*
X276800Y152500D02*X278300D01*
X276050Y151750D02*X276800Y152500D01*
X276050Y151750D02*Y150250D01*
X276800Y149500D01*
X279050Y152500D02*Y150250D01*
X279800Y149500D01*
X276800D02*X278300D01*
X279050Y150250D01*
X281600Y155500D02*Y149500D01*
Y150250D02*X282350Y149500D01*
X283850D01*
X284600Y150250D01*
Y151750D02*Y150250D01*
X283850Y152500D02*X284600Y151750D01*
X282350Y152500D02*X283850D01*
X281600Y151750D02*X282350Y152500D01*
X287150Y151750D02*Y149500D01*
Y151750D02*X287900Y152500D01*
X289400D01*
X286400D02*X287150Y151750D01*
G54D50*X291200Y154000D02*Y153850D01*
G54D49*Y151750D02*Y149500D01*
X293450Y152500D02*X295700D01*
X292700Y151750D02*X293450Y152500D01*
X292700Y151750D02*Y150250D01*
X293450Y149500D01*
X295700D01*
X299750Y152500D02*X300500Y151750D01*
X298250Y152500D02*X299750D01*
X297500Y151750D02*X298250Y152500D01*
X297500Y151750D02*Y150250D01*
X298250Y149500D01*
X300500Y152500D02*Y150250D01*
X301250Y149500D01*
X298250D02*X299750D01*
X300500Y150250D01*
X303800Y155500D02*Y150250D01*
X304550Y149500D01*
X303050Y153250D02*X304550D01*
G54D50*X306050Y154000D02*Y153850D01*
G54D49*Y151750D02*Y149500D01*
X307550Y151750D02*Y150250D01*
Y151750D02*X308300Y152500D01*
X309800D01*
X310550Y151750D01*
Y150250D01*
X309800Y149500D02*X310550Y150250D01*
X308300Y149500D02*X309800D01*
X307550Y150250D02*X308300Y149500D01*
X313100Y151750D02*Y149500D01*
Y151750D02*X313850Y152500D01*
X314600D01*
X315350Y151750D01*
Y149500D01*
X312350Y152500D02*X313100Y151750D01*
X320600Y155500D02*Y149500D01*
X322550Y155500D02*X323600Y154450D01*
Y150550D01*
X322550Y149500D02*X323600Y150550D01*
X319850Y149500D02*X322550D01*
X319850Y155500D02*X322550D01*
X326150Y151750D02*Y149500D01*
Y151750D02*X326900Y152500D01*
X328400D01*
X325400D02*X326150Y151750D01*
X332450Y152500D02*X333200Y151750D01*
X330950Y152500D02*X332450D01*
X330200Y151750D02*X330950Y152500D01*
X330200Y151750D02*Y150250D01*
X330950Y149500D01*
X333200Y152500D02*Y150250D01*
X333950Y149500D01*
X330950D02*X332450D01*
X333200Y150250D01*
X335750Y152500D02*Y150250D01*
X336500Y149500D01*
X337250D01*
X338000Y150250D01*
Y152500D02*Y150250D01*
X338750Y149500D01*
X339500D01*
X340250Y150250D01*
Y152500D02*Y150250D01*
G54D50*X342050Y154000D02*Y153850D01*
G54D49*Y151750D02*Y149500D01*
X344300Y151750D02*Y149500D01*
Y151750D02*X345050Y152500D01*
X345800D01*
X346550Y151750D01*
Y149500D01*
X343550Y152500D02*X344300Y151750D01*
X350600Y152500D02*X351350Y151750D01*
X349100Y152500D02*X350600D01*
X348350Y151750D02*X349100Y152500D01*
X348350Y151750D02*Y150250D01*
X349100Y149500D01*
X350600D01*
X351350Y150250D01*
X348350Y148000D02*X349100Y147250D01*
X350600D01*
X351350Y148000D01*
Y152500D02*Y148000D01*
M02*
