G04 start of page 2 for group 0 idx 0 *
G04 Title: (unknown), top *
G04 Creator: pcb 20140316 *
G04 CreationDate: Thu 29 Nov 2018 09:56:59 PM GMT UTC *
G04 For: railfan *
G04 Format: Gerber/RS-274X *
G04 PCB-Dimensions (mil): 900.00 970.00 *
G04 PCB-Coordinate-Origin: lower left *
%MOIN*%
%FSLAX25Y25*%
%LNTOP*%
%ADD23C,0.0120*%
%ADD22C,0.0310*%
%ADD21C,0.0280*%
%ADD20R,0.0354X0.0354*%
%ADD19R,0.0098X0.0098*%
%ADD18R,0.0394X0.0394*%
%ADD17R,0.0118X0.0118*%
%ADD16R,0.0512X0.0512*%
%ADD15R,0.0384X0.0384*%
%ADD14R,0.0236X0.0236*%
%ADD13C,0.0100*%
%ADD12C,0.0200*%
%ADD11C,0.0001*%
G54D11*G36*
X7500Y71000D02*Y96000D01*
X20000D01*
Y93059D01*
X19995Y93000D01*
X20000Y92941D01*
Y82559D01*
X19995Y82500D01*
X20000Y82441D01*
Y76559D01*
X19995Y76500D01*
X20000Y76441D01*
Y74059D01*
X19995Y74000D01*
X20000Y73941D01*
Y71000D01*
X7500D01*
G37*
G36*
Y36000D02*Y61000D01*
X20000D01*
Y58059D01*
X19995Y58000D01*
X20000Y57941D01*
Y47559D01*
X19995Y47500D01*
X20000Y47441D01*
Y41559D01*
X19995Y41500D01*
X20000Y41441D01*
Y39059D01*
X19995Y39000D01*
X20000Y38941D01*
Y36000D01*
X7500D01*
G37*
G36*
Y1000D02*Y26000D01*
X20000D01*
Y23059D01*
X19995Y23000D01*
X20000Y22941D01*
Y12559D01*
X19995Y12500D01*
X20000Y12441D01*
Y6559D01*
X19995Y6500D01*
X20000Y6441D01*
Y4059D01*
X19995Y4000D01*
X20000Y3941D01*
Y1000D01*
X7500D01*
G37*
G36*
X62500Y83000D02*Y74500D01*
X55000D01*
Y83000D01*
X62500D01*
G37*
G36*
X44500Y74500D02*Y79000D01*
X57500D01*
Y74500D01*
X44500D01*
G37*
G36*
X38000Y57500D02*Y49000D01*
X35506D01*
Y49000D01*
X35481Y49314D01*
X35481Y49314D01*
X35408Y49620D01*
X35288Y49911D01*
X35123Y50179D01*
X34919Y50419D01*
X34859Y50470D01*
X33501Y51827D01*
X33450Y51887D01*
X33211Y52091D01*
X33211Y52092D01*
X32942Y52256D01*
X32651Y52376D01*
X32345Y52450D01*
X32032Y52475D01*
X31953Y52469D01*
X31000D01*
Y57500D01*
X38000D01*
G37*
G36*
X57500D02*Y53000D01*
X44500D01*
Y57500D01*
X57500D01*
G37*
G36*
X31000Y48000D02*X31500D01*
Y45500D01*
X31519Y45186D01*
X31592Y44880D01*
X31712Y44589D01*
X31877Y44321D01*
X32081Y44081D01*
X32321Y43877D01*
X32589Y43712D01*
X32880Y43592D01*
X33186Y43519D01*
X33500Y43494D01*
X33814Y43519D01*
X34120Y43592D01*
X34411Y43712D01*
X34679Y43877D01*
X34919Y44081D01*
X35123Y44321D01*
X35288Y44589D01*
X35408Y44880D01*
X35481Y45186D01*
X35500Y45500D01*
Y48000D01*
X38000D01*
Y39500D01*
X31000D01*
Y48000D01*
G37*
G36*
X38000D01*
Y41500D01*
X31000D01*
Y48000D01*
G37*
G36*
X38000Y22500D02*Y14000D01*
X35506D01*
Y14000D01*
X35481Y14314D01*
X35481Y14314D01*
X35408Y14620D01*
X35288Y14911D01*
X35123Y15179D01*
X34919Y15419D01*
X34859Y15470D01*
X33501Y16827D01*
X33450Y16887D01*
X33211Y17091D01*
X33211Y17092D01*
X32942Y17256D01*
X32651Y17376D01*
X32345Y17450D01*
X32032Y17475D01*
X31953Y17469D01*
X31000D01*
Y22500D01*
X38000D01*
G37*
G36*
X31000Y13000D02*X31500D01*
Y10500D01*
X31519Y10186D01*
X31592Y9880D01*
X31712Y9589D01*
X31877Y9321D01*
X32081Y9081D01*
X32321Y8877D01*
X32589Y8712D01*
X32880Y8592D01*
X33186Y8519D01*
X33500Y8494D01*
X33814Y8519D01*
X34120Y8592D01*
X34411Y8712D01*
X34679Y8877D01*
X34919Y9081D01*
X35123Y9321D01*
X35288Y9589D01*
X35408Y9880D01*
X35481Y10186D01*
X35500Y10500D01*
Y13000D01*
X38000D01*
Y4500D01*
X31000D01*
Y13000D01*
G37*
G36*
X38000D01*
Y6500D01*
X31000D01*
Y13000D01*
G37*
G36*
X62500Y48000D02*Y39500D01*
X55000D01*
Y48000D01*
X62500D01*
G37*
G36*
Y13000D02*Y4500D01*
X55000D01*
Y13000D01*
X62500D01*
G37*
G36*
X63000Y14000D02*X55000D01*
Y22500D01*
X63000D01*
Y14000D01*
G37*
G36*
X63500Y11500D02*Y17000D01*
X71500D01*
X71574Y16889D01*
X71577Y16311D01*
X71610Y16174D01*
X71664Y16043D01*
X71738Y15922D01*
X71830Y15814D01*
X71938Y15722D01*
X72059Y15648D01*
X72190Y15594D01*
X72327Y15561D01*
X72465Y15553D01*
X72500Y15500D01*
X77000D01*
Y11500D01*
X63500D01*
G37*
G36*
X64500Y14000D02*X61500D01*
Y22500D01*
X67000Y17000D01*
Y14000D01*
X64500D01*
G37*
G36*
X75621Y19000D02*X78879D01*
X79000Y18879D01*
Y8000D01*
X75500D01*
Y18879D01*
X75621Y19000D01*
G37*
G36*
X44500Y39500D02*Y44000D01*
X57500D01*
Y39500D01*
X44500D01*
G37*
G36*
X57500Y22500D02*Y18000D01*
X44500D01*
Y22500D01*
X57500D01*
G37*
G36*
X44500Y4500D02*Y9000D01*
X57500D01*
Y4500D01*
X44500D01*
G37*
G36*
X63000Y49000D02*X55000D01*
Y57500D01*
X63000D01*
Y49000D01*
G37*
G36*
X63500Y46500D02*Y52000D01*
X71500D01*
X71574Y51889D01*
X71577Y51311D01*
X71610Y51174D01*
X71664Y51043D01*
X71738Y50922D01*
X71830Y50814D01*
X71938Y50722D01*
X72059Y50648D01*
X72190Y50594D01*
X72327Y50561D01*
X72465Y50553D01*
X72500Y50500D01*
X77000D01*
Y46500D01*
X63500D01*
G37*
G36*
X64500Y49000D02*X61500D01*
Y57500D01*
X67000Y52000D01*
Y49000D01*
X64500D01*
G37*
G36*
X75621Y54000D02*X78879D01*
X79000Y53879D01*
Y43000D01*
X75500D01*
Y53879D01*
X75621Y54000D01*
G37*
G36*
X38000Y92500D02*Y84000D01*
X35506D01*
Y84000D01*
X35481Y84314D01*
X35481Y84314D01*
X35408Y84620D01*
X35288Y84911D01*
X35123Y85179D01*
X34919Y85419D01*
X34859Y85470D01*
X33501Y86827D01*
X33450Y86887D01*
X33211Y87091D01*
X33211Y87092D01*
X32942Y87256D01*
X32651Y87376D01*
X32345Y87450D01*
X32032Y87475D01*
X31953Y87469D01*
X31000D01*
Y92500D01*
X38000D01*
G37*
G36*
X31000Y83000D02*X31500D01*
Y80500D01*
X31519Y80186D01*
X31592Y79880D01*
X31712Y79589D01*
X31877Y79321D01*
X32081Y79081D01*
X32321Y78877D01*
X32589Y78712D01*
X32880Y78592D01*
X33186Y78519D01*
X33500Y78494D01*
X33814Y78519D01*
X34120Y78592D01*
X34411Y78712D01*
X34679Y78877D01*
X34919Y79081D01*
X35123Y79321D01*
X35288Y79589D01*
X35408Y79880D01*
X35481Y80186D01*
X35500Y80500D01*
Y83000D01*
X38000D01*
Y74500D01*
X31000D01*
Y83000D01*
G37*
G36*
X57500Y92500D02*Y88000D01*
X44500D01*
Y92500D01*
X57500D01*
G37*
G36*
X31000Y83000D02*X38000D01*
Y76500D01*
X31000D01*
Y83000D01*
G37*
G36*
X63000Y84000D02*X55000D01*
Y92500D01*
X63000D01*
Y84000D01*
G37*
G36*
X63500Y81500D02*Y87000D01*
X71500D01*
X71574Y86889D01*
X71577Y86311D01*
X71610Y86174D01*
X71664Y86043D01*
X71738Y85922D01*
X71830Y85814D01*
X71938Y85722D01*
X72059Y85648D01*
X72190Y85594D01*
X72327Y85561D01*
X72465Y85553D01*
X72500Y85500D01*
X77000D01*
Y81500D01*
X63500D01*
G37*
G36*
X64500Y84000D02*X61500D01*
Y92500D01*
X67000Y87000D01*
Y84000D01*
X64500D01*
G37*
G36*
X75621Y89000D02*X78879D01*
X79000Y88879D01*
Y78000D01*
X75500D01*
Y88879D01*
X75621Y89000D01*
G37*
G54D12*X26500Y54406D02*X33500D01*
X26500Y50469D02*X32031D01*
X33500Y49000D01*
G54D13*X42374Y51453D02*Y59000D01*
G54D12*X33500Y49000D02*Y45500D01*
G54D13*X42374Y45547D02*Y38000D01*
X26500Y46531D02*X22469D01*
X26500Y42594D02*X22594D01*
X21500Y41500D01*
Y39000D01*
X22500Y38000D01*
X22469Y46531D02*X21500Y47500D01*
Y58000D01*
X22500Y59000D01*
X42374Y49484D02*X51626D01*
Y51453D02*Y49484D01*
Y51500D02*X56000D01*
X22500Y59000D02*X70500D01*
X67941Y44661D02*Y48500D01*
X70500Y44661D02*Y43000D01*
X51626Y45547D02*X56000D01*
X22500Y38000D02*X79500D01*
X70500Y43000D02*X69500Y42000D01*
X60000D01*
X73059Y44661D02*Y41000D01*
X79500Y38000D02*X80500Y39000D01*
Y54500D01*
X79500Y55500D01*
X75000D01*
X73059Y53559D01*
Y52339D01*
X70500Y59000D02*X72500Y57000D01*
G54D12*X26500Y19406D02*X33500D01*
X26500Y15469D02*X32031D01*
G54D13*X22500Y24000D02*X70500D01*
G54D12*X32031Y15469D02*X33500Y14000D01*
G54D13*X42374Y14484D02*X51626D01*
Y16453D02*Y14484D01*
Y16500D02*X56000D01*
X51626Y10547D02*X56000D01*
G54D12*X33500Y14000D02*Y10500D01*
G54D13*X42374Y10547D02*Y3000D01*
Y16453D02*Y24000D01*
X22469Y11531D02*X21500Y12500D01*
Y23000D01*
X22500Y24000D01*
X70500D02*X72500Y22000D01*
X26500Y11531D02*X22469D01*
X26500Y7594D02*X22594D01*
X21500Y6500D01*
Y4000D01*
X22500Y3000D01*
X79500D01*
X67941Y9661D02*Y13500D01*
X79500Y3000D02*X80500Y4000D01*
X70500Y9661D02*Y8000D01*
X69500Y7000D01*
X60000D01*
X73059Y9661D02*Y6000D01*
X80500Y4000D02*Y19500D01*
X79500Y20500D01*
X75000D01*
X73059Y18559D01*
Y17339D01*
X42374Y84484D02*X51626D01*
Y86453D02*Y84484D01*
X42374Y80547D02*Y73000D01*
Y86453D02*Y94000D01*
X51626Y86500D02*X56000D01*
X22500Y73000D02*X79500D01*
X80500Y74000D01*
X22500Y94000D02*X70500D01*
X73059Y79661D02*Y76000D01*
X79500Y90500D02*X75000D01*
X73059Y88559D01*
Y87339D01*
X70500Y94000D02*X72500Y92000D01*
X26500Y81531D02*X22469D01*
X21500Y82500D01*
Y93000D01*
G54D12*X26500Y89406D02*X33500D01*
X26500Y85469D02*X32031D01*
X33500Y84000D01*
Y80500D01*
G54D13*X21500Y93000D02*X22500Y94000D01*
X26500Y77594D02*X22594D01*
X21500Y76500D01*
Y74000D01*
X22500Y73000D01*
X51626Y80547D02*X56000D01*
X67941Y79661D02*Y83500D01*
X70500Y79661D02*Y78000D01*
X69500Y77000D01*
X60000D01*
X80500Y74000D02*Y89500D01*
X79500Y90500D01*
G54D14*X24630Y89406D02*X28370D01*
X24630Y85469D02*X28370D01*
X24630Y81531D02*X28370D01*
X24630Y77594D02*X28370D01*
G54D15*X9620Y72919D02*X12868D01*
X9620Y94081D02*X12868D01*
G54D14*X24630Y54406D02*X28370D01*
X24630Y50469D02*X28370D01*
X24630Y46531D02*X28370D01*
X24630Y42594D02*X28370D01*
X24630Y19406D02*X28370D01*
X24630Y15469D02*X28370D01*
X24630Y11531D02*X28370D01*
X24630Y7594D02*X28370D01*
G54D15*X9620Y37919D02*X12868D01*
X9620Y59081D02*X12868D01*
X9620Y2919D02*X12868D01*
X9620Y24081D02*X12868D01*
G54D16*X59107Y79957D02*X59893D01*
G54D17*X67941D02*Y79366D01*
X70500Y79957D02*Y79366D01*
X73059Y79957D02*Y79366D01*
G54D18*X68531Y83500D02*X72469D01*
G54D16*X59107Y87043D02*X59893D01*
G54D17*X73059Y87634D02*Y87043D01*
X70500Y87634D02*Y87043D01*
X67941Y87634D02*Y87043D01*
G54D19*X41783Y86453D02*X42965D01*
X41783Y84484D02*X42965D01*
X41783Y82516D02*X42965D01*
X41783Y80547D02*X42965D01*
X51035D02*X52217D01*
X51035Y82516D02*X52217D01*
X51035Y84484D02*X52217D01*
X51035Y86453D02*X52217D01*
G54D20*X47000Y84878D02*Y82122D01*
G54D18*Y84878D02*Y82122D01*
G54D16*X59107Y44957D02*X59893D01*
X59107Y52043D02*X59893D01*
G54D17*X67941Y44957D02*Y44366D01*
X70500Y44957D02*Y44366D01*
X73059Y44957D02*Y44366D01*
G54D18*X68531Y48500D02*X72469D01*
G54D19*X41783Y51453D02*X42965D01*
G54D17*X73059Y52634D02*Y52043D01*
X70500Y52634D02*Y52043D01*
X67941Y52634D02*Y52043D01*
G54D19*X41783Y49484D02*X42965D01*
X41783Y47516D02*X42965D01*
X41783Y45547D02*X42965D01*
X51035D02*X52217D01*
X51035Y47516D02*X52217D01*
X51035Y49484D02*X52217D01*
X51035Y51453D02*X52217D01*
G54D20*X47000Y49878D02*Y47122D01*
G54D18*Y49878D02*Y47122D01*
G54D16*X59107Y9957D02*X59893D01*
X59107Y17043D02*X59893D01*
G54D17*X73059Y17634D02*Y17043D01*
X70500Y17634D02*Y17043D01*
X67941Y17634D02*Y17043D01*
Y9957D02*Y9366D01*
X70500Y9957D02*Y9366D01*
X73059Y9957D02*Y9366D01*
G54D18*X68531Y13500D02*X72469D01*
G54D19*X41783Y16453D02*X42965D01*
X41783Y14484D02*X42965D01*
X41783Y12516D02*X42965D01*
X41783Y10547D02*X42965D01*
X51035D02*X52217D01*
X51035Y12516D02*X52217D01*
X51035Y14484D02*X52217D01*
X51035Y16453D02*X52217D01*
G54D20*X47000Y14878D02*Y12122D01*
G54D18*Y14878D02*Y12122D01*
G54D21*X33000Y54500D03*
Y46000D03*
X36000D03*
Y54500D03*
X47000Y55000D03*
X50500D03*
X54000D03*
X47000Y20000D03*
X50500D03*
X54000D03*
X33000Y19500D03*
Y11000D03*
X36000D03*
Y19500D03*
X47000Y7000D03*
X50500D03*
X54000D03*
X47000Y42000D03*
X50500D03*
X54000D03*
X33000Y89500D03*
Y81000D03*
X36000D03*
Y89500D03*
X47000Y77000D03*
X50500D03*
X54000D03*
X47000Y90000D03*
X50500D03*
X54000D03*
X77000Y87000D03*
Y83500D03*
Y80000D03*
X73059Y76000D03*
X72500Y92000D03*
X64500Y86500D03*
X77000Y52000D03*
Y48500D03*
Y45000D03*
X73059Y41000D03*
X72500Y57000D03*
X64500Y51500D03*
X77000Y17000D03*
X72500Y22000D03*
X64500Y16500D03*
X77000Y13500D03*
Y10000D03*
X73059Y6000D03*
G54D22*G54D23*G54D22*G54D23*G54D22*G54D23*G54D22*G54D23*G54D22*G54D23*M02*
