M48
INCH
T30C0.012
%
T30
X003300Y008950
X003300Y008100
X003300Y005450
X003300Y004600
X003300Y001950
X003300Y001100
X003600Y008950
X003600Y008100
X003600Y005450
X003600Y004600
X003600Y001950
X003600Y001100
X004700Y009000
X004700Y007700
X004700Y005500
X004700Y004200
X004700Y002000
X004700Y000700
X005050Y009000
X005050Y007700
X005050Y005500
X005050Y004200
X005050Y002000
X005050Y000700
X005400Y009000
X005400Y007700
X005400Y005500
X005400Y004200
X005400Y002000
X005400Y000700
X006450Y008650
X006450Y005150
X006450Y001650
X007250Y009200
X007250Y005700
X007250Y002200
X007306Y007600
X007306Y004100
X007306Y000600
X007700Y008700
X007700Y008350
X007700Y008000
X007700Y005200
X007700Y004850
X007700Y004500
X007700Y001700
X007700Y001350
X007700Y001000
M30
