G04 start of page 10 for group -4078 idx -4078 *
G04 Title: (unknown), bottomsilk *
G04 Creator: pcb 20140316 *
G04 CreationDate: Thu 29 Nov 2018 09:56:59 PM GMT UTC *
G04 For: railfan *
G04 Format: Gerber/RS-274X *
G04 PCB-Dimensions (mil): 900.00 970.00 *
G04 PCB-Coordinate-Origin: lower left *
%MOIN*%
%FSLAX25Y25*%
%LNBOTTOMSILK*%
%ADD41C,0.0080*%
G54D41*X39000Y80500D02*Y80600D01*
Y82000D02*Y83500D01*
X41500Y81500D02*X42000Y82000D01*
X40500Y81500D02*X41500D01*
X40000Y82000D02*X40500Y81500D01*
X40000Y82000D02*Y83000D01*
X40500Y83500D01*
X42000Y81500D02*Y83000D01*
X42500Y83500D01*
X40500D02*X41500D01*
X42000Y83000D01*
X44200Y83500D02*X45700D01*
X46200Y83000D01*
X45700Y82500D02*X46200Y83000D01*
X44200Y82500D02*X45700D01*
X43700Y82000D02*X44200Y82500D01*
X43700Y82000D02*X44200Y81500D01*
X45700D01*
X46200Y82000D01*
X43700Y83000D02*X44200Y83500D01*
X47900Y81500D02*X49400D01*
X47400Y82000D02*X47900Y81500D01*
X47400Y82000D02*Y83000D01*
X47900Y83500D01*
X49400D01*
X52100Y81500D02*X52600Y82000D01*
X51100Y81500D02*X52100D01*
X50600Y82000D02*X51100Y81500D01*
X50600Y82000D02*Y83000D01*
X51100Y83500D01*
X52600Y81500D02*Y83000D01*
X53100Y83500D01*
X51100D02*X52100D01*
X52600Y83000D01*
X54300Y79500D02*Y83000D01*
X54800Y83500D01*
X56300D02*X57800D01*
X55800Y83000D02*X56300Y83500D01*
X55800Y82000D02*Y83000D01*
Y82000D02*X56300Y81500D01*
X57300D01*
X57800Y82000D01*
X55800Y82500D02*X57800D01*
Y82000D02*Y82500D01*
X61000Y79500D02*Y83500D01*
X60500D02*X61000Y83000D01*
X59500Y83500D02*X60500D01*
X59000Y83000D02*X59500Y83500D01*
X59000Y82000D02*Y83000D01*
Y82000D02*X59500Y81500D01*
X60500D01*
X61000Y82000D01*
X62200Y83500D02*X62700D01*
X64400Y81500D02*X65900D01*
X63900Y82000D02*X64400Y81500D01*
X63900Y82000D02*Y83000D01*
X64400Y83500D01*
X65900D01*
X67100Y82000D02*Y83000D01*
Y82000D02*X67600Y81500D01*
X68600D01*
X69100Y82000D01*
Y83000D01*
X68600Y83500D02*X69100Y83000D01*
X67600Y83500D02*X68600D01*
X67100Y83000D02*X67600Y83500D01*
X70800Y82000D02*Y83500D01*
Y82000D02*X71300Y81500D01*
X71800D01*
X72300Y82000D01*
Y83500D01*
Y82000D02*X72800Y81500D01*
X73300D01*
X73800Y82000D01*
Y83500D01*
X70300Y81500D02*X70800Y82000D01*
X56500Y92965D02*X56885Y93350D01*
X56500Y90655D02*X56885Y90270D01*
X56500Y90655D02*Y92965D01*
X58348Y93350D02*X59349D01*
X57809Y92811D02*X58348Y93350D01*
X57809Y90809D02*Y92811D01*
Y90809D02*X58348Y90270D01*
X59349D01*
X60273D02*X60658Y90655D01*
Y92965D01*
X60273Y93350D02*X60658Y92965D01*
X61582Y90655D02*X61967Y90270D01*
X63122D01*
X63507Y90655D01*
Y91425D01*
X61582Y93350D02*X63507Y91425D01*
X61582Y93350D02*X63507D01*
X64431Y92965D02*X64816Y93350D01*
X64431Y90655D02*Y92965D01*
Y90655D02*X64816Y90270D01*
X65586D01*
X65971Y90655D01*
Y92965D01*
X65586Y93350D02*X65971Y92965D01*
X64816Y93350D02*X65586D01*
X64431Y92580D02*X65971Y91040D01*
X66895Y90886D02*X67511Y90270D01*
Y93350D01*
X66895D02*X68050D01*
X68974Y92965D02*X69359Y93350D01*
X68974Y92349D02*Y92965D01*
Y92349D02*X69513Y91810D01*
X69975D01*
X70514Y92349D01*
Y92965D01*
X70129Y93350D02*X70514Y92965D01*
X69359Y93350D02*X70129D01*
X68974Y91271D02*X69513Y91810D01*
X68974Y90655D02*Y91271D01*
Y90655D02*X69359Y90270D01*
X70129D01*
X70514Y90655D01*
Y91271D01*
X69975Y91810D02*X70514Y91271D01*
X56500Y57965D02*X56885Y58350D01*
X56500Y55655D02*X56885Y55270D01*
X56500Y55655D02*Y57965D01*
X58348Y58350D02*X59349D01*
X57809Y57811D02*X58348Y58350D01*
X57809Y55809D02*Y57811D01*
Y55809D02*X58348Y55270D01*
X59349D01*
X60273D02*X60658Y55655D01*
Y57965D01*
X60273Y58350D02*X60658Y57965D01*
X61582Y55655D02*X61967Y55270D01*
X63122D01*
X63507Y55655D01*
Y56425D01*
X61582Y58350D02*X63507Y56425D01*
X61582Y58350D02*X63507D01*
X64431Y57965D02*X64816Y58350D01*
X64431Y55655D02*Y57965D01*
Y55655D02*X64816Y55270D01*
X65586D01*
X65971Y55655D01*
Y57965D01*
X65586Y58350D02*X65971Y57965D01*
X64816Y58350D02*X65586D01*
X64431Y57580D02*X65971Y56040D01*
X66895Y55886D02*X67511Y55270D01*
Y58350D01*
X66895D02*X68050D01*
X68974Y57965D02*X69359Y58350D01*
X68974Y57349D02*Y57965D01*
Y57349D02*X69513Y56810D01*
X69975D01*
X70514Y57349D01*
Y57965D01*
X70129Y58350D02*X70514Y57965D01*
X69359Y58350D02*X70129D01*
X68974Y56271D02*X69513Y56810D01*
X68974Y55655D02*Y56271D01*
Y55655D02*X69359Y55270D01*
X70129D01*
X70514Y55655D01*
Y56271D01*
X69975Y56810D02*X70514Y56271D01*
X10000Y73500D02*X11000D01*
X10500D02*Y77500D01*
X10000D02*X11000D01*
X12200Y74000D02*X12700Y73500D01*
X14200D01*
X14700Y74000D01*
Y75000D01*
X12200Y77500D02*X14700Y75000D01*
X12200Y77500D02*X14700D01*
X16600D02*X17900D01*
X15900Y76800D02*X16600Y77500D01*
X15900Y74200D02*Y76800D01*
Y74200D02*X16600Y73500D01*
X17900D01*
X19100Y75500D02*X21100D01*
X22300Y73500D02*Y75500D01*
X22800Y77500D01*
X23800Y75500D01*
X24800Y77500D01*
X25300Y75500D01*
Y73500D02*Y75500D01*
X26500Y77500D02*X29000Y73500D01*
X26500D02*X29000Y77500D01*
X32200Y73500D02*X32700Y74000D01*
X30700Y73500D02*X32200D01*
X30200Y74000D02*X30700Y73500D01*
X30200Y74000D02*Y75000D01*
X30700Y75500D01*
X32200D01*
X32700Y76000D01*
Y77000D01*
X32200Y77500D02*X32700Y77000D01*
X30700Y77500D02*X32200D01*
X30200Y77000D02*X30700Y77500D01*
X33900Y73500D02*Y77500D01*
Y73500D02*X36400Y77500D01*
Y73500D02*Y77500D01*
X39600Y73500D02*X40100Y74000D01*
X38100Y73500D02*X39600D01*
X37600Y74000D02*X38100Y73500D01*
X37600Y74000D02*Y75000D01*
X38100Y75500D01*
X39600D01*
X40100Y76000D01*
Y77000D01*
X39600Y77500D02*X40100Y77000D01*
X38100Y77500D02*X39600D01*
X37600Y77000D02*X38100Y77500D01*
X11539Y93350D02*X12540D01*
X11000Y92811D02*X11539Y93350D01*
X11000Y90809D02*Y92811D01*
Y90809D02*X11539Y90270D01*
X12540D01*
X14003Y93350D02*X15004D01*
X13464Y92811D02*X14003Y93350D01*
X13464Y90809D02*Y92811D01*
Y90809D02*X14003Y90270D01*
X15004D01*
X17314Y93350D02*X18854D01*
X19239Y92965D01*
Y92041D02*Y92965D01*
X18854Y91656D02*X19239Y92041D01*
X17699Y91656D02*X18854D01*
X17699Y90270D02*Y93350D01*
X17314Y90270D02*X18854D01*
X19239Y90655D01*
Y91271D01*
X18854Y91656D02*X19239Y91271D01*
X20163Y90270D02*X20933Y91810D01*
X21703Y90270D01*
X20933Y91810D02*Y93350D01*
X22627Y91810D02*X24167D01*
X26631Y90270D02*X27016Y90655D01*
X25476Y90270D02*X26631D01*
X25091Y90655D02*X25476Y90270D01*
X25091Y90655D02*Y91425D01*
X25476Y91810D01*
X26631D01*
X27016Y92195D01*
Y92965D01*
X26631Y93350D02*X27016Y92965D01*
X25476Y93350D02*X26631D01*
X25091Y92965D02*X25476Y93350D01*
X27940Y91040D02*Y93350D01*
Y91040D02*X28479Y90270D01*
X29326D01*
X29865Y91040D01*
Y93350D01*
X27940Y91810D02*X29865D01*
X10500Y82000D02*X11500Y84000D01*
X12500Y82000D02*X11500Y84000D01*
X13700Y80500D02*X14200Y80000D01*
X15700D01*
X16200Y80500D01*
Y81500D01*
X13700Y84000D02*X16200Y81500D01*
X13700Y84000D02*X16200D01*
X17400D02*X17900D01*
X19100Y80800D02*X19900Y80000D01*
Y84000D01*
X19100D02*X20600D01*
X10000Y38500D02*X11000D01*
X10500D02*Y42500D01*
X10000D02*X11000D01*
X12200Y39000D02*X12700Y38500D01*
X14200D01*
X14700Y39000D01*
Y40000D01*
X12200Y42500D02*X14700Y40000D01*
X12200Y42500D02*X14700D01*
X16600D02*X17900D01*
X15900Y41800D02*X16600Y42500D01*
X15900Y39200D02*Y41800D01*
Y39200D02*X16600Y38500D01*
X17900D01*
X19100Y40500D02*X21100D01*
X22300Y38500D02*Y40500D01*
X22800Y42500D01*
X23800Y40500D01*
X24800Y42500D01*
X25300Y40500D01*
Y38500D02*Y40500D01*
X26500Y42500D02*X29000Y38500D01*
X26500D02*X29000Y42500D01*
X32200Y38500D02*X32700Y39000D01*
X30700Y38500D02*X32200D01*
X30200Y39000D02*X30700Y38500D01*
X30200Y39000D02*Y40000D01*
X30700Y40500D01*
X32200D01*
X32700Y41000D01*
Y42000D01*
X32200Y42500D02*X32700Y42000D01*
X30700Y42500D02*X32200D01*
X30200Y42000D02*X30700Y42500D01*
X33900Y38500D02*Y42500D01*
Y38500D02*X36400Y42500D01*
Y38500D02*Y42500D01*
X39600Y38500D02*X40100Y39000D01*
X38100Y38500D02*X39600D01*
X37600Y39000D02*X38100Y38500D01*
X37600Y39000D02*Y40000D01*
X38100Y40500D01*
X39600D01*
X40100Y41000D01*
Y42000D01*
X39600Y42500D02*X40100Y42000D01*
X38100Y42500D02*X39600D01*
X37600Y42000D02*X38100Y42500D01*
X39000Y45500D02*Y45600D01*
Y47000D02*Y48500D01*
X41500Y46500D02*X42000Y47000D01*
X40500Y46500D02*X41500D01*
X40000Y47000D02*X40500Y46500D01*
X40000Y47000D02*Y48000D01*
X40500Y48500D01*
X42000Y46500D02*Y48000D01*
X42500Y48500D01*
X40500D02*X41500D01*
X42000Y48000D01*
X44200Y48500D02*X45700D01*
X46200Y48000D01*
X45700Y47500D02*X46200Y48000D01*
X44200Y47500D02*X45700D01*
X43700Y47000D02*X44200Y47500D01*
X43700Y47000D02*X44200Y46500D01*
X45700D01*
X46200Y47000D01*
X43700Y48000D02*X44200Y48500D01*
X47900Y46500D02*X49400D01*
X47400Y47000D02*X47900Y46500D01*
X47400Y47000D02*Y48000D01*
X47900Y48500D01*
X49400D01*
X52100Y46500D02*X52600Y47000D01*
X51100Y46500D02*X52100D01*
X50600Y47000D02*X51100Y46500D01*
X50600Y47000D02*Y48000D01*
X51100Y48500D01*
X52600Y46500D02*Y48000D01*
X53100Y48500D01*
X51100D02*X52100D01*
X52600Y48000D01*
X54300Y44500D02*Y48000D01*
X54800Y48500D01*
X56300D02*X57800D01*
X55800Y48000D02*X56300Y48500D01*
X55800Y47000D02*Y48000D01*
Y47000D02*X56300Y46500D01*
X57300D01*
X57800Y47000D01*
X55800Y47500D02*X57800D01*
Y47000D02*Y47500D01*
X61000Y44500D02*Y48500D01*
X60500D02*X61000Y48000D01*
X59500Y48500D02*X60500D01*
X59000Y48000D02*X59500Y48500D01*
X59000Y47000D02*Y48000D01*
Y47000D02*X59500Y46500D01*
X60500D01*
X61000Y47000D01*
X62200Y48500D02*X62700D01*
X64400Y46500D02*X65900D01*
X63900Y47000D02*X64400Y46500D01*
X63900Y47000D02*Y48000D01*
X64400Y48500D01*
X65900D01*
X67100Y47000D02*Y48000D01*
Y47000D02*X67600Y46500D01*
X68600D01*
X69100Y47000D01*
Y48000D01*
X68600Y48500D02*X69100Y48000D01*
X67600Y48500D02*X68600D01*
X67100Y48000D02*X67600Y48500D01*
X70800Y47000D02*Y48500D01*
Y47000D02*X71300Y46500D01*
X71800D01*
X72300Y47000D01*
Y48500D01*
Y47000D02*X72800Y46500D01*
X73300D01*
X73800Y47000D01*
Y48500D01*
X70300Y46500D02*X70800Y47000D01*
X11539Y58350D02*X12540D01*
X11000Y57811D02*X11539Y58350D01*
X11000Y55809D02*Y57811D01*
Y55809D02*X11539Y55270D01*
X12540D01*
X14003Y58350D02*X15004D01*
X13464Y57811D02*X14003Y58350D01*
X13464Y55809D02*Y57811D01*
Y55809D02*X14003Y55270D01*
X15004D01*
X17314Y58350D02*X18854D01*
X19239Y57965D01*
Y57041D02*Y57965D01*
X18854Y56656D02*X19239Y57041D01*
X17699Y56656D02*X18854D01*
X17699Y55270D02*Y58350D01*
X17314Y55270D02*X18854D01*
X19239Y55655D01*
Y56271D01*
X18854Y56656D02*X19239Y56271D01*
X20163Y55270D02*X20933Y56810D01*
X21703Y55270D01*
X20933Y56810D02*Y58350D01*
X22627Y56810D02*X24167D01*
X26631Y55270D02*X27016Y55655D01*
X25476Y55270D02*X26631D01*
X25091Y55655D02*X25476Y55270D01*
X25091Y55655D02*Y56425D01*
X25476Y56810D01*
X26631D01*
X27016Y57195D01*
Y57965D01*
X26631Y58350D02*X27016Y57965D01*
X25476Y58350D02*X26631D01*
X25091Y57965D02*X25476Y58350D01*
X27940Y56040D02*Y58350D01*
Y56040D02*X28479Y55270D01*
X29326D01*
X29865Y56040D01*
Y58350D01*
X27940Y56810D02*X29865D01*
X10500Y47000D02*X11500Y49000D01*
X12500Y47000D02*X11500Y49000D01*
X13700Y45500D02*X14200Y45000D01*
X15700D01*
X16200Y45500D01*
Y46500D01*
X13700Y49000D02*X16200Y46500D01*
X13700Y49000D02*X16200D01*
X17400D02*X17900D01*
X19100Y45800D02*X19900Y45000D01*
Y49000D01*
X19100D02*X20600D01*
X10000Y3500D02*X11000D01*
X10500D02*Y7500D01*
X10000D02*X11000D01*
X12200Y4000D02*X12700Y3500D01*
X14200D01*
X14700Y4000D01*
Y5000D01*
X12200Y7500D02*X14700Y5000D01*
X12200Y7500D02*X14700D01*
X16600D02*X17900D01*
X15900Y6800D02*X16600Y7500D01*
X15900Y4200D02*Y6800D01*
Y4200D02*X16600Y3500D01*
X17900D01*
X19100Y5500D02*X21100D01*
X22300Y3500D02*Y5500D01*
X22800Y7500D01*
X23800Y5500D01*
X24800Y7500D01*
X25300Y5500D01*
Y3500D02*Y5500D01*
X26500Y7500D02*X29000Y3500D01*
X26500D02*X29000Y7500D01*
X32200Y3500D02*X32700Y4000D01*
X30700Y3500D02*X32200D01*
X30200Y4000D02*X30700Y3500D01*
X30200Y4000D02*Y5000D01*
X30700Y5500D01*
X32200D01*
X32700Y6000D01*
Y7000D01*
X32200Y7500D02*X32700Y7000D01*
X30700Y7500D02*X32200D01*
X30200Y7000D02*X30700Y7500D01*
X33900Y3500D02*Y7500D01*
Y3500D02*X36400Y7500D01*
Y3500D02*Y7500D01*
X39600Y3500D02*X40100Y4000D01*
X38100Y3500D02*X39600D01*
X37600Y4000D02*X38100Y3500D01*
X37600Y4000D02*Y5000D01*
X38100Y5500D01*
X39600D01*
X40100Y6000D01*
Y7000D01*
X39600Y7500D02*X40100Y7000D01*
X38100Y7500D02*X39600D01*
X37600Y7000D02*X38100Y7500D01*
X10500Y12000D02*X11500Y14000D01*
X12500Y12000D02*X11500Y14000D01*
X13700Y10500D02*X14200Y10000D01*
X15700D01*
X16200Y10500D01*
Y11500D01*
X13700Y14000D02*X16200Y11500D01*
X13700Y14000D02*X16200D01*
X17400D02*X17900D01*
X19100Y10800D02*X19900Y10000D01*
Y14000D01*
X19100D02*X20600D01*
X39000Y10500D02*Y10600D01*
Y12000D02*Y13500D01*
X41500Y11500D02*X42000Y12000D01*
X40500Y11500D02*X41500D01*
X40000Y12000D02*X40500Y11500D01*
X40000Y12000D02*Y13000D01*
X40500Y13500D01*
X42000Y11500D02*Y13000D01*
X42500Y13500D01*
X40500D02*X41500D01*
X42000Y13000D01*
X44200Y13500D02*X45700D01*
X46200Y13000D01*
X45700Y12500D02*X46200Y13000D01*
X44200Y12500D02*X45700D01*
X43700Y12000D02*X44200Y12500D01*
X43700Y12000D02*X44200Y11500D01*
X45700D01*
X46200Y12000D01*
X43700Y13000D02*X44200Y13500D01*
X47900Y11500D02*X49400D01*
X47400Y12000D02*X47900Y11500D01*
X47400Y12000D02*Y13000D01*
X47900Y13500D01*
X49400D01*
X52100Y11500D02*X52600Y12000D01*
X51100Y11500D02*X52100D01*
X50600Y12000D02*X51100Y11500D01*
X50600Y12000D02*Y13000D01*
X51100Y13500D01*
X52600Y11500D02*Y13000D01*
X53100Y13500D01*
X51100D02*X52100D01*
X52600Y13000D01*
X54300Y9500D02*Y13000D01*
X54800Y13500D01*
X56300D02*X57800D01*
X55800Y13000D02*X56300Y13500D01*
X55800Y12000D02*Y13000D01*
Y12000D02*X56300Y11500D01*
X57300D01*
X57800Y12000D01*
X55800Y12500D02*X57800D01*
Y12000D02*Y12500D01*
X61000Y9500D02*Y13500D01*
X60500D02*X61000Y13000D01*
X59500Y13500D02*X60500D01*
X59000Y13000D02*X59500Y13500D01*
X59000Y12000D02*Y13000D01*
Y12000D02*X59500Y11500D01*
X60500D01*
X61000Y12000D01*
X62200Y13500D02*X62700D01*
X64400Y11500D02*X65900D01*
X63900Y12000D02*X64400Y11500D01*
X63900Y12000D02*Y13000D01*
X64400Y13500D01*
X65900D01*
X67100Y12000D02*Y13000D01*
Y12000D02*X67600Y11500D01*
X68600D01*
X69100Y12000D01*
Y13000D01*
X68600Y13500D02*X69100Y13000D01*
X67600Y13500D02*X68600D01*
X67100Y13000D02*X67600Y13500D01*
X70800Y12000D02*Y13500D01*
Y12000D02*X71300Y11500D01*
X71800D01*
X72300Y12000D01*
Y13500D01*
Y12000D02*X72800Y11500D01*
X73300D01*
X73800Y12000D01*
Y13500D01*
X70300Y11500D02*X70800Y12000D01*
X11539Y23350D02*X12540D01*
X11000Y22811D02*X11539Y23350D01*
X11000Y20809D02*Y22811D01*
Y20809D02*X11539Y20270D01*
X12540D01*
X14003Y23350D02*X15004D01*
X13464Y22811D02*X14003Y23350D01*
X13464Y20809D02*Y22811D01*
Y20809D02*X14003Y20270D01*
X15004D01*
X17314Y23350D02*X18854D01*
X19239Y22965D01*
Y22041D02*Y22965D01*
X18854Y21656D02*X19239Y22041D01*
X17699Y21656D02*X18854D01*
X17699Y20270D02*Y23350D01*
X17314Y20270D02*X18854D01*
X19239Y20655D01*
Y21271D01*
X18854Y21656D02*X19239Y21271D01*
X20163Y20270D02*X20933Y21810D01*
X21703Y20270D01*
X20933Y21810D02*Y23350D01*
X22627Y21810D02*X24167D01*
X26631Y20270D02*X27016Y20655D01*
X25476Y20270D02*X26631D01*
X25091Y20655D02*X25476Y20270D01*
X25091Y20655D02*Y21425D01*
X25476Y21810D01*
X26631D01*
X27016Y22195D01*
Y22965D01*
X26631Y23350D02*X27016Y22965D01*
X25476Y23350D02*X26631D01*
X25091Y22965D02*X25476Y23350D01*
X27940Y21040D02*Y23350D01*
Y21040D02*X28479Y20270D01*
X29326D01*
X29865Y21040D01*
Y23350D01*
X27940Y21810D02*X29865D01*
X56500Y22965D02*X56885Y23350D01*
X56500Y20655D02*X56885Y20270D01*
X56500Y20655D02*Y22965D01*
X58348Y23350D02*X59349D01*
X57809Y22811D02*X58348Y23350D01*
X57809Y20809D02*Y22811D01*
Y20809D02*X58348Y20270D01*
X59349D01*
X60273D02*X60658Y20655D01*
Y22965D01*
X60273Y23350D02*X60658Y22965D01*
X61582Y20655D02*X61967Y20270D01*
X63122D01*
X63507Y20655D01*
Y21425D01*
X61582Y23350D02*X63507Y21425D01*
X61582Y23350D02*X63507D01*
X64431Y22965D02*X64816Y23350D01*
X64431Y20655D02*Y22965D01*
Y20655D02*X64816Y20270D01*
X65586D01*
X65971Y20655D01*
Y22965D01*
X65586Y23350D02*X65971Y22965D01*
X64816Y23350D02*X65586D01*
X64431Y22580D02*X65971Y21040D01*
X66895Y20886D02*X67511Y20270D01*
Y23350D01*
X66895D02*X68050D01*
X68974Y22965D02*X69359Y23350D01*
X68974Y22349D02*Y22965D01*
Y22349D02*X69513Y21810D01*
X69975D01*
X70514Y22349D01*
Y22965D01*
X70129Y23350D02*X70514Y22965D01*
X69359Y23350D02*X70129D01*
X68974Y21271D02*X69513Y21810D01*
X68974Y20655D02*Y21271D01*
Y20655D02*X69359Y20270D01*
X70129D01*
X70514Y20655D01*
Y21271D01*
X69975Y21810D02*X70514Y21271D01*
M02*
