G04 start of page 7 for group -4063 idx -4063 *
G04 Title: (unknown), componentmask *
G04 Creator: pcb 20140316 *
G04 CreationDate: Thu 29 Nov 2018 09:56:59 PM GMT UTC *
G04 For: railfan *
G04 Format: Gerber/RS-274X *
G04 PCB-Dimensions (mil): 900.00 970.00 *
G04 PCB-Coordinate-Origin: lower left *
%MOIN*%
%FSLAX25Y25*%
%LNTOPMASK*%
%ADD38R,0.0414X0.0414*%
%ADD37R,0.0158X0.0158*%
%ADD36R,0.0454X0.0454*%
%ADD35R,0.0178X0.0178*%
%ADD34R,0.0572X0.0572*%
%ADD33R,0.0444X0.0444*%
%ADD32R,0.0296X0.0296*%
G54D32*X24630Y89406D02*X28370D01*
X24630Y85469D02*X28370D01*
X24630Y81531D02*X28370D01*
X24630Y77594D02*X28370D01*
G54D33*X9620Y72919D02*X12868D01*
X9620Y94081D02*X12868D01*
G54D32*X24630Y54406D02*X28370D01*
X24630Y50469D02*X28370D01*
X24630Y46531D02*X28370D01*
X24630Y42594D02*X28370D01*
X24630Y19406D02*X28370D01*
X24630Y15469D02*X28370D01*
X24630Y11531D02*X28370D01*
X24630Y7594D02*X28370D01*
G54D33*X9620Y37919D02*X12868D01*
X9620Y59081D02*X12868D01*
X9620Y2919D02*X12868D01*
X9620Y24081D02*X12868D01*
G54D34*X59107Y79957D02*X59893D01*
G54D35*X67941D02*Y79366D01*
X70500Y79957D02*Y79366D01*
X73059Y79957D02*Y79366D01*
G54D36*X68531Y83500D02*X72469D01*
G54D34*X59107Y87043D02*X59893D01*
G54D35*X73059Y87634D02*Y87043D01*
X70500Y87634D02*Y87043D01*
X67941Y87634D02*Y87043D01*
G54D37*X41783Y86453D02*X42965D01*
X41783Y84484D02*X42965D01*
X41783Y82516D02*X42965D01*
X41783Y80547D02*X42965D01*
X51035D02*X52217D01*
X51035Y82516D02*X52217D01*
X51035Y84484D02*X52217D01*
X51035Y86453D02*X52217D01*
G54D38*X47000Y84878D02*Y82122D01*
G54D36*Y84878D02*Y82122D01*
G54D34*X59107Y44957D02*X59893D01*
X59107Y52043D02*X59893D01*
G54D35*X67941Y44957D02*Y44366D01*
X70500Y44957D02*Y44366D01*
X73059Y44957D02*Y44366D01*
G54D36*X68531Y48500D02*X72469D01*
G54D37*X41783Y51453D02*X42965D01*
G54D35*X73059Y52634D02*Y52043D01*
X70500Y52634D02*Y52043D01*
X67941Y52634D02*Y52043D01*
G54D37*X41783Y49484D02*X42965D01*
X41783Y47516D02*X42965D01*
X41783Y45547D02*X42965D01*
X51035D02*X52217D01*
X51035Y47516D02*X52217D01*
X51035Y49484D02*X52217D01*
X51035Y51453D02*X52217D01*
G54D38*X47000Y49878D02*Y47122D01*
G54D36*Y49878D02*Y47122D01*
G54D34*X59107Y9957D02*X59893D01*
X59107Y17043D02*X59893D01*
G54D35*X73059Y17634D02*Y17043D01*
X70500Y17634D02*Y17043D01*
X67941Y17634D02*Y17043D01*
Y9957D02*Y9366D01*
X70500Y9957D02*Y9366D01*
X73059Y9957D02*Y9366D01*
G54D36*X68531Y13500D02*X72469D01*
G54D37*X41783Y16453D02*X42965D01*
X41783Y14484D02*X42965D01*
X41783Y12516D02*X42965D01*
X41783Y10547D02*X42965D01*
X51035D02*X52217D01*
X51035Y12516D02*X52217D01*
X51035Y14484D02*X52217D01*
X51035Y16453D02*X52217D01*
G54D38*X47000Y14878D02*Y12122D01*
G54D36*Y14878D02*Y12122D01*
M02*
