G04 start of page 6 for group -4063 idx -4063 *
G04 Title: (unknown), componentmask *
G04 Creator: pcb 20140316 *
G04 CreationDate: Thu 29 Nov 2018 09:57:10 PM GMT UTC *
G04 For: railfan *
G04 Format: Gerber/RS-274X *
G04 PCB-Dimensions (mil): 750.00 250.00 *
G04 PCB-Coordinate-Origin: lower left *
%MOIN*%
%FSLAX25Y25*%
%LNTOPMASK*%
%ADD35R,0.0414X0.0414*%
%ADD34R,0.0158X0.0158*%
%ADD33R,0.0454X0.0454*%
%ADD32R,0.0178X0.0178*%
%ADD31R,0.0572X0.0572*%
%ADD30R,0.0444X0.0444*%
%ADD29R,0.0296X0.0296*%
G54D29*X17130Y18406D02*X20870D01*
X17130Y14469D02*X20870D01*
X17130Y10531D02*X20870D01*
X17130Y6594D02*X20870D01*
G54D30*X2120Y1919D02*X5368D01*
X2120Y23081D02*X5368D01*
G54D31*X51607Y8957D02*X52393D01*
G54D32*X60441D02*Y8366D01*
X63000Y8957D02*Y8366D01*
X65559Y8957D02*Y8366D01*
G54D33*X61031Y12500D02*X64969D01*
G54D31*X51607Y16043D02*X52393D01*
G54D32*X65559Y16634D02*Y16043D01*
X63000Y16634D02*Y16043D01*
X60441Y16634D02*Y16043D01*
G54D34*X34283Y15453D02*X35465D01*
X34283Y13484D02*X35465D01*
X34283Y11516D02*X35465D01*
X34283Y9547D02*X35465D01*
X43535D02*X44717D01*
X43535Y11516D02*X44717D01*
X43535Y13484D02*X44717D01*
X43535Y15453D02*X44717D01*
G54D35*X39500Y13878D02*Y11122D01*
G54D33*Y13878D02*Y11122D01*
M02*
