G04 start of page 9 for group -4078 idx -4078 *
G04 Title: (unknown), bottomsilk *
G04 Creator: pcb 20140316 *
G04 CreationDate: Thu 29 Nov 2018 09:57:10 PM GMT UTC *
G04 For: railfan *
G04 Format: Gerber/RS-274X *
G04 PCB-Dimensions (mil): 750.00 250.00 *
G04 PCB-Coordinate-Origin: lower left *
%MOIN*%
%FSLAX25Y25*%
%LNBOTTOMSILK*%
%ADD38C,0.0060*%
G54D38*X2500Y2500D02*X3500D01*
X3000D02*Y6500D01*
X2500D02*X3500D01*
X4700Y3000D02*X5200Y2500D01*
X6700D01*
X7200Y3000D01*
Y4000D01*
X4700Y6500D02*X7200Y4000D01*
X4700Y6500D02*X7200D01*
X9100D02*X10400D01*
X8400Y5800D02*X9100Y6500D01*
X8400Y3200D02*Y5800D01*
Y3200D02*X9100Y2500D01*
X10400D01*
X11600Y4500D02*X13600D01*
X14800Y2500D02*Y4500D01*
X15300Y6500D01*
X16300Y4500D01*
X17300Y6500D01*
X17800Y4500D01*
Y2500D02*Y4500D01*
X19000Y6500D02*X21500Y2500D01*
X19000D02*X21500Y6500D01*
X24700Y2500D02*X25200Y3000D01*
X23200Y2500D02*X24700D01*
X22700Y3000D02*X23200Y2500D01*
X22700Y3000D02*Y4000D01*
X23200Y4500D01*
X24700D01*
X25200Y5000D01*
Y6000D01*
X24700Y6500D02*X25200Y6000D01*
X23200Y6500D02*X24700D01*
X22700Y6000D02*X23200Y6500D01*
X26400Y2500D02*Y6500D01*
Y2500D02*X28900Y6500D01*
Y2500D02*Y6500D01*
X32100Y2500D02*X32600Y3000D01*
X30600Y2500D02*X32100D01*
X30100Y3000D02*X30600Y2500D01*
X30100Y3000D02*Y4000D01*
X30600Y4500D01*
X32100D01*
X32600Y5000D01*
Y6000D01*
X32100Y6500D02*X32600Y6000D01*
X30600Y6500D02*X32100D01*
X30100Y6000D02*X30600Y6500D01*
X31500Y9500D02*Y9600D01*
Y11000D02*Y12500D01*
X34000Y10500D02*X34500Y11000D01*
X33000Y10500D02*X34000D01*
X32500Y11000D02*X33000Y10500D01*
X32500Y11000D02*Y12000D01*
X33000Y12500D01*
X34500Y10500D02*Y12000D01*
X35000Y12500D01*
X33000D02*X34000D01*
X34500Y12000D01*
X36700Y12500D02*X38200D01*
X38700Y12000D01*
X38200Y11500D02*X38700Y12000D01*
X36700Y11500D02*X38200D01*
X36200Y11000D02*X36700Y11500D01*
X36200Y11000D02*X36700Y10500D01*
X38200D01*
X38700Y11000D01*
X36200Y12000D02*X36700Y12500D01*
X40400Y10500D02*X41900D01*
X39900Y11000D02*X40400Y10500D01*
X39900Y11000D02*Y12000D01*
X40400Y12500D01*
X41900D01*
X44600Y10500D02*X45100Y11000D01*
X43600Y10500D02*X44600D01*
X43100Y11000D02*X43600Y10500D01*
X43100Y11000D02*Y12000D01*
X43600Y12500D01*
X45100Y10500D02*Y12000D01*
X45600Y12500D01*
X43600D02*X44600D01*
X45100Y12000D01*
X46800Y8500D02*Y12000D01*
X47300Y12500D01*
X48800D02*X50300D01*
X48300Y12000D02*X48800Y12500D01*
X48300Y11000D02*Y12000D01*
Y11000D02*X48800Y10500D01*
X49800D01*
X50300Y11000D01*
X48300Y11500D02*X50300D01*
Y11000D02*Y11500D01*
X53500Y8500D02*Y12500D01*
X53000D02*X53500Y12000D01*
X52000Y12500D02*X53000D01*
X51500Y12000D02*X52000Y12500D01*
X51500Y11000D02*Y12000D01*
Y11000D02*X52000Y10500D01*
X53000D01*
X53500Y11000D01*
X54700Y12500D02*X55200D01*
X56900Y10500D02*X58400D01*
X56400Y11000D02*X56900Y10500D01*
X56400Y11000D02*Y12000D01*
X56900Y12500D01*
X58400D01*
X59600Y11000D02*Y12000D01*
Y11000D02*X60100Y10500D01*
X61100D01*
X61600Y11000D01*
Y12000D01*
X61100Y12500D02*X61600Y12000D01*
X60100Y12500D02*X61100D01*
X59600Y12000D02*X60100Y12500D01*
X63300Y11000D02*Y12500D01*
Y11000D02*X63800Y10500D01*
X64300D01*
X64800Y11000D01*
Y12500D01*
Y11000D02*X65300Y10500D01*
X65800D01*
X66300Y11000D01*
Y12500D01*
X62800Y10500D02*X63300Y11000D01*
X4039Y22350D02*X5040D01*
X3500Y21811D02*X4039Y22350D01*
X3500Y19809D02*Y21811D01*
Y19809D02*X4039Y19270D01*
X5040D01*
X6503Y22350D02*X7504D01*
X5964Y21811D02*X6503Y22350D01*
X5964Y19809D02*Y21811D01*
Y19809D02*X6503Y19270D01*
X7504D01*
X9814Y22350D02*X11354D01*
X11739Y21965D01*
Y21041D02*Y21965D01*
X11354Y20656D02*X11739Y21041D01*
X10199Y20656D02*X11354D01*
X10199Y19270D02*Y22350D01*
X9814Y19270D02*X11354D01*
X11739Y19655D01*
Y20271D01*
X11354Y20656D02*X11739Y20271D01*
X12663Y19270D02*X13433Y20810D01*
X14203Y19270D01*
X13433Y20810D02*Y22350D01*
X15127Y20810D02*X16667D01*
X19131Y19270D02*X19516Y19655D01*
X17976Y19270D02*X19131D01*
X17591Y19655D02*X17976Y19270D01*
X17591Y19655D02*Y20425D01*
X17976Y20810D01*
X19131D01*
X19516Y21195D01*
Y21965D01*
X19131Y22350D02*X19516Y21965D01*
X17976Y22350D02*X19131D01*
X17591Y21965D02*X17976Y22350D01*
X20440Y20040D02*Y22350D01*
Y20040D02*X20979Y19270D01*
X21826D01*
X22365Y20040D01*
Y22350D01*
X20440Y20810D02*X22365D01*
X3000Y11000D02*X4000Y13000D01*
X5000Y11000D02*X4000Y13000D01*
X6200Y9500D02*X6700Y9000D01*
X8200D01*
X8700Y9500D01*
Y10500D01*
X6200Y13000D02*X8700Y10500D01*
X6200Y13000D02*X8700D01*
X9900D02*X10400D01*
X11600Y9800D02*X12400Y9000D01*
Y13000D01*
X11600D02*X13100D01*
X49000Y21965D02*X49385Y22350D01*
X49000Y19655D02*X49385Y19270D01*
X49000Y19655D02*Y21965D01*
X50848Y22350D02*X51849D01*
X50309Y21811D02*X50848Y22350D01*
X50309Y19809D02*Y21811D01*
Y19809D02*X50848Y19270D01*
X51849D01*
X52773D02*X53158Y19655D01*
Y21965D01*
X52773Y22350D02*X53158Y21965D01*
X54082Y19655D02*X54467Y19270D01*
X55622D01*
X56007Y19655D01*
Y20425D01*
X54082Y22350D02*X56007Y20425D01*
X54082Y22350D02*X56007D01*
X56931Y21965D02*X57316Y22350D01*
X56931Y19655D02*Y21965D01*
Y19655D02*X57316Y19270D01*
X58086D01*
X58471Y19655D01*
Y21965D01*
X58086Y22350D02*X58471Y21965D01*
X57316Y22350D02*X58086D01*
X56931Y21580D02*X58471Y20040D01*
X59395Y19886D02*X60011Y19270D01*
Y22350D01*
X59395D02*X60550D01*
X61474Y21965D02*X61859Y22350D01*
X61474Y21349D02*Y21965D01*
Y21349D02*X62013Y20810D01*
X62475D01*
X63014Y21349D01*
Y21965D01*
X62629Y22350D02*X63014Y21965D01*
X61859Y22350D02*X62629D01*
X61474Y20271D02*X62013Y20810D01*
X61474Y19655D02*Y20271D01*
Y19655D02*X61859Y19270D01*
X62629D01*
X63014Y19655D01*
Y20271D01*
X62475Y20810D02*X63014Y20271D01*
M02*
